<?xml version="1.0" encoding="utf-8"?>
<!-- Generator: Adobe Illustrator 27.7.0, SVG Export Plug-In . SVG Version: 6.00 Build 0)  -->
<svg version="1.1" id="Ebene_1" xmlns="http://www.w3.org/2000/svg" xmlns:xlink="http://www.w3.org/1999/xlink" x="0px" y="0px"
	 viewBox="0 0 150 150" style="enable-background:new 0 0 150 150;" xml:space="preserve">
<style type="text/css">
	.st0{clip-path:url(#SVGID_00000139257494683718859030000011048265203673985470_);fill:#00305B;}
</style>
<g>
	<defs>
		<rect id="SVGID_1_" x="44.9" y="29.6" width="60.2" height="96.3"/>
	</defs>
	<clipPath id="SVGID_00000027566443632456430190000011333921739437302151_">
		<use xlink:href="#SVGID_1_"  style="overflow:visible;"/>
	</clipPath>
	<path style="clip-path:url(#SVGID_00000027566443632456430190000011333921739437302151_);fill:#00305B;" d="M65.9,118.4
		c-0.1,0-0.2,0.1-0.3,0.1c-1.2,0.3-2.4,0.5-3.7,0.6c-1.6,0.1-3.2,0.2-4.8,0.3c-1,0.1-2.1,0.3-3,0.8c-0.4,0.2-0.6,0.4-0.8,0.8
		c-0.1,0.3-0.1,0.4,0.2,0.5c0.4,0.2,0.8,0.4,1.2,0.4c1.9,0.3,3.8,0.6,5.8,0.9c1.8,0.2,3.5,0.4,5.3,0.6c1.9,0.2,3.8,0.3,5.8,0.4
		c1.1,0.1,2.3,0.1,3.4,0.1c1.8,0,3.6,0.1,5.5,0.1c0.2,0,0.3,0,0.5-0.1c0.6-0.3,1.1-0.8,1.4-1.4c0.1-0.3,0.1-0.6-0.2-0.8
		c-0.2-0.2-0.4-0.3-0.7-0.4c-0.8-0.4-1.6-0.3-2.5-0.3c-2.4,0.2-4.8,0.2-7.2,0c-1.1-0.1-2.2-0.3-3.3-0.6
		C67.3,120.1,66.3,119.6,65.9,118.4 M80.4,115.6c-0.3-0.2-0.5-0.3-0.7-0.5c-1.4-1.2-2.3-2.7-2.9-4.4c-0.6-1.7-0.9-3.5-0.9-5.3
		c-0.1-2.3-0.1-4.6-0.2-6.9c0-7.8,0-15.5,0-23.3c0-2.4,0.1-4.8,0.3-7.1c0.2-1.8,0.8-3.5,1.4-5.3c0.2-0.7,0.6-1.3,1.1-1.9
		c0.4-0.4,0.7-1,1.1-1.4c1-1,2.1-1.7,3.4-2.3c1.6-0.7,3.1-1.3,4.7-1.9c2.3-0.8,4.5-1.6,6.8-2.4c1.2-0.4,2.4-1,3.4-1.8
		c1.4-1.1,2.4-2.5,3.1-4.1c1.1-2.3,1.5-4.8,1.6-7.4c0.1-1.2,0.1-2.4,0.1-3.6c0-1.3,0-2.5-0.1-3.8c0-0.2-0.1-0.4-0.4-0.4
		c-0.4,0-0.7-0.1-1.1-0.1c-0.5,0-1-0.1-1.5,0c-1.2,0.1-2.4,0.2-3.5,0c-1.6-0.2-3.1-0.2-4.7,0c-1.3,0.2-2.7,0.3-4,0.3
		c-5.2,0-10.5-0.1-15.7,0.2c-1.8,0.1-3.7,0.1-5.5,0.2c-1.8,0.1-3.5,0.1-5.3,0.2c-1.9,0.1-3.7,0.2-5.6,0.2c-2.3,0-4.6,0-6.8,0
		c-0.4,0-0.8,0-1.2,0c0,0.2,0,0.4,0,0.6c0,1.2-0.1,2.5-0.1,3.7c0,1.2,0.1,2.5,0.4,3.7c0.5,2,1.5,3.7,2.8,5.2
		c2.7,3.1,5.8,5.5,9.4,7.3c1.5,0.7,3,1.4,4.4,2.2c2.4,1.3,4.6,3,5.9,5.5c0.4,0.7,0.9,1.3,1,2.1c0.2,1,0.6,2,0.8,3
		c0.6,2.7,0.7,5.4,0.8,8.2c0.1,4.6,0.1,9.1,0.2,13.7c0,2,0.1,4,0.2,6c0.1,1.9,0.2,3.7,0.2,5.6c0,2.8,0.1,5.7-0.3,8.5
		c-0.2,1.5-0.6,3-1.2,4.5c-0.5,1.2-1.1,2.3-2.1,3.2C73.4,115.6,76.9,115.3,80.4,115.6 M75.3,125.9c-2-0.1-4-0.1-5.9-0.3
		c-2-0.1-4-0.2-5.9-0.4c-2.1-0.2-4.2-0.4-6.3-0.7c-1.4-0.2-2.8-0.4-4.1-0.8c-0.7-0.3-1.4-0.6-1.8-1.3c-0.4-0.6-0.4-1.2-0.1-1.7
		c0.4-0.7,0.7-1.3,1.2-1.9c0.8-1.1,1.9-1.7,3.2-1.9c1.1-0.2,2.2-0.3,3.3-0.4c1.6-0.1,3.2-0.2,4.8-0.4c0.9-0.1,1.8-0.4,2.6-0.7
		c1.7-0.6,2.7-1.8,3.4-3.4c0.5-1.3,0.9-2.6,1-3.9c0.5-3.2,0.4-6.5,0.3-9.7c-0.1-1.9-0.1-3.9-0.2-5.8c-0.2-5.2-0.1-10.4-0.2-15.7
		c0-1.8-0.1-3.5-0.2-5.3c-0.1-1.6-0.2-3.2-0.5-4.8c-0.3-1.6-0.8-3.1-1.6-4.6c-1-1.8-2.5-3.2-4.2-4.2c-1.3-0.8-2.7-1.4-4.1-2.1
		c-3.9-1.9-7.4-4.4-10.5-7.4c-1.8-1.8-3.3-3.9-4-6.5c-0.5-1.8-0.7-3.6-0.6-5.4c0.1-1.3,0.2-2.7,0.5-4c0.1-0.3,0.2-0.6,0.3-0.9
		c0.3-0.6,0.8-1,1.4-1c1.1,0,2.2,0,3.2,0c2.4,0,4.8-0.1,7.2-0.1c1.6,0,3.1-0.1,4.7-0.2c3-0.1,6-0.3,9.1-0.4c1.7-0.1,3.4-0.1,5.1-0.2
		c2.1-0.1,4.1-0.1,6.2-0.2c1.6-0.1,3.2-0.1,4.7-0.1c0.9,0,1.8,0.1,2.7,0.1c1.6,0,3.1,0,4.7-0.1c1.8-0.1,3.6,0,5.4,0.1
		c0.8,0.1,1.5,0,2.3,0.1c0.2,0,0.3,0,0.5,0c1.1,0,1.7,0.4,2,1.6c0.2,0.7,0.1,1.4,0.1,2.1c0,1.4,0,2.8,0,4.2
		c-0.1,2.2-0.2,4.4-0.7,6.6c-0.6,2.7-1.7,5.3-3.6,7.4c-1,1.1-2.3,2-3.7,2.6c-1.9,0.9-3.9,1.6-5.9,2.3c-2.2,0.8-4.5,1.6-6.7,2.5
		c-1.1,0.4-2.2,1.1-3.1,1.9c-1.2,1.2-1.9,2.6-2.3,4.2c-0.5,2.1-0.8,4.2-0.8,6.3c0,4.9-0.1,9.8-0.1,14.7c0,2,0,4,0.1,6
		c0,3.3,0.1,6.7,0.1,10c0,1.7,0.1,3.5,0.3,5.2c0.2,1.3,0.6,2.6,1.2,3.8c0.8,1.5,2.1,2.5,3.7,3.2c1.6,0.6,3.2,1.2,4.8,1.7
		c1.3,0.4,2.6,0.8,3.9,1.3c1.1,0.4,2.1,0.9,3,1.6c0.4,0.3,0.8,0.7,1.1,1.1c0.4,0.7,0.3,1.1-0.2,1.6c-0.5,0.5-1.1,0.9-1.7,1.3
		c-0.8,0.5-1.6,0.9-2.5,1.2c-1.2,0.4-2.5,0.7-3.7,0.9c-1.2,0.2-2.4,0.4-3.6,0.6c-0.9,0.1-1.8,0.2-2.7,0.2
		C79.7,125.9,77.5,125.9,75.3,125.9C75.3,125.9,75.3,125.9,75.3,125.9"/>
	<path style="clip-path:url(#SVGID_00000027566443632456430190000011333921739437302151_);fill:#00305B;" d="M83.1,49.8
		c0.5,0.1,1,0,1.4-0.3c0.2-0.1,0.3-0.2,0.5-0.3c1.6-0.6,2.9-1.6,4.1-2.7c1.1-1,2-2,2.9-3.1c1.3-1.6,2.1-3.4,2.6-5.3
		c0.1-0.2,0.2-0.5,0.3-0.7c0.1-0.2,0.2-0.3,0.4-0.3c0.5,0,1,0,1.5,0c0.7,0,1.4-0.1,2.1-0.1c0.7,0,1.3,0.1,1.8,0.7
		c0.1,0.1,0.2,0.1,0.3,0.2c0.1,0.1,0.1,0.2,0.1,0.2c0,0.8,0,1.5-0.2,2.3c-0.6,3.6-2.6,6.4-5.4,8.7c-2,1.6-4.2,2.7-6.5,3.8
		c-2.8,1.3-5.6,2.4-8.6,3.1c-1.8,0.4-3.7,0.7-5.6,0.8c-3.1,0-6-0.7-8.7-2.2c-2.4-1.4-4.8-2.7-7.2-4.1c-2.3-1.4-4.4-3.1-6.3-5
		c-1.6-1.6-2.6-3.5-3.2-5.6c-0.2-0.6-0.3-1.2-0.4-1.9c-0.1-0.9,0.4-1.5,1.3-1.5c0.9,0,1.9,0,2.8,0c2.3-0.1,4.7-0.2,7-0.2
		c1.2,0,2.3-0.1,3.5-0.1c3.4-0.1,6.8-0.2,10.1-0.3c3.5,0,7,0,10.5,0.1c1.1,0,2.2,0.2,3.2,0.2c0.3,0,0.6,0,0.9,0.1
		c0.2,0,0.5,0,0.6,0.2c0.3,0.3,0.6,0.6,0.6,1.1c0,0.5-0.1,1-0.4,1.5c-0.2,0.5-0.4,1-0.7,1.4c-0.6,1.2-1.2,2.4-1.9,3.5
		c-1.1,1.9-2.3,3.7-3.5,5.5C83.2,49.5,83.2,49.7,83.1,49.8"/>
</g>
</svg>
