<?xml version="1.0" encoding="utf-8"?>
<!-- Generator: Adobe Illustrator 27.7.0, SVG Export Plug-In . SVG Version: 6.00 Build 0)  -->
<svg version="1.1" id="Ebene_1" xmlns="http://www.w3.org/2000/svg" xmlns:xlink="http://www.w3.org/1999/xlink" x="0px" y="0px"
	 viewBox="0 0 150 150" style="enable-background:new 0 0 150 150;" xml:space="preserve">
<style type="text/css">
	.st0{clip-path:url(#SVGID_00000051372351057401424110000008660432188301279361_);fill:#00305B;}
</style>
<g>
	<defs>
		<rect id="SVGID_1_" x="52.4" y="11.4" width="44.7" height="132.7"/>
	</defs>
	<clipPath id="SVGID_00000016771031781502496860000008751452254469939592_">
		<use xlink:href="#SVGID_1_"  style="overflow:visible;"/>
	</clipPath>
	<path style="clip-path:url(#SVGID_00000016771031781502496860000008751452254469939592_);fill:#00305B;" d="M65.6,17.6
		c-1.2,0.2-2.4,0.5-3.6,0.7c0.3,0,0.6,0,0.9,0c0.8,0,1.6-0.1,2.3-0.1C65.7,18.1,65.7,18.1,65.6,17.6 M92.4,19.1c0-0.1,0-0.2,0-0.3
		c0-0.1-0.1-0.1-0.2-0.2c-0.5-0.1-0.9-0.1-1.4-0.1c-1.5-0.1-3-0.1-4.5-0.2c-0.7,0-1.5-0.1-2.2-0.1c-0.1,0-0.2-0.1-0.3,0.1
		c0,0.2,0.1,0.2,0.2,0.2c1,0.1,2.1,0.2,3.1,0.3c0.7,0,1.4,0,2,0.1c0.9,0.1,1.8,0.2,2.8,0.3C92.2,19.1,92.3,19.1,92.4,19.1
		 M78.2,13.9c0.1,0,0.2,0,0.3,0.1c0.4,0,0.9,0,1.3,0c0.7,0,1.1,0.4,1.3,1c0.2,0.7,0.3,1.5,0.2,2.2c0,0.8-0.1,1.7-0.1,2.5
		c0,0.1,0.1,0.3,0.1,0.4c0.4-0.1,0.4-0.3,0.5-0.6c0-0.1,0-0.1,0-0.2c0.1-0.9,0.3-1.7,0.4-2.6c0.1-0.8,0.1-1.6-0.2-2.4
		c-0.4-0.8-1-1.3-1.9-1.3C79.5,13,78.7,13.2,78.2,13.9 M69,14.3c0.4,0.1,0.8,0.1,1.1,0.2c1.1,0.4,1.6,1.2,1.9,2.3
		c0.2,1,0.1,2.1,0,3.1c-0.1,0.5-0.2,1-0.2,1.5c0,0.1-0.1,0.3,0.1,0.4c0.2,0.1,0.3,0,0.4-0.2c0.2-0.5,0.4-0.9,0.6-1.4
		c0.4-1,0.6-2.1,0.6-3.2c-0.1-1.1-0.5-2.1-1.3-2.9c-0.7-0.7-1.5-1-2.5-0.8C69.1,13.5,68.9,13.8,69,14.3 M59.9,20.9
		c0,0.6,0,1.1-0.1,1.7c-0.3,2.2-0.5,4.3-0.8,6.5c-0.4,2.4-0.8,4.9-1.2,7.3c-0.4,2.3-0.8,4.7-1.2,7c-0.3,1.8-0.6,3.6-0.8,5.5
		c-0.2,1.3-0.3,2.6-0.5,3.8c-0.2,1.6-0.3,3.2-0.2,4.8c0.1,1.9,0.7,3.8,1.5,5.5c1,2.3,2.5,4.3,4.2,6.2c1.4,1.5,2.8,2.8,4.3,4.2
		c1,0.9,1.9,1.8,2.6,2.8c0.7,0.8,1.3,1.7,2,2.5c0.8,1,1.5,2,1.9,3.2c0.1,0.3,0.2,0.5,0.4,0.8c0.1,0.3,0.3,0.5,0.3,0.8
		c0.2,1,0.5,1.9,0.6,2.9c0.3,1.8,0.4,3.7,0.4,5.6c0.1,1.6,0,3.1,0,4.7c0,1.5-0.1,3-0.1,4.6c0,0.7,0,1.3,0,2c-0.1,1.7-0.1,3.3-0.2,5
		c0,1.4,0,2.9-0.1,4.3c-0.1,2.5-0.1,5-0.2,7.4c0,1.4-0.1,2.8-0.2,4.3c-0.1,1.6-0.3,3.2-0.5,4.7c-0.2,1.4-0.7,2.6-1.9,3.4
		c-0.6,0.4-1.2,0.8-1.8,1.2c-1.9,1.1-4,1.8-6.1,2.3c-1.9,0.5-3.8,0.9-5.7,1.4c-0.6,0.2-1.2,0.4-1.9,0.6c0,0,0,0,0,0.1
		c0.3,0.2,0.6,0.4,0.9,0.6c1.1,0.6,2.2,1,3.4,1.3c2.3,0.6,4.5,1,6.9,1.2c2.2,0.2,4.3,0.4,6.5,0.6c2.2,0.2,4.4,0.3,6.6,0.4
		c2.6,0.1,5.2,0.2,7.8,0.1c1.5-0.1,2.9-0.3,4.4-0.7c0.8-0.2,1.6-0.5,2.2-1.2c0.2-0.2,0.3-0.4,0.4-0.7c0.1-0.2,0-0.4-0.1-0.6
		c-0.2-0.2-0.4-0.3-0.6-0.5c-0.2,0.5-0.6,0.8-1,0.9c-2.1,0.8-4.3,1.4-6.6,1.4c-1.2,0-2.5,0-3.8,0c-0.8,0-1.7-0.1-2.5-0.1
		c-0.8,0-1.7,0.1-2.5,0.1c-0.6,0-1.2,0-1.8,0c-1.1,0-2.2-0.1-3.3-0.4c-0.5-0.1-1-0.3-1.4-0.7c-0.5-0.5-0.5-0.9-0.1-1.4
		c0.1-0.2,0.3-0.3,0.5-0.3c0.4-0.1,0.8-0.2,1.2-0.3c1.8-0.3,3.7-0.2,5.5-0.1c2.3,0.1,4.5,0.1,6.7-0.5c0.9-0.2,1.8-0.4,2.6-0.9
		c0.2-0.1,0.4-0.2,0.6-0.4c0.4-0.4,0.2-0.8-0.2-1c-0.5-0.2-1-0.3-1.4-0.4c-1.5-0.4-3-0.7-4.4-1.4c-1.7-0.8-2.9-2-3.5-3.9
		c-0.4-1.1-0.6-2.3-0.7-3.5c-0.1-1.1-0.2-2.3-0.3-3.4c-0.1-1-0.1-2-0.2-3c-0.1-1.5-0.1-2.9-0.2-4.4c-0.1-2.2-0.2-4.5-0.3-6.7
		c-0.1-1.4-0.1-2.8-0.2-4.2c-0.1-2.6-0.2-5.2-0.3-7.9c0-1.9,0.1-3.8,0.1-5.7c0-1,0.1-2.1,0.3-3.1c0.2-1.2,0.3-2.3,0.6-3.4
		c0.3-1.1,0.7-2,1.3-3c0.2-0.3,0.3-0.7,0.5-1c0.3-0.6,0.6-1.2,0.9-1.8c0.6-0.9,1.2-1.7,1.9-2.5c1.6-1.9,3.4-3.5,5.3-5
		c1.3-1,2.6-2,3.8-3.1c2-1.8,3.4-4,3.9-6.7c0.5-2.6,0.6-5.1,0.5-7.7c-0.1-2.2-0.3-4.3-0.6-6.5c-0.2-1.8-0.5-3.6-0.8-5.3
		c-0.3-1.8-0.7-3.6-1-5.4c-0.5-3-1.1-6.1-1.6-9.1c-0.3-1.6-0.5-3.2-0.8-4.8c0-0.2-0.1-0.3-0.3-0.3c-1.5,0.1-3-0.1-4.5-0.2
		C84.4,21,84,21,83.5,21c-0.2,0-0.3,0-0.4,0.3c-0.1,0.4-0.3,0.8-0.5,1.2c-0.5,0.9-1.2,1.5-2.2,1.6c-1.1,0.2-2.1-0.2-3-0.8
		c-0.8-0.5-1.3-1.3-1.7-2.2c-0.1-0.2-0.1-0.4-0.3-0.4c-0.8,0-0.8-0.1-1.1,0.6c0,0,0,0,0,0c-0.4,1.1-1.1,2-2,2.7
		c-1.4,1-3.1,1.1-4.4,0.1c-1-0.8-1.8-1.8-2.1-3c-0.1-0.3-0.1-0.3-0.5-0.3C63.4,20.8,61.7,20.9,59.9,20.9
		C59.9,20.9,59.9,20.9,59.9,20.9 M58.3,20.2c-0.3,0-0.6,0-0.8,0c-0.7,0-1.4,0-2.1-0.1c-0.2,0-0.4-0.1-0.6-0.2
		c-0.3-0.1-0.5-0.4-0.5-0.7c0-0.3,0.2-0.6,0.5-0.7c0.3-0.1,0.6-0.2,0.9-0.3c1.4-0.3,2.9-0.6,4.3-0.9c1.7-0.3,3.4-0.6,5.1-0.6
		c0.2,0,0.4,0,0.6,0c0.1-0.7,0.2-1.4,0.3-2.1c0.3-1.4,1.1-2.4,2.4-2.9c1.4-0.5,2.7-0.3,4,0.4c1.2,0.7,1.9,1.6,2.4,2.9
		c0.1,0.3,0.2,0.7,0.3,1c0.2-0.5,0.3-0.9,0.5-1.4c0.3-0.8,0.8-1.3,1.4-1.8c1.1-0.9,2.3-1.4,3.8-1.2c1.5,0.2,2.5,1,3.1,2.4
		c0.3,0.7,0.3,1.5,0.2,2.3C84,16.6,84,16.9,84,17.2c0.1,0,0.1,0,0.1,0c2.2,0,4.3,0,6.5,0.2c0.7,0,1.4,0.1,2.1,0.2
		c0.1,0,0.2,0,0.3-0.1c0.2-0.2,0.3-0.5,0.7-0.6c0.5-0.1,1.1-0.1,1.6,0.1c0.8,0.3,1.3,0.9,1.7,1.6c0.6,1.3-0.3,2.9-1.7,3.2
		c-0.7,0.2-1.4-0.1-1.9-0.6C93.1,21.1,93,21,92.8,21c-0.5-0.1-0.9-0.1-1.4-0.1c-0.1,0-0.2,0-0.3,0c0,0.1,0.1,0.3,0.1,0.4
		c0.7,2.2,1.2,4.4,1.7,6.7c0.7,3.4,1.4,6.8,2,10.3c0.4,2.4,0.8,4.8,1.2,7.2c0.2,1.6,0.3,3.3,0.5,4.9c0.1,1.2,0.1,2.4,0.2,3.6
		c0.1,1.7-0.1,3.4-0.3,5.1c-0.2,1.4-0.4,2.7-0.9,4c-0.6,1.9-1.7,3.5-3,4.9c-1.2,1.3-2.6,2.4-4,3.5c-1.9,1.4-3.7,3-5.3,4.7
		c-1.5,1.6-2.8,3.3-3.8,5.2c-0.7,1.4-1.2,2.8-1.4,4.4c-0.3,1.6-0.5,3.3-0.6,4.9c-0.1,2.3-0.2,4.6-0.2,6.9c0,1.3,0.1,2.7,0.2,4
		c0,0.9,0.1,1.8,0.1,2.7c0.1,1.6,0.2,3.2,0.3,4.8c0.1,1,0.1,2,0.1,3c0.1,2.5,0.2,5.1,0.4,7.6c0.1,1.8,0.2,3.6,0.4,5.3
		c0.1,0.9,0.3,1.9,0.5,2.8c0.4,1.7,1.4,2.7,3,3.3c1.2,0.5,2.5,0.7,3.7,1.1c1.2,0.3,2.4,0.6,3.6,1c1.6,0.5,3,1.5,4.1,2.8
		c0.4,0.5,0.9,0.9,1.3,1.5c0.3,0.4,0.5,0.8,0.7,1.2c0.5,1.1,0.3,2-0.5,2.9c-0.7,0.9-1.7,1.4-2.8,1.8c-1.4,0.5-2.8,0.7-4.3,0.9
		c-2.4,0.3-4.9,0.2-7.3,0.1c-2,0-4-0.2-6-0.3c-1.8-0.1-3.5-0.2-5.3-0.4c-1.8-0.2-3.7-0.4-5.5-0.7c-1.9-0.3-3.9-0.7-5.7-1.3
		c-1.2-0.4-2.4-0.9-3.5-1.6c-0.5-0.4-1-0.8-1.4-1.4c0,0-0.1-0.1-0.1-0.1c-0.6-0.2-0.9-0.6-0.7-1.2c0.1-0.5,0.4-1,0.8-1.3
		c0.5-0.4,1.2-0.7,1.8-0.9c1.5-0.4,2.9-0.7,4.4-1.1c2.3-0.5,4.5-1.1,6.6-2.1c0.7-0.3,1.4-0.7,2.1-1.1c1-0.5,1.4-1.4,1.6-2.5
		c0.2-1.7,0.4-3.3,0.5-5c0.1-1.5,0.1-3,0.2-4.5c0-1.8,0.1-3.6,0.1-5.3c0-1.9,0-3.8,0.1-5.7c0-1.4,0.1-2.8,0.2-4.1
		c0.1-1.5,0.1-3.1,0.2-4.6c0.1-2.3,0.1-4.7,0.1-7c0-1.9-0.1-3.8-0.5-5.7c-0.4-2.3-1.2-4.5-2.6-6.5c-0.8-1.1-1.8-2.1-2.8-3.1
		c-1.8-1.7-3.6-3.4-5.4-5.1c-1.7-1.7-3.3-3.6-4.6-5.7c-1.5-2.3-2.5-4.8-2.8-7.6c-0.2-1.3-0.3-2.5-0.1-3.8c0.2-2.4,0.5-4.7,0.8-7.1
		c0.4-3,0.9-6.1,1.5-9.1c0.5-3.2,1.1-6.4,1.6-9.6c0.4-2.1,0.7-4.2,1.2-6.3C57.7,21.7,58,21,58.3,20.2C58.3,20.2,58.3,20.2,58.3,20.2
		"/>
	<path style="clip-path:url(#SVGID_00000016771031781502496860000008751452254469939592_);fill:#00305B;" d="M65.2,63.3
		c0-0.3,0-0.5-0.1-0.7c-0.1-1.4-0.2-2.7-0.2-4.1c0-1.6-0.1-3.2,0-4.7c0.1-1.8,0.2-3.6,0.4-5.3c0.3-2.5,0.6-5.1,1-7.6
		c0.3-2,0.6-4.1,0.9-6.1c0-0.1,0.1-0.3,0.1-0.4c0.2-0.9,0.8-1.3,1.7-1.4c0.6-0.1,1.2-0.1,1.7-0.1c1.8-0.1,3.6-0.1,5.4-0.2
		c2.7-0.1,5.5-0.2,8.2,0c1,0.1,1.9,0.2,2.8,0.3c0.4,0,0.9,0.1,1.3,0.2c0.6,0.1,1,0.4,1.2,1c0.2,0.5,0.3,1.1,0.4,1.7
		c0.3,1.6,0.6,3.2,0.8,4.8c0.2,1.6,0.5,3.3,0.7,4.9c0.2,1.8,0.4,3.6,0.5,5.5c0.1,2.1,0.2,4.2,0.1,6.3c-0.1,1.1-0.2,2.2-0.4,3.3
		c-0.3,1.7-1.3,3.2-2.5,4.4c-1.2,1.3-2.6,2.4-4,3.5c-1.3,1-2.6,2.1-3.8,3.2c-1.5,1.4-2.7,3.1-3.6,5c-0.1,0.3-0.3,0.5-0.6,0.7
		c-0.3,0.2-0.5,0.5-0.7,0.8c-0.4,0.6-0.9,1-1.6,1.2c-1.2,0.2-2.2,0-3-0.9c-0.7-0.7-1.4-1.5-2-2.3c-0.5-0.6-1-1.3-1.6-1.8
		c-1.1-1.1-2.2-2.2-3.4-3.3c-1.3-1.2-2.5-2.3-3.7-3.6c-1.3-1.4-2.3-3-3.3-4.6c-0.6-1-1-2.1-1.2-3.2c-0.1-0.6-0.1-1.1-0.2-1.7
		c-0.1-1-0.1-2-0.1-3c0-0.9,0-1.8,0.1-2.7c0.1-1.6,0.3-3.2,0.5-4.8c0.2-1.5,0.4-3,0.7-4.5c0.4-2.2,0.8-4.4,1.2-6.6
		c0.2-0.9,0.5-1.8,0.7-2.7c0-0.2,0.2-0.3,0.1-0.5c0,0,0-0.2,0.1-0.2c0.1-0.1,0.2-0.2,0.4-0.3c0.6-0.3,1.3-0.4,2-0.3
		c0.9,0.2,1.5,0.9,1.7,1.9c0.1,0.9,0.1,1.7,0,2.6c-0.1,1.4-0.3,2.7-0.4,4.1c-0.2,1.6-0.3,3.3-0.5,4.9c-0.2,2.2-0.5,4.5-0.7,6.7
		c-0.1,0.9,0,1.8,0.1,2.7c0.2,1.3,0.4,2.5,0.6,3.8c0.3,1.6,0.9,3,2,4.3C65,63,65.1,63.1,65.2,63.3"/>
</g>
</svg>
