<?xml version="1.0" encoding="utf-8"?>
<!-- Generator: Adobe Illustrator 27.7.0, SVG Export Plug-In . SVG Version: 6.00 Build 0)  -->
<svg version="1.1" id="Ebene_1" xmlns="http://www.w3.org/2000/svg" xmlns:xlink="http://www.w3.org/1999/xlink" x="0px" y="0px"
	 viewBox="0 0 150 150" style="enable-background:new 0 0 150 150;" xml:space="preserve">
<style type="text/css">
	.st0{clip-path:url(#SVGID_00000044137842551544048160000006848507554753113261_);fill:#00305B;}
</style>
<g>
	<defs>
		<rect id="SVGID_1_" x="39.5" y="43" width="82.5" height="69.9"/>
	</defs>
	<clipPath id="SVGID_00000114051319578511975210000002983939257437885094_">
		<use xlink:href="#SVGID_1_"  style="overflow:visible;"/>
	</clipPath>
	<path style="clip-path:url(#SVGID_00000114051319578511975210000002983939257437885094_);fill:#00305B;" d="M44.7,61.6
		c3.2,4,4.3,8.3,5,12.6c0.7,3.8,1.1,7.6,1.7,11.4c0.2,1.1-0.1,2.4,1.1,3.6c0.1-0.7,0.2-1.2,0.3-1.6c0.1-1.6,0.1-3.2,0.2-4.8
		c0.4-6.9,1.1-13.8,4.2-20.2c0.1-0.2-0.1-0.5-0.2-1H44.7z M41.9,58.1c0.4,0.3,0.8,0.7,1.2,0.8c1.8,0.4,3.7,0.8,5.5,0.9
		c8.3,0.3,16.5,0.7,24.8,0.8c6.8,0.1,13.6-0.3,20.4-0.5c0.9,0,1.9,0,2.8-0.2c1.1-0.2,1.5-1,1-2.3c-0.5-0.1-1.2-0.2-1.8-0.3
		c-6.4-0.1-12.8-0.2-19.2-0.3c-10.7-0.2-21.4,0.9-32-0.4C43.5,56.6,42.5,56.8,41.9,58.1 M97.2,66.3c1.4-0.4,2.6-0.8,3.7-1
		c1.8-0.3,3.7-0.6,5.5-0.6c3.2,0,5.7,1.4,7.5,3.9c0.8,1.2,1.6,2.5,2.1,3.8c1.8,4.4,2.3,9,1.7,13.7c-0.5,3.9-2,7.5-4.9,10.3
		c-2.4,2.4-5.2,3.7-8.7,3.3c-3.3-0.3-5.4-2.4-5.7-5.7c-0.1-1.3,0-2.7,0-4c0-1.2,0-2.4-0.1-3.6c0-0.3-0.7-0.6-1.1-0.8
		c-0.2,0.3-0.6,0.6-0.6,0.9c0.1,4.7,0.2,9.3,0.4,14c0,0.1,0.1,0.2,0.4,0.6c0.6,0.3,1.4,0.8,2.2,1c5.7,1.4,12.4-1.2,15.9-6
		c1.7-2.3,2.6-4.9,3.3-7.7c1.2-5.2,1.2-10.3-0.2-15.4c-1.8-6.5-6.2-10-12.7-11.1c-2.5-0.4-5-0.2-7.4,0
		C97.6,63.2,96.9,64.4,97.2,66.3 M50.9,54.4c0.9,0.2,1.4,0.3,1.9,0.3c1.6,0,3.2-0.1,4.8-0.1c8.5-0.1,17-0.1,25.5-0.2
		c0.7,0,1.7,0.5,1.9-0.7c-1.4-1.1-2.7-2.2-4.1-3.2c-1.1-0.8-2.2-1.5-3.4-2c-1.7-0.7-3.4-1.4-4.9-2.5c-1.7-1.3-3.6-1.5-5.6-0.5
		c-1,0.5-2.2,1.2-3.3,1.3c-2.4,0.1-4,1.2-5.2,3.1c-0.8,1.3-1.9,2.1-3.6,2.2C53.5,52.2,52.1,52.5,50.9,54.4 M96.9,68.3
		C96.1,71.7,96,79,96.8,83.1c0.4,0.1,0.9,0.3,1.4,0.4c1.7,0.3,2.5,1.4,2.7,3c0.1,0.9,0.1,1.9,0,2.8c0,1.3-0.2,2.7-0.1,4
		c0.2,3,2.1,4.6,5.1,4.1c2-0.3,3.8-1.2,5.3-2.6c1.7-1.7,2.9-3.8,3.6-6.2c1.6-5.9,0.9-11.7-1.7-17.2c-1.7-3.5-4.7-5.1-8.5-4.8
		C102,66.8,99.3,67.1,96.9,68.3 M48.5,54.8c1.3-2.8,3.5-4.2,6.5-4.5c1-0.1,1.6-0.9,2.1-1.7c1.4-2.1,3.3-3.4,5.9-3.7c1-0.1,2-0.6,3-1
		c2.6-1.2,5.2-1,7.7,0.4c1.5,0.8,3.1,1.5,4.6,2.3c1,0.5,1.9,0.9,2.8,1.5c1.9,1.3,3.7,2.5,5.5,3.9c0.9,0.7,1.7,1.7,2.3,2.4
		c2.6,0.5,5,1,7.4,1.4c2,0.3,3.4,1.4,4,3.4c0.1,0.2,0.3,0.4,0.6,0.7c1.2,0,2.6-0.1,3.9,0c9.8,1,14.4,6.2,16.3,13.5
		c1.7,6.8,1.2,13.5-1.4,20c-2.7,6.7-7.6,10.4-14.8,11.2c-2.6,0.3-5-0.2-7.7-1.2c-0.4,1.2-0.7,2.1-1,3.1c-0.9,3.1-2.8,5.1-6,5.7
		c-1.6,0.3-3.2,0.6-4.8,0.6c-4,0.1-8,0.2-12,0.1c-5.6-0.1-11.2-0.4-16.8-0.7c-2.1-0.1-4.2-0.6-6.2-1.3c-3-1-4.9-3.2-5.3-6.4
		c-0.3-2.4-0.6-4.8-0.7-7.2c-0.1-4.8-0.1-9.6-0.2-14.4c-0.1-5.9-0.6-11.7-1.7-17.5c-0.4-2.2-0.6-4.5-2.5-6.1
		c-0.8-0.6-0.5-1.7,0.1-2.5c0.9-1.1,2.1-1.6,3.5-1.7C45.2,54.9,46.8,54.9,48.5,54.8"/>
</g>
</svg>
