<?xml version="1.0" encoding="utf-8"?>
<!-- Generator: Adobe Illustrator 27.7.0, SVG Export Plug-In . SVG Version: 6.00 Build 0)  -->
<svg version="1.1" id="Ebene_1" xmlns="http://www.w3.org/2000/svg" xmlns:xlink="http://www.w3.org/1999/xlink" x="0px" y="0px"
	 viewBox="0 0 150 150" style="enable-background:new 0 0 150 150;" xml:space="preserve">
<style type="text/css">
	.st0{clip-path:url(#SVGID_00000173854934284937253240000008538389769552614544_);fill:#00305B;}
</style>
<g>
	<defs>
		<rect id="SVGID_1_" x="49.8" y="13.9" width="50.1" height="127.4"/>
	</defs>
	<clipPath id="SVGID_00000134940989832518576150000004977316486736119204_">
		<use xlink:href="#SVGID_1_"  style="overflow:visible;"/>
	</clipPath>
	<path style="clip-path:url(#SVGID_00000134940989832518576150000004977316486736119204_);fill:#00305B;" d="M85.3,42.2
		c0,0.2-0.1,0.3-0.1,0.5c1.1,0.1,2.1,0.2,3.2,0.3c0-0.1,0-0.2,0-0.2C87.4,42.5,86.4,42.4,85.3,42.2 M86.1,44.3
		c-0.1-0.1-0.2-0.1-0.3-0.2c-0.2,0.2-0.5,0.3-0.5,0.5c-0.1,1.1,0,2.2,0,3.3c0,0,0.1,0,0.1,0C85.6,46.6,85.8,45.5,86.1,44.3
		 M82.6,57.7c-0.1,0-0.1,0-0.2,0c-0.6,1.1-1.1,2.3-1.8,3.5c0.7-0.1,1.3-0.1,1.8-0.2C82.5,59.8,82.5,58.8,82.6,57.7 M77.1,46.3
		c-1.4,0.8-2.6,1.7-3,3.4c0.5,0,1.1-0.1,1.3-0.4C76.1,48.4,76.6,47.3,77.1,46.3 M90.3,54.7h-2.2c0.7,1.3,1.4,2.5,2,3.7
		c0.1,0,0.1,0,0.2-0.1V54.7z M93,62.4c2.7-1.3,4.3-5,3.7-8.6C96.4,57.2,95.4,60.1,93,62.4 M80.4,52.7c0-0.1-0.1-0.1-0.1-0.2
		c-1.4,0-2.7,0-4.1,0c-0.2,0-0.5,0.3-0.5,0.5c0,0.8,0.1,1.5,0.1,2.5C77.4,54.4,78.9,53.5,80.4,52.7 M93.9,48.2
		c-0.9,1-1.7,1.8-2.3,2.5c0.6,1.6,1.8,1.8,3.5,1.4C94.7,50.8,94.4,49.6,93.9,48.2 M93,60.1c1.4-1.6,1.9-3.5,2.1-5.7
		c-0.9,0.1-1.5,0.1-2.3,0.2C92.8,56.5,92.9,58.3,93,60.1 M81.1,49.6c-0.8-1.5-1.6-2.6-3.1-3.3c-0.6,1.1-1.2,2.2-1.7,3.3H81.1z
		 M74.6,52.7c-1.2-0.2-1.3-0.2-1.4,0.9c-0.1,3.1,1.4,5.3,3.4,7.4c0.2,0.2,0.6,0.3,0.8,0.4C75.4,58.7,74.3,55.9,74.6,52.7 M89.5,63
		c0.1,0,0.3,0,0.4-0.1c0-0.3,0.1-0.6,0-0.8c-0.7-1.5-1.4-2.9-2.1-4.3c-0.2-0.5-0.5-0.9-0.9-1.6c-0.8,1.7-1.4,3.1-2.1,4.6
		C86.6,61.1,88.7,60.6,89.5,63 M82.5,53.6c-2,1.2-4,2.4-6.1,3.7c0.7,1,1.4,2,2.2,3.1c0.3-0.5,0.4-0.7,0.5-1c0.8-1.3,1.7-2.5,2.5-3.8
		C81.9,55,82.7,54.6,82.5,53.6 M61.3,89.5v-10c-0.9,0-1.6,0.1-2.3,0.1c0,3.1,0,6.1,0,9.1c0,0.2,0.3,0.5,0.5,0.6
		C60.1,89.4,60.7,89.4,61.3,89.5 M83.1,32.4c-0.1,0-0.3,0-0.4,0c-0.6,1.7-1.2,3.3-1.6,5.1c-0.2,0.8-0.2,1.8,0,2.7c0.5,2,1.1,4,1.7,6
		c0.1,0.3,0.2,0.5,0.4,1c0.2-0.3,0.5-0.5,0.5-0.6C83.5,41.7,83.3,37,83.1,32.4 M87.3,49.9c1-0.1,2,0.2,2.5-0.2
		c1.8-1.7,3.4-3.6,5.1-5.4c0.3-0.4,0.5-1.1,0.5-1.7c0-0.9-0.2-1.8-0.4-2.9c-0.3,0.4-0.6,0.8-1,1.2c-0.9,0.9-1.7,1.9-2.7,2.8
		C89.4,45.3,88.4,47.4,87.3,49.9 M81.1,46.5c0-0.1,0.1-0.2,0.1-0.2c-1.1-3.8-3.3-6.6-7.3-7.6c-0.2,0-0.4-0.1-0.5,0
		c-0.8,0.4-1.5,0.8-2.3,1.2c0.5,0.4,1.1,0.7,1.5,1.2c0.6,0.7,1.3,1.3,1.6,2.1c0.4,1,1,1.4,2.1,1.3c1.5-0.2,2.9,0.2,4,1.2
		C80.6,46,80.8,46.2,81.1,46.5 M61.4,92.3c-0.6,0.2-1.1,0.3-1.6,0.4C59.2,92.8,59,93,59,93.6c-0.1,9.4-0.2,18.8-0.3,28.3
		c0,0.1,0,0.2,0.1,0.3c0.1,0,0.2,0,0.3,0.1c0.3-0.8,0.7-1.6,0.8-2.4c0.3-3.1,0.7-6.2,0.8-9.4c0.3-5.1,0.4-10.3,0.6-15.4
		C61.4,94.2,61.4,93.3,61.4,92.3 M89.7,40.5c0.3-1,0.5-1.9,0.7-2.8c1.6-5.9,3.1-11.8,4.7-17.6c0.3-1,0.4-2.1,0.5-3.2
		c0.1-0.7-0.3-1.1-1-1.2c-1.1-0.2-1.3,0-1.6,1.4c-1.7,7.7-3.4,15.4-5.2,23.2C88.3,40.4,89,40.5,89.7,40.5 M90.3,66
		c-0.1,0-0.3,0-0.4,0c0,0.3,0,0.6,0,0.9c-0.1,1.3-0.1,2.6-0.2,3.9c-0.7,9.8-1.5,19.6-2,29.4c-0.5,9.8-0.7,19.5-1,29.3
		c0,0.7,0,1.5-0.2,2.2c-0.3,1.8-1.4,2.5-3.1,2.1c-7.2-1.7-14.5-2-21.9-0.6c-1.7,0.3-3.4,0.5-5.1,0.6c-1.6,0.1-2.5-0.8-2.7-2.2
		c-0.2-1.4-0.4-2.7-0.4-4.1c0.1-10.7,0.2-21.5,0.3-32.2c0.1-7.9,0.2-15.7,0.2-23.6c0-3.2-0.2-6.3-0.2-9.5c0-0.5,0.1-1,0.3-1.4
		c0.3-0.7,0.9-0.7,1.1,0c0.5,1.2,1.1,2.5,1.3,3.8c0.4,2.5,0.6,5,1,7.5c0.3,1.9,0.3,1.9,2.2,2c0.3,0,0.6,0,0.8,0.1
		c0.9,0.1,1.3-0.1,1.3-1.1c0-2.6,0.1-5.2,0.2-7.8c0-1.2,0.2-2.4,0.3-3.6h12.2c-2.5-2.5-3.6-5.4-3.5-8.9c-1.6,0-3.1,0-4.7,0
		c-4-0.1-8-0.3-12-0.5c-0.9,0-1.4,0.3-1.5,1.2c-0.2,1.9-0.6,3.8-0.6,5.7c0.1,10.5,0.4,21,0.4,31.5c0.1,11.1-0.2,22.2-0.1,33.4
		c0,3.5,0.5,7,0.7,10.5c0.1,0.8,0.4,1.1,1.2,1.3c4.3,0.8,8.6,1.2,12.9,1.3c3.3,0.1,6.6,0.1,9.9,0.4c3.5,0.3,6.9,0,10.2-1.3
		c0.9-0.4,1.3-0.8,1.3-1.8c0-4.4,0.1-8.8,0.2-13.2c0.1-5.7,0.3-11.3,0.4-17c0.4-12.3,0.8-24.7,1.1-37C90.3,66.6,90.3,66.3,90.3,66
		 M73.5,45.5c-0.3-0.6-0.6-1.4-1-2c-0.3-0.4-0.6-0.8-1-1.2c-0.6-0.6-1.3-1-1.8-1.7c-1-1.2-0.5-2.4,0.9-2.7c0.6-0.1,1.1-0.3,1.5-0.9
		c0.2-0.3,1.1-0.5,1.5-0.4c1.5,0.5,2.9,1.1,4.4,1.7c0.2,0.1,0.4,0.2,0.6,0.3c0.2-1.5,0.5-3,0.6-4.4c0.1-2.1,1-3.7,2.5-5.1
		c1.3-1.2,2.6-0.9,2.8,0.8c0.4,3,0.5,6.1,0.8,9.1c0,0.3,0,0.7,0,1c0.1,0,0.2,0,0.3,0.1c0.1-0.3,0.3-0.6,0.3-0.9
		c1.6-6.9,3.1-13.9,4.7-20.8c0.3-1.2,0.8-2.3,1.3-3.4c0.4-0.9,1.2-1.2,2.2-1.1c0.6,0.1,1.2,0.2,1.8,0.3c1.7,0.4,2.1,1,1.7,2.7
		c-2,7.9-4.1,15.7-6.1,23.6c0,0.1,0,0.3-0.1,0.7c0.4-0.4,0.7-0.6,0.9-0.8c0.8-0.7,1.5-1.6,2.4-2.2c0.4-0.3,1.1-0.4,1.5-0.1
		c0.3,0.2,0.5,0.9,0.5,1.4c-0.2,1-0.1,2,0.2,2.9c0.2,0.5-0.1,1.2-0.1,1.7c0,0.4,0,0.9,0.2,1.1c2.4,2.3,3.1,5.1,2.9,8.3
		c-0.2,2.5-0.8,4.9-2,7.1c-1,1.7-2.4,3.1-4.1,4c-0.5,0.3-0.6,0.6-0.7,1.1c-0.2,10.5-0.3,21.1-0.7,31.6c-0.5,10.6-0.8,21.2-0.7,31.9
		c0,1.9-0.2,3.8-0.2,5.7c-0.1,2.1-1.1,3.6-3.1,4.1c-2.5,0.7-5.1,1.4-7.7,1.7c-7.8,0.9-15.6,0.7-23.3-0.9c-1.3-0.3-2.6-0.7-3.9-1.1
		c-1.8-0.7-2.7-2-2.9-4c-0.7-6.4-0.7-12.8-0.7-19.2C49.9,97.8,49.9,80,50,62.3c0-3,0-6.1-0.1-9.1c-0.1-1.9,1.4-3.3,3-3.4
		c2.4-0.1,4.9-0.1,7.3-0.1c3.4,0,6.8,0.1,10.2,0.2c0.6,0,1-0.2,1.3-0.8C72.2,47.8,72.9,46.7,73.5,45.5"/>
	<path style="clip-path:url(#SVGID_00000134940989832518576150000004977316486736119204_);fill:#00305B;" d="M79.9,136.9
		c-2.2-0.3-4.2-0.7-6.3-0.8c-3-0.1-6,0-9,0.1c-0.9,0-1.9,0.1-2.8,0.1c-0.2,0-0.5,0.1-0.7-0.1c-0.4-0.2-0.8-0.6-1.1-0.9
		c0.3-0.3,0.5-0.8,0.9-0.9c1.5-0.5,3.1-1,4.6-1.2c4.6-0.6,9.3-0.4,13.9,0.6c0.6,0.1,1.3,0.3,1.8,0.6c0.4,0.3,0.9,0.9,0.8,1.3
		c-0.1,0.4-0.7,0.7-1.2,1C80.4,136.9,80.1,136.9,79.9,136.9"/>
</g>
</svg>
