<?xml version="1.0" encoding="utf-8"?>
<!-- Generator: Adobe Illustrator 27.7.0, SVG Export Plug-In . SVG Version: 6.00 Build 0)  -->
<svg version="1.1" id="Ebene_1" xmlns="http://www.w3.org/2000/svg" xmlns:xlink="http://www.w3.org/1999/xlink" x="0px" y="0px"
	 viewBox="0 0 329 93.5" style="enable-background:new 0 0 329 93.5;" xml:space="preserve">
<style type="text/css">
	.st0{fill:none;}
	.st1{enable-background:new    ;}
	.st2{fill:#EB5B2A;}
</style>
<g>
	<rect x="-87.6" y="8.9" class="st0" width="504" height="82.6"/>
</g>
<g class="st1">
	<path class="st2" d="M32.2,8.9h29.4c0.2,0,0.4,0.1,0.4,0.4v8.3c0,0.3-0.1,0.4-0.4,0.4H46.1v3h10.4c0.3,0,0.4,0.1,0.4,0.4v7.8
		c0,0.2-0.1,0.4-0.4,0.4H46.1v8.8c0,0.3-0.1,0.4-0.4,0.4H32.2c-0.3,0-0.4-0.1-0.4-0.4V9.4C31.8,9.1,31.9,8.9,32.2,8.9z"/>
	<path class="st2" d="M72.6,23.5c-2,0-3.8-0.7-5.2-2.2c-1.4-1.4-2.2-3.2-2.2-5.2c0-2,0.7-3.7,2.2-5.1c1.4-1.4,3.2-2.1,5.2-2.1
		c2.1,0,3.8,0.7,5.2,2.1s2.2,3.1,2.2,5.1c0,2-0.7,3.8-2.2,5.2S74.6,23.5,72.6,23.5z M65.8,24.3h13.5c0.3,0,0.4,0.1,0.4,0.4v13.7
		c0,0.3-0.1,0.4-0.4,0.4H65.8c-0.3,0-0.4-0.1-0.4-0.4V24.7C65.4,24.5,65.5,24.3,65.8,24.3z"/>
	<path class="st2" d="M97.9,23.8v14.7c0,0.2-0.1,0.4-0.4,0.4H84.2c-0.2,0-0.4-0.1-0.4-0.4V9.4c0-0.3,0.1-0.4,0.4-0.4h13.4
		c0.3,0,0.4,0.1,0.5,0.4l1.8,14.4c0,0,0.1,0,0.1,0V9.4c0-0.3,0.1-0.4,0.4-0.4h13.3c0.3,0,0.4,0.1,0.4,0.4v29.1
		c0,0.2-0.1,0.4-0.4,0.4h-13.5c-0.2-0.1-0.3-0.2-0.3-0.4L97.9,23.8C98,23.8,97.9,23.8,97.9,23.8z"/>
	<path class="st2" d="M118.7,8.9h13.7c4.1,0,7.6,1.5,10.5,4.4c2.9,2.9,4.4,6.5,4.4,10.6c0,4.1-1.5,7.6-4.4,10.5
		c-2.9,2.9-6.4,4.4-10.6,4.4h-13.6c-0.3,0-0.4-0.1-0.4-0.4V9.4C118.3,9.1,118.5,8.9,118.7,8.9z M131.5,25.3h0.8c0.4,0,0.8-0.1,1-0.4
		c0.3-0.3,0.4-0.6,0.4-1s-0.1-0.8-0.4-1s-0.6-0.4-1-0.4h-0.8V25.3z"/>
	<path class="st2" d="M178.7,24.5c0.2,0.2,0.5,0.3,0.8,0.3c0.3,0,0.6-0.1,0.8-0.3s0.3-0.5,0.3-0.8V9.4c0-0.3,0.1-0.4,0.4-0.4h13.4
		c0.3,0,0.4,0.1,0.4,0.4V24c0,4.1-1.5,7.6-4.5,10.5s-6.6,4.3-10.7,4.3s-7.8-1.4-10.7-4.3c-3-2.9-4.5-6.4-4.5-10.5V9.4
		c0-0.3,0.1-0.4,0.4-0.4H178c0.2,0,0.4,0.1,0.4,0.4v14.4C178.4,24.1,178.5,24.3,178.7,24.5z"/>
	<path class="st2" d="M213.1,29.2c0,0.7,0.4,1.1,1.2,1.1c0.3,0,0.6-0.1,0.8-0.3s0.3-0.4,0.3-0.7c0-0.8-0.5-1.2-1.6-1.2
		c-4.8,0-8.5-0.8-11.3-2.4c-2.8-1.6-4.2-3.9-4.2-6.9c0-2.8,1.6-5.2,4.7-7.1s6.8-2.8,10.9-2.8c2.7,0,5.2,0.3,7.5,1
		c2.3,0.7,4.1,1.8,5.5,3.2s2.1,3.2,2.1,5.1c0,0.3-0.2,0.5-0.5,0.5h-13.2c-0.4,0-0.6-0.2-0.6-0.6c0-0.3-0.1-0.5-0.3-0.7
		s-0.5-0.3-0.8-0.3s-0.6,0.1-0.8,0.3c-0.2,0.2-0.3,0.4-0.3,0.7c0,0.7,0.4,1,1.1,1c5.1,0,9,0.9,11.7,2.6s4,4.2,4,7.4c0,3-1.3,5.3-4,7
		s-6.6,2.5-11.6,2.5c-2.8,0-5.3-0.4-7.5-1.1c-2.3-0.7-4.1-1.8-5.5-3.3c-1.4-1.5-2.1-3.2-2.1-5.3c0-0.3,0.2-0.5,0.5-0.5h13.6
		C212.9,28.8,213.1,28.9,213.1,29.2z"/>
	<path class="st2" d="M253.3,23.5c-2,0-3.8-0.7-5.2-2.2s-2.2-3.2-2.2-5.2c0-2,0.7-3.7,2.2-5.1c1.4-1.4,3.2-2.1,5.2-2.1
		s3.8,0.7,5.2,2.1s2.2,3.1,2.2,5.1c0,2-0.7,3.8-2.2,5.2S255.4,23.5,253.3,23.5z M246.6,24.3h13.5c0.3,0,0.4,0.1,0.4,0.4v13.7
		c0,0.3-0.1,0.4-0.4,0.4h-13.5c-0.3,0-0.4-0.1-0.4-0.4V24.7C246.2,24.5,246.3,24.3,246.6,24.3z"/>
	<path class="st2" d="M278.7,23.8v14.7c0,0.2-0.1,0.4-0.4,0.4h-13.3c-0.2,0-0.4-0.1-0.4-0.4V9.4c0-0.3,0.1-0.4,0.4-0.4h13.4
		c0.3,0,0.4,0.1,0.5,0.4l1.8,14.4c0,0,0.1,0,0.1,0V9.4c0-0.3,0.1-0.4,0.4-0.4h13.3c0.3,0,0.4,0.1,0.4,0.4v29.1
		c0,0.2-0.1,0.4-0.4,0.4H281c-0.2-0.1-0.3-0.2-0.3-0.4L278.7,23.8C278.7,23.8,278.7,23.8,278.7,23.8z"/>
</g>
<g class="st1">
	<path class="st2" d="M39.8,82.8H27.8c-0.2,0-0.3-0.1-0.3-0.2L24.2,72c-0.1-0.3-0.2-0.4-0.5-0.4c-0.3,0-0.4,0.2-0.4,0.5v10.4
		c0,0.2-0.1,0.4-0.4,0.4H9.7c-0.2,0-0.4-0.1-0.4-0.4V53.4c0-0.3,0.1-0.4,0.4-0.4h21.5c0.2,0,0.3,0.1,0.4,0.4l1.9,6.6
		c0.1,0.2,0.2,0.3,0.5,0.3c0.2,0,0.4-0.1,0.5-0.3l1.8-6.6c0.1-0.3,0.2-0.4,0.4-0.4h21.5c0.2,0,0.4,0.1,0.4,0.4v29.1
		c0,0.2-0.1,0.4-0.4,0.4H44.7c-0.2,0-0.4-0.1-0.4-0.4V72.1c0-0.3-0.1-0.5-0.4-0.5c-0.2,0-0.4,0.1-0.5,0.4l-3.3,10.6
		C40.1,82.8,40,82.8,39.8,82.8z"/>
	<path class="st2" d="M91.6,69.4h2.3c0.3,0,0.5,0.2,0.5,0.5v12.6c0,0.3-0.2,0.5-0.5,0.5h-18c-3.9,0-7.3-1.5-10.1-4.5
		c-2.8-3-4.2-6.5-4.2-10.5c0-4.2,1.5-7.7,4.4-10.6c2.9-2.9,6.5-4.3,10.7-4.3c4.1,0,7.7,1.4,10.6,4.3c2.9,2.9,4.4,6.4,4.4,10.6
		C91.6,68.2,91.6,68.8,91.6,69.4z M76.6,66.4c-0.4,0-0.8,0.1-1.1,0.4s-0.4,0.6-0.4,1c0,0.4,0.1,0.8,0.4,1c0.3,0.3,0.6,0.4,1.1,0.4
		c0.4,0,0.7-0.1,1-0.4c0.3-0.3,0.4-0.6,0.4-1c0-0.4-0.1-0.7-0.4-1S77,66.4,76.6,66.4z"/>
	<path class="st2" d="M137.1,52.9h13.5c0.4,0,0.5,0.2,0.4,0.5l-10,29.1c-0.1,0.2-0.2,0.2-0.4,0.2h-13c-0.2,0-0.3-0.1-0.4-0.2
		l-2.7-7.8c-0.1-0.2-0.1-0.3-0.2-0.3s-0.2,0.1-0.2,0.3l-2.7,7.8c-0.1,0.2-0.2,0.2-0.4,0.2h-13c-0.2,0-0.3-0.1-0.4-0.2L97.4,53.5
		c-0.1-0.4,0-0.5,0.4-0.5h13.5c0.2,0,0.3,0.1,0.4,0.2l2.5,7.6c0.1,0.2,0.2,0.2,0.3,0l2.5-7.6c0.1-0.2,0.2-0.2,0.4-0.2H131
		c0.2,0,0.3,0.1,0.4,0.2l2.4,7.6c0,0.1,0.1,0.1,0.2,0.1s0.1,0,0.2-0.1l2.5-7.6C136.7,53,136.9,52.9,137.1,52.9z"/>
	<path class="st2" d="M188.4,63.6v9.1c0,0.3-0.2,0.5-0.6,0.5H168c-0.4,0-0.6-0.2-0.6-0.5v-9.1c0-0.3,0.2-0.5,0.6-0.5h19.8
		C188.2,63.1,188.4,63.2,188.4,63.6z"/>
	<path class="st2" d="M205.5,52.9h13.1c0.3,0,0.4,0.1,0.4,0.4v29.1c0,0.3-0.1,0.4-0.4,0.4h-13.1c-0.3,0-0.4-0.1-0.4-0.4V53.4
		C205.1,53.1,205.2,52.9,205.5,52.9z"/>
	<path class="st2" d="M226.6,57.3c2.9-2.9,6.4-4.4,10.6-4.4c4.1,0,7.6,1.5,10.6,4.4c2.9,2.9,4.4,6.5,4.4,10.6
		c0,4.1-1.5,7.6-4.4,10.5c-2.9,2.9-6.4,4.4-10.6,4.4c-4.1,0-7.7-1.5-10.6-4.4c-2.9-2.9-4.4-6.4-4.4-10.5
		C222.2,63.8,223.7,60.3,226.6,57.3z M236.1,68.9c0.3,0.3,0.6,0.4,1,0.4s0.8-0.1,1-0.4c0.3-0.3,0.4-0.6,0.4-1c0-0.4-0.1-0.8-0.4-1
		c-0.3-0.3-0.6-0.4-1-0.4s-0.8,0.1-1,0.4s-0.4,0.6-0.4,1C235.7,68.3,235.8,68.6,236.1,68.9z"/>
	<path class="st2" d="M255.5,52.9h28.7c0.2,0,0.3,0.1,0.3,0.2c0.1,0.2,0.1,0.3,0,0.6l-13.2,28.7c-0.1,0.3-0.4,0.4-0.7,0.4h-12.8
		c-0.4,0-0.5-0.2-0.4-0.5l7.5-16.4h-9.5c-0.2,0-0.4-0.1-0.4-0.4V53.4C255.1,53.1,255.2,52.9,255.5,52.9z"/>
	<path class="st2" d="M289.5,57.3c2.9-2.9,6.4-4.4,10.6-4.4c4.1,0,7.6,1.5,10.6,4.4c2.9,2.9,4.4,6.5,4.4,10.6
		c0,4.1-1.5,7.6-4.4,10.5c-2.9,2.9-6.4,4.4-10.6,4.4c-4.1,0-7.7-1.5-10.6-4.4c-2.9-2.9-4.4-6.4-4.4-10.5
		C285.2,63.8,286.6,60.3,289.5,57.3z M299.1,68.9c0.3,0.3,0.6,0.4,1,0.4s0.8-0.1,1-0.4c0.3-0.3,0.4-0.6,0.4-1c0-0.4-0.1-0.8-0.4-1
		c-0.3-0.3-0.6-0.4-1-0.4s-0.8,0.1-1,0.4s-0.4,0.6-0.4,1C298.7,68.3,298.8,68.6,299.1,68.9z"/>
</g>
</svg>
