<?xml version="1.0" encoding="utf-8"?>
<!-- Generator: Adobe Illustrator 27.7.0, SVG Export Plug-In . SVG Version: 6.00 Build 0)  -->
<svg version="1.1" id="Ebene_1" xmlns="http://www.w3.org/2000/svg" xmlns:xlink="http://www.w3.org/1999/xlink" x="0px" y="0px"
	 viewBox="0 0 869 114" style="enable-background:new 0 0 869 114;" xml:space="preserve">
<style type="text/css">
	.st0{clip-path:url(#SVGID_00000157277413110090969890000008080268351462576028_);fill:#00305B;}
	.st1{clip-path:url(#SVGID_00000157277413110090969890000008080268351462576028_);fill:#FAFAFA;}

		.st2{clip-path:url(#SVGID_00000157277413110090969890000008080268351462576028_);fill:none;stroke:#00305B;stroke-width:1.664;stroke-miterlimit:8.493;}
</style>
<g>
	<defs>
		<rect id="SVGID_1_" x="1.7" y="1.7" width="865.4" height="110.7"/>
	</defs>
	<clipPath id="SVGID_00000087372258439672528090000008019449318274291126_">
		<use xlink:href="#SVGID_1_"  style="overflow:visible;"/>
	</clipPath>
	<path style="clip-path:url(#SVGID_00000087372258439672528090000008019449318274291126_);fill:#00305B;" d="M803.7,96.8l4.4-13.7
		l4.4,13.7H803.7z M830.9,8.2h-45.4c-0.7,0-1.1,0.3-1.4,0.9l-35,101.4c-0.5,1.2,0,1.9,1.3,1.9h46.8c0.9,0,1.4-0.5,1.7-1.4l2.7-8.1
		h12.9l2.7,8.1c0.3,1,0.9,1.4,1.7,1.4h46.7c1.3,0,1.8-0.6,1.3-1.9L832.2,9.1C832.1,8.5,831.7,8.2,830.9,8.2 M675.6,38.6h2.4
		c1.3,0,2.4,0.4,3.4,1.3c0.9,0.9,1.4,1.9,1.4,3.1c0,1.2-0.5,2.3-1.4,3.1c-0.9,0.9-2,1.3-3.4,1.3h-2.4V38.6z M724.2,62.3
		c3.9-5.9,5.8-12.3,5.8-19.2c0-10.3-3.4-18.7-10.1-25.1c-6.7-6.5-15.3-9.7-25.6-9.7h-62.7c-1,0-1.4,0.5-1.4,1.4v101.2
		c0,1,0.5,1.4,1.4,1.4h42.1c1,0,1.4-0.5,1.4-1.4v-11l8.4,11.9c0.3,0.4,0.7,0.6,1.1,0.6H732c0.6,0,1-0.2,1.3-0.7c0.3-0.5,0.3-1,0-1.4
		l-24.3-35C715.3,72.4,720.4,68.1,724.2,62.3 M557.5,55.1h2.9c1.4,0,2.6,0.5,3.6,1.5c1,1,1.5,2.2,1.5,3.6c0,1.4-0.5,2.6-1.5,3.6
		c-1,1-2.2,1.4-3.6,1.4h-2.9V55.1z M511.5,9.7V111c0,0.9,0.5,1.3,1.4,1.3h47.4c14.4,0,26.6-5.1,36.8-15.3
		c10.1-10.2,15.2-22.4,15.2-36.7c0-14.4-5.1-26.7-15.2-36.8C587,13.3,574.8,8.2,560.5,8.2h-47.6C512,8.2,511.5,8.7,511.5,9.7
		 M435.5,59.9l6.6,51.1c0.2,0.7,0.6,1.1,1.1,1.3h46.8c1,0,1.4-0.4,1.4-1.3V9.7c0-1-0.5-1.4-1.4-1.4h-46.4c-0.9,0-1.3,0.5-1.3,1.4
		v49.8h-0.3l-6.4-50c-0.1-0.9-0.6-1.3-1.6-1.3h-46.7c-0.9,0-1.3,0.5-1.3,1.4V111c0,0.9,0.4,1.3,1.3,1.3h46.4c1,0,1.4-0.4,1.4-1.3
		V59.9H435.5z M304.9,96.8l4.4-13.7l4.4,13.7H304.9z M332.2,8.2h-45.4c-0.7,0-1.1,0.3-1.4,0.9l-35,101.4c-0.5,1.2,0,1.9,1.3,1.9
		h46.8c0.9,0,1.4-0.5,1.7-1.4l2.7-8.1h12.9l2.7,8.1c0.3,1,0.9,1.4,1.7,1.4h46.7c1.3,0,1.8-0.6,1.3-1.9L333.4,9.1
		C333.4,8.5,332.9,8.2,332.2,8.2 M132.7,9.7V111c0,0.9,0.5,1.3,1.4,1.3h99.1c0.9,0,1.4-0.5,1.4-1.4V82.5c0-0.9-0.5-1.3-1.4-1.3
		h-52.5v-5.1h33.8c0.9,0,1.3-0.5,1.3-1.4V46.1c0-1-0.4-1.4-1.3-1.4h-33.8v-5.1h52.5c0.9,0,1.4-0.5,1.4-1.4V9.7c0-1-0.5-1.4-1.4-1.4
		h-99.1C133.2,8.2,132.7,8.7,132.7,9.7 M12,112.3h101.4c0.9,0,1.4-0.4,1.4-1.3V81.9c0-0.9-0.5-1.3-1.4-1.3H59.7V9.5
		c0-0.9-0.5-1.3-1.4-1.3H12c-0.9,0-1.3,0.4-1.3,1.3V111C10.7,111.9,11.2,112.3,12,112.3"/>
	<path style="clip-path:url(#SVGID_00000087372258439672528090000008019449318274291126_);fill:#FAFAFA;" d="M795.5,91l4.4-13.7
		l4.4,13.7H795.5z M822.8,2.5h-45.4c-0.7,0-1.1,0.3-1.4,0.9l-35,101.4c-0.5,1.2,0,1.9,1.3,1.9h46.8c0.9,0,1.4-0.5,1.7-1.4l2.7-8.1
		h12.9l2.7,8.1c0.3,1,0.9,1.4,1.7,1.4h46.7c1.3,0,1.8-0.6,1.3-1.9L824.1,3.4C824,2.8,823.5,2.5,822.8,2.5 M667.4,32.9h2.4
		c1.3,0,2.4,0.4,3.4,1.3c0.9,0.9,1.4,1.9,1.4,3.1c0,1.2-0.5,2.3-1.4,3.1c-0.9,0.9-2,1.3-3.4,1.3h-2.4V32.9z M716,56.5
		c3.9-5.9,5.8-12.3,5.8-19.2c0-10.3-3.4-18.7-10.1-25.1c-6.7-6.5-15.3-9.7-25.6-9.7h-62.7c-1,0-1.4,0.5-1.4,1.4v101.2
		c0,1,0.5,1.4,1.4,1.4h42.1c1,0,1.4-0.5,1.4-1.4v-11l8.4,11.9c0.3,0.4,0.7,0.6,1.1,0.6h47.3c0.6,0,1-0.2,1.3-0.7
		c0.3-0.5,0.3-1,0-1.4l-24.3-35C707.1,66.7,712.2,62.4,716,56.5 M549.3,49.3h2.9c1.4,0,2.6,0.5,3.6,1.5c1,1,1.5,2.2,1.5,3.6
		c0,1.4-0.5,2.6-1.5,3.6c-1,1-2.2,1.4-3.6,1.4h-2.9V49.3z M503.3,3.9v101.4c0,0.9,0.5,1.3,1.4,1.3h47.4c14.4,0,26.6-5.1,36.8-15.3
		c10.1-10.2,15.2-22.4,15.2-36.7c0-14.4-5.1-26.7-15.2-36.8C578.8,7.6,566.6,2.5,552.3,2.5h-47.6C503.8,2.5,503.3,3,503.3,3.9
		 M427.4,54.2l6.6,51.1c0.2,0.7,0.6,1.1,1.1,1.3h46.8c1,0,1.4-0.4,1.4-1.3V3.9c0-1-0.5-1.4-1.4-1.4h-46.4c-0.9,0-1.3,0.5-1.3,1.4
		v49.8H434l-6.4-50c-0.1-0.9-0.6-1.3-1.6-1.3h-46.7c-0.9,0-1.3,0.5-1.3,1.4v101.4c0,0.9,0.4,1.3,1.3,1.3h46.4c1,0,1.4-0.4,1.4-1.3
		V54.2H427.4z M296.7,91l4.4-13.7l4.4,13.7H296.7z M324,2.5h-45.4c-0.7,0-1.1,0.3-1.4,0.9l-35,101.4c-0.5,1.2,0,1.9,1.3,1.9h46.8
		c0.9,0,1.4-0.5,1.7-1.4l2.7-8.1h12.9l2.7,8.1c0.3,1,0.9,1.4,1.7,1.4h46.7c1.3,0,1.8-0.6,1.3-1.9L325.3,3.4
		C325.2,2.8,324.8,2.5,324,2.5 M124.5,3.9v101.4c0,0.9,0.5,1.3,1.4,1.3H225c0.9,0,1.4-0.5,1.4-1.4V76.8c0-0.9-0.5-1.3-1.4-1.3h-52.5
		v-5.1h33.8c0.9,0,1.3-0.5,1.3-1.4V40.3c0-1-0.4-1.4-1.3-1.4h-33.8v-5.1H225c0.9,0,1.4-0.5,1.4-1.4V3.9c0-1-0.5-1.4-1.4-1.4h-99.1
		C125,2.5,124.5,3,124.5,3.9 M3.9,106.6h101.4c0.9,0,1.4-0.4,1.4-1.3V76.2c0-0.9-0.5-1.3-1.4-1.3H51.5V3.8c0-0.9-0.5-1.3-1.4-1.3
		H3.9C3,2.5,2.6,2.9,2.6,3.8v101.5C2.6,106.2,3,106.6,3.9,106.6"/>

		<path style="clip-path:url(#SVGID_00000087372258439672528090000008019449318274291126_);fill:none;stroke:#00305B;stroke-width:1.664;stroke-miterlimit:8.493;" d="
		M795.5,91l4.4-13.7l4.4,13.7H795.5z M822.8,2.5h-45.4c-0.7,0-1.1,0.3-1.4,0.9l-35,101.4c-0.5,1.2,0,1.9,1.3,1.9h46.8
		c0.9,0,1.4-0.5,1.7-1.4l2.7-8.1h12.9l2.7,8.1c0.3,1,0.9,1.4,1.7,1.4h46.7c1.3,0,1.8-0.6,1.3-1.9L824.1,3.4
		C824,2.8,823.5,2.5,822.8,2.5z M667.4,32.9h2.4c1.3,0,2.4,0.4,3.4,1.3c0.9,0.9,1.4,1.9,1.4,3.1c0,1.2-0.5,2.3-1.4,3.1
		c-0.9,0.9-2,1.3-3.4,1.3h-2.4V32.9z M716,56.5c3.9-5.9,5.8-12.3,5.8-19.2c0-10.3-3.4-18.7-10.1-25.1c-6.7-6.5-15.3-9.7-25.6-9.7
		h-62.7c-1,0-1.4,0.5-1.4,1.4v101.2c0,1,0.5,1.4,1.4,1.4h42.1c1,0,1.4-0.5,1.4-1.4v-11l8.4,11.9c0.3,0.4,0.7,0.6,1.1,0.6h47.3
		c0.6,0,1-0.2,1.3-0.7c0.3-0.5,0.3-1,0-1.4l-24.3-35C707.1,66.7,712.2,62.4,716,56.5z M549.3,49.3h2.9c1.4,0,2.6,0.5,3.6,1.5
		c1,1,1.5,2.2,1.5,3.6c0,1.4-0.5,2.6-1.5,3.6c-1,1-2.2,1.4-3.6,1.4h-2.9V49.3z M503.3,3.9v101.4c0,0.9,0.5,1.3,1.4,1.3h47.4
		c14.4,0,26.6-5.1,36.8-15.3c10.1-10.2,15.2-22.4,15.2-36.7c0-14.4-5.1-26.7-15.2-36.8C578.8,7.6,566.6,2.5,552.3,2.5h-47.6
		C503.8,2.5,503.3,3,503.3,3.9z M427.4,54.2l6.6,51.1c0.2,0.7,0.6,1.1,1.1,1.3h46.8c1,0,1.4-0.4,1.4-1.3V3.9c0-1-0.5-1.4-1.4-1.4
		h-46.4c-0.9,0-1.3,0.5-1.3,1.4v49.8H434l-6.4-50c-0.1-0.9-0.6-1.3-1.6-1.3h-46.7c-0.9,0-1.3,0.5-1.3,1.4v101.4
		c0,0.9,0.4,1.3,1.3,1.3h46.4c1,0,1.4-0.4,1.4-1.3V54.2H427.4z M296.7,91l4.4-13.7l4.4,13.7H296.7z M324,2.5h-45.4
		c-0.7,0-1.1,0.3-1.4,0.9l-35,101.4c-0.5,1.2,0,1.9,1.3,1.9h46.8c0.9,0,1.4-0.5,1.7-1.4l2.7-8.1h12.9l2.7,8.1c0.3,1,0.9,1.4,1.7,1.4
		h46.7c1.3,0,1.8-0.6,1.3-1.9L325.3,3.4C325.2,2.8,324.8,2.5,324,2.5z M124.5,3.9v101.4c0,0.9,0.5,1.3,1.4,1.3H225
		c0.9,0,1.4-0.5,1.4-1.4V76.8c0-0.9-0.5-1.3-1.4-1.3h-52.5v-5.1h33.8c0.9,0,1.3-0.5,1.3-1.4V40.3c0-1-0.4-1.4-1.3-1.4h-33.8v-5.1
		H225c0.9,0,1.4-0.5,1.4-1.4V3.9c0-1-0.5-1.4-1.4-1.4h-99.1C125,2.5,124.5,3,124.5,3.9z M3.9,106.6h101.4c0.9,0,1.4-0.4,1.4-1.3
		V76.2c0-0.9-0.5-1.3-1.4-1.3H51.5V3.8c0-0.9-0.5-1.3-1.4-1.3H3.9C3,2.5,2.6,2.9,2.6,3.8v101.5C2.6,106.2,3,106.6,3.9,106.6z"/>
</g>
</svg>
