<?xml version="1.0" encoding="utf-8"?>
<!-- Generator: Adobe Illustrator 27.7.0, SVG Export Plug-In . SVG Version: 6.00 Build 0)  -->
<svg version="1.1" id="Ebene_1" xmlns="http://www.w3.org/2000/svg" xmlns:xlink="http://www.w3.org/1999/xlink" x="0px" y="0px"
	 viewBox="0 0 522 372.5" style="enable-background:new 0 0 522 372.5;" xml:space="preserve">
<style type="text/css">
	.st0{clip-path:url(#SVGID_00000155860667584978978190000009837830263168054681_);fill:#EB5B2A;}
	.st1{fill:#EB5B2A;}
	.st2{fill:none;stroke:#EB5B2A;stroke-width:5.677;stroke-linecap:square;stroke-miterlimit:8.493;}
	.st3{fill:none;stroke:#EB5B2A;stroke-width:12.937;stroke-miterlimit:8.493;}
	.st4{font-family:'LexendPeta-Medium';}
	.st5{font-size:20.4162px;}
	.st6{letter-spacing:2;}
	.st7{letter-spacing:3;}
	.st8{font-size:11.9026px;}
	.st9{letter-spacing:1;}
</style>
<g>
	<defs>
		<rect id="SVGID_1_" x="-6.8" y="-4.3" width="533.7" height="387.6"/>
	</defs>
	<clipPath id="SVGID_00000052086264926250566250000002532498173678739896_">
		<use xlink:href="#SVGID_1_"  style="overflow:visible;"/>
	</clipPath>
	<path style="clip-path:url(#SVGID_00000052086264926250566250000002532498173678739896_);fill:#EB5B2A;" d="M58.8,242.2
		c-0.4-0.1-0.8-0.2-1.2-0.2c-6.7-0.7-13.5-1.3-20.2-2c-1.1-0.1-1.1,0.4-0.9,1.2c0.5,2.3,0.8,4.6,1.1,6.9c0.2,1.5,0.2,1.5,1.7,1.7
		c4.5,0.5,9,1,13.5,1.5c2.3,0.3,4.6,0.5,7,0.8C57.9,248.8,58,245.6,58.8,242.2 M133.3,262.9c0.1-2.9-0.1-5.6-0.3-8.4
		c-0.1-1.9-0.1-1.9-2-2.4c-4.7-1.1-9.4-1.7-14.2-2.4c-2.5-0.4-5-0.7-7.7-1.1c0.5,2.4,0.6,4.6,0.8,6.8c0.1,0.9,0.2,1.9,0.3,2.8
		c0.1,0.9,0.5,1.4,1.5,1.5c1.3,0.1,2.5,0.4,3.7,0.6C121.5,261.1,127.2,262,133.3,262.9 M84.5,255.4c-0.3-2.6-0.7-4.9-0.6-7.3
		c0-0.8-0.2-1.9,0.8-2c1.2-0.1,1.1,1.2,1.2,1.9c0.2,2,0.4,4,0.5,6c0.1,1.7,0.1,1.7,1.8,2c4.3,0.7,8.5,1.3,12.8,2
		c2.5,0.4,5.1,0.8,7.8,1.2c-0.9-3.3-1.2-6.4-0.8-9.5c0.1-1.1-0.3-1.3-1.1-1.4c-0.3,0-0.5-0.1-0.8-0.1c-7.2-1-14.5-2.1-21.7-3.1
		c-7.8-1-15.7-1.9-23.6-2.8c-0.3,0-0.5,0-0.8,0.2c0.5,2.8,0.6,5.6,1,8.5c0.2,1.2,0.7,1.4,1.6,1.5c4.7,0.6,9.5,1.3,14.2,1.9
		C79.3,254.7,81.8,255,84.5,255.4 M136.2,252.8c-0.7,0.7-1.2,0.2-1.7,0.5c0.4,2.9,0.4,5.7,0.3,8.6c-0.1,1.9-0.2,2.1-2.1,2.1
		c-4,0.1-8-0.3-11.9-0.9c-15.2-2.3-30.4-4.7-45.6-6.9c-12.2-1.8-24.4-3.4-36.6-4.6c-8.3-0.8-16.6-1.6-24.8-2.4
		c-1.5-0.2-3-0.2-4.5-0.8c0.3-0.9,1-0.8,1.5-0.8c1.7,0,3.5-0.1,5.2,0c5.9,0.3,11.8,0.8,17.7,1.4c1,0.1,2,0.3,3,0
		c-0.3-1.5-0.6-3-0.8-4.5c-0.2-1.1-0.3-2.2-0.3-3.4c0-1.3,0-1.4-1.4-1.5c-3.8-0.4-7.7-0.8-11.5-1.1c-4.6-0.4-9.3-0.9-13.9-1.3
		c-0.3,0-0.7,0-0.8-0.5c0.7-0.6,1.5-0.6,2.4-0.5c2.9,0.1,5.7,0.2,8.6,0.5c7,0.6,14.1,1.2,21.1,1.8c10.5,0.9,21.1,1.9,31.6,3.1
		c17.5,2,34.8,4.7,52.2,7.4c3.2,0.5,6.4,1.1,9.5,2.3C134.1,251.6,135,252.3,136.2,252.8"/>
	<path style="clip-path:url(#SVGID_00000052086264926250566250000002532498173678739896_);fill:#EB5B2A;" d="M139.3,332.5
		c0-2.6-0.5-3.5-2.7-4.2c-1.3-0.4-2.7-0.7-4.1-1c-1.3-0.3-1.5-0.1-1.5,1.3c0,2.9,0.1,5.8-0.4,8.7c-0.1,0.8,0.2,1.2,1,1.4
		c1.6,0.3,3.3,0.6,4.9,1c1,0.3,1.3-0.1,1.6-0.9C138.8,336.6,139.2,334.4,139.3,332.5 M115.4,330.2L115.4,330.2
		c-0.1,1.5-0.1,3.1-0.1,4.6c0,1.4-0.1,1.4,1.3,1.6c4,0.6,8,1.2,12,1.8c1.3,0.2,1.4,0.1,1.4-1.2c0-3-0.1-6,0.2-9
		c0.1-1-0.4-1.3-1.2-1.4c-1.4-0.2-2.9-0.5-4.3-0.8c-2.6-0.5-5.2-0.9-7.9-1.4c-1.4-0.2-1.4-0.1-1.4,1.3
		C115.4,327.3,115.4,328.8,115.4,330.2 M114.3,325c0.2-0.7-0.2-1-0.9-1.1c-0.3,0-0.6-0.1-1-0.2c-5.6-0.9-11.3-1.8-16.9-2.7
		c-1.6-0.2-1.6-0.2-1.4,1.4c0.3,2.9,0.4,5.8-0.3,8.7c-0.3,1.3-0.3,1.3,1.1,1.6c2.7,0.5,5.4,1,8,1.5c3.3,0.6,6.6,1.1,9.8,1.6
		c1.3,0.2,1.4,0.1,1.3-1.2C113.7,331.5,113.9,328.3,114.3,325 M1.5,308.1c2.4,0.1,4.9,0.3,7.3,0.5c11.4,0.9,22.7,2.7,34,4.3
		c1.6,0.2,3.2,0.1,4.8,0.1c7.1,0.2,14.2,1.3,21.2,2.3c9.6,1.4,19.2,2.8,28.8,4.2c11.9,1.8,23.8,3.6,35.6,6c1.6,0.3,3.1,0.7,4.6,1.3
		c2.1,0.8,3.1,2.4,3.1,4.6c0,3.2-0.6,6.2-2,9.1c-0.3,0.6-0.8,1-1.7,0.9c-5-0.9-10.1-1.8-15.1-2.5c-10-1.4-19.8-3.1-29.7-5
		c-11.8-2.2-23.7-4.4-35.7-5.7c-11.5-1.3-22.8-3.8-34.2-6c-8.4-1.6-16.9-3.2-25.3-4.6c-0.6-0.1-1.3-0.1-2-0.7c1.8-0.2,3.4,0.2,5,0.4
		c8.1,0.9,16,2.5,24,4.1c7.2,1.5,14.3,3,21.5,4.4c1.9,0.4,3.8,0.4,5.8,0.5c8.8,0.6,17.4,2.1,26.1,3.5c4.3,0.7,8.7,1.5,13,2.2
		c1.6,0.3,1.7,0.2,1.9-1.4c0.2-2.9,0.4-5.7,0.6-8.6c0.1-1.1-0.4-1.4-1.3-1.5c-5.5-0.8-10.9-1.6-16.4-2.4c-1.1-0.1-2.4-1-3.2-0.1
		c-0.7,0.7,0,2-0.1,3.1c-0.1,2.1,0,4.1-0.3,6.2c0,0.3,0,0.7-0.4,0.9c-0.6-0.1-0.5-0.7-0.6-1.1c-0.4-2.3-0.3-4.5-0.1-6.8
		c0.1-0.5,0.1-1.1,0.1-1.6c0.1-0.9-0.2-1.3-1.2-1.4c-3.2-0.6-6.5-0.7-9.7-1c-4-0.4-8.1-0.8-12.3-1.2c0.6,2.9,1.1,5.8,0.8,8.8
		c-0.7-1.8-0.8-3.8-1.1-5.7c-0.6-3.6,0-3.2-3.6-3.6c-8.4-1.1-16.7-2.2-25.1-3.4c-5.5-0.7-10.9-1.4-16.4-2.2
		C2,308.9,1.7,308.9,1.5,308.1"/>
	<path style="clip-path:url(#SVGID_00000052086264926250566250000002532498173678739896_);fill:#EB5B2A;" d="M115.2,51.8
		c-3-0.4-3.2-0.3-3.9,0.9C112.7,52.8,113.9,52.3,115.2,51.8 M131.6,67.6c3.4-1.3,6.9-2.2,10-4c0.3-0.2,0.6-0.4,0.8-0.6
		c0.5-0.5,0.6-0.9-0.2-1.2c-0.2-0.1-0.5-0.2-0.7-0.3c-2.9-0.6-5.8-0.3-8.7,0.4c-0.5,0.1-0.9,0.4-1,0.9
		C131.7,64.4,131.2,65.9,131.6,67.6 M138.2,84.6c1.6-6.3,3.6-12.4,4.2-18.8c-0.8-0.1-1.3,0.2-1.7,0.4c-2.4,1-4.9,1.6-7.4,2.2
		c-1.7,0.3-1.7,0.3-1.3,2c0.2,1.2,0.6,2.4,1.1,3.6c1.1,2.9,2.5,5.7,3.9,8.5C137.1,83.1,137.3,83.9,138.2,84.6 M130.7,61
		c0.2-1.9-0.6-3-1.9-3.8c-2.7-1.7-5.8-2.7-8.8-3.7c-0.2-0.1-0.4-0.1-0.6-0.1c-2.2,0.3-4.5,0.8-6.6,1.4c-0.5,0.1-0.6,0.5-0.4,0.9
		c0.3,0.6,0.7,1.1,1.1,1.7c1.9,2.7,4,5.2,6.1,7.6c5,5.8,9.1,12.1,11.9,19.3c0.6,1.6,1.3,3.2,2.3,4.7c1,1.5,1.8,2,2.7,1.6
		c0.7-0.4,0.9-1.3,0.5-2.9c-0.5-1.9-1.4-3.6-2.3-5.3c-1.4-2.9-2.9-5.9-3.9-9c-1-3-1.4-6.1-0.7-9.2C130.4,62.9,130.5,61.8,130.7,61
		 M143.9,70.9c0.8-0.7,1.8-1,2.7-1.3c2.6-1.1,5.2-2.2,7.6-3.4c1.2-0.6,2.5-1.3,3.5-2.3c2.4-2.1,2.3-4-0.1-5.9
		c-1.2-0.9-2.5-1.6-3.8-2.2c-3.3-1.4-6.7-2.2-10.2-2.8c-6.5-1-13-1-19.5-0.3c-0.2,0-0.4,0.1-0.7,0.1c0.2,0.5,0.7,0.6,1,0.7
		c1.2,0.5,2.3,0.9,3.5,1.5c2.3,1.1,4.2,2.7,4.3,5.6c2.4-0.8,4.7-1.2,7.2-1.1c1.3,0.1,2.5,0.2,3.7,0.7c1.9,0.8,2.3,2.2,1,3.8
		c-0.4,0.5-0.8,0.9-0.8,1.5c0.1,5.3-1.4,10.3-2.6,15.3c-0.4,1.5-0.8,3-1.2,4.4c-0.3,1.3-0.7,2.6-0.6,3.9c0.1,1.5-0.6,2.6-2,3.2
		c-1.4,0.6-2.6,0.2-3.7-0.7c-0.8-0.7-1.5-1.6-1.9-2.5c-0.8-1.7-1.7-3.3-2.4-5c-2.5-6.1-6-11.6-10.2-16.6c-2.2-2.7-4.4-5.4-6.5-8.1
		c-0.5-0.6-0.9-1.2-1.2-1.8c-1.3-2-1.3-2.1-3.5-1.2c-1.9,0.7-3.7,1.5-5.4,2.7c-1,0.7-1.9,1.4-2.7,2.4c-1.2,1.7-1.3,3.5-0.2,5.2
		c1,1.5,2.4,2.6,4,3.6c3.2,1.9,6.7,3,10.3,3.6c3.2,0.6,6.5,0.8,9.7,0.8c0,0.7-0.6,0.7-1,0.8c-3.5,0.9-7,0.7-10.5,0.1
		c-3.5-0.6-6.8-1.7-9.9-3.6c-1.7-1-3.2-2.2-4.3-3.8c-2-2.8-1.9-5.8,0.4-8.4c1.1-1.3,2.4-2.3,3.9-3.1c1.9-1.1,3.9-2,6-2.7
		c0.7-0.2,1-0.6,1.2-1.4c0.3-2,1.2-2.7,3.3-2.7c2.2-0.1,4.2,0.5,6.3,0.9c0.9,0.2,1.8,0.2,2.8,0.1c9.6-1.3,19.1-1.2,28.5,1.4
		c2.6,0.7,5.2,1.7,7.6,3.1c1.2,0.7,2.3,1.6,3.1,2.7c1.2,1.7,1.2,3.5,0.1,5.2c-0.7,1.2-1.8,2.1-3,2.8c-4,2.4-8.5,3.8-13,5
		C144.5,71.3,144.2,71.3,143.9,70.9"/>
	<path style="clip-path:url(#SVGID_00000052086264926250566250000002532498173678739896_);fill:#EB5B2A;" d="M22.5,103.1
		c0.4-0.4,1-0.3,1.4-0.3c14,0.6,27.9,1.2,41.9,2.3c11.5,0.9,22.9,2.4,34.3,3.8c9.7,1.2,19.4,2.3,29.2,2.8c0.6,0,1.2,0,1.7-0.3
		c11.6-6,23.7-10.8,35.5-16.4c14.8-7,29.5-14.1,44.2-21.3c9.8-4.8,19.8-9.3,29.9-13.2c0.8-0.3,1.6-0.6,2.4-0.9
		c0.1,0,0.2,0.1,0.6,0.1c-1.2,0.6-2.2,1.2-3.3,1.7c-23,9.9-45.1,21.6-67.7,32.3c-13.4,6.3-27,12.4-40.6,18.1
		c-1.1,0.5-2.2,1.3-3.6,0.5c-0.2-0.1-0.5,0-0.8,0c-8.5,0.4-16.9-0.5-25.3-1.4c-10.4-1.1-20.7-2.5-31.1-3.4
		c-9.9-0.9-19.8-1.7-29.6-2.4c-6-0.4-12.1-1-18.1-1.5C23.2,103.5,22.8,103.6,22.5,103.1"/>
	<path style="clip-path:url(#SVGID_00000052086264926250566250000002532498173678739896_);fill:#EB5B2A;" d="M-8.3,322
		c2.8,0.3,5.3,0.6,7.8,0.9c9.4,1.3,18.9,2.5,28.3,3.9c5.5,0.8,11,1.7,16.6,2.6c2.2,0.4,4.5,0.2,6.7,0.5c8.6,1.2,17.1,2.6,25.7,3.9
		c8,1.2,15.9,2.3,23.9,3.4c11,1.5,22,3.2,33,5c4,0.7,8,1.3,12,2.2c0.7,0.2,1.6,0.2,2.3,1c-0.9,0.4-1.7,0.2-2.4,0.1
		c-10-1.2-20-3-30-4.4c-8-1.1-16.1-2.3-24.1-3.3c-8.6-1.1-17.2-2.5-25.9-3.8c-5.1-0.8-10.1-1.5-15.2-2.2c-19-2.9-38-5.6-57-8.8
		C-7.2,322.8-7.8,322.9-8.3,322"/>
	<path style="clip-path:url(#SVGID_00000052086264926250566250000002532498173678739896_);fill:#EB5B2A;" d="M129,300.8
		c0.1-5.8,0.3-10.7,0.1-15.5c-0.1-2-0.3-2.3-2.3-2.5c-4.5-0.3-9-0.5-13.5-0.8c-0.9-0.1-1.2,0.2-1.1,1.1c0.5,8.2,0.5,16.5,0.6,24.7
		c0,1.3,0,2.5,0.1,3.8c0.2,2.5,0.8,3.1,3.3,3.5c3.6,0.5,7.1,0.8,10.7,0.8c1.7,0,1.8,0,1.8-1.8C128.7,309.4,128.8,304.6,129,300.8
		 M130.6,301.7c-0.1,3-0.2,7.9-0.4,12.7c-0.1,2.6-0.7,3.1-3.2,3.2c-3.8,0.1-7.6-0.1-11.3-0.7c-3.5-0.6-4.5-1.7-4.7-5.3
		c-0.1-2.6-0.2-5.2-0.2-7.8c0-5.9,0.1-11.7,0.2-17.6c0-1.5,0.2-3,0.3-4.6c0-0.7,0.3-0.9,1-0.9c5-0.2,10-0.2,14.9,0.3
		c2.5,0.3,3.2,1.1,3.4,3.6C131,289.8,130.7,294.9,130.6,301.7"/>
	<path style="clip-path:url(#SVGID_00000052086264926250566250000002532498173678739896_);fill:#EB5B2A;" d="M38.6,270.5
		c-0.4,0.6-0.2,1.1-0.2,1.6c0.4,3.6,0.7,7.3,0.7,10.9c0,4.3,0,8.6,0,13c0,2.4,0.7,3,3.1,3.2c3,0.2,6,0.2,9,0.1
		c3.9-0.2,4.3-0.6,4.3-4.5c-0.1-5.9-0.4-11.7-0.9-17.5c-0.1-0.7-0.2-1.4-0.4-2.2c-0.3-1.4-1.1-2.2-2.5-2.6c-0.8-0.2-1.6-0.3-2.3-0.5
		c-2.1-0.3-4.2-0.5-6.3-0.8C41.5,271.1,40.1,270.8,38.6,270.5 M37.8,283.6c-0.1-4.1-0.2-8.2-0.3-12.4c0-0.1-0.1-0.3,0-0.4
		c0.3-0.6-1.1-1.1-0.2-1.7c0.6-0.4,1.3,0,1.9,0.1c3.7,0.3,7.4,0.6,11.1,1.3c0.7,0.1,1.4,0.3,2.1,0.5c1.6,0.6,2.7,1.6,3.2,3.3
		c0.3,1.2,0.5,2.5,0.6,3.7c0.3,5.2,0.6,10.4,0.9,15.5c0.1,1.1,0,2.1,0,3.2c-0.2,2.7-1.4,3.9-4.1,4.2c-2.3,0.2-4.5,0.3-6.8,0.2
		c-1.5-0.1-3.1-0.1-4.6-0.3c-2.7-0.3-3.7-1.4-4-4.1c-0.2-2.4,0-4.8,0-7.2c0-2,0-4,0-6C37.8,283.6,37.8,283.6,37.8,283.6"/>
	<path style="clip-path:url(#SVGID_00000052086264926250566250000002532498173678739896_);fill:#EB5B2A;" d="M400.2,264.1
		c4.6-0.4,9.2-0.2,13.8,0.1c10,0.7,20,1.5,30,2.2c10.5,0.8,21,1.6,31.4,2.5c0.6,0,1.2,0.1,1.7,0.4c-0.1,0.7-0.7,0.5-1.1,0.5
		c-9.6-0.1-19.2-0.5-28.7-1.2c-5.8-0.4-11.5-0.9-17.3-1.3c-9-0.7-17.9-1.4-26.8-2.2C402.2,265.1,400.9,265.4,400.2,264.1
		C400.3,264.1,400.2,264.1,400.2,264.1"/>
	<path style="clip-path:url(#SVGID_00000052086264926250566250000002532498173678739896_);fill:#EB5B2A;" d="M462.8,203.7
		c-3,15.2-6,30.3-8.9,45.5C453.3,246.5,461,207.2,462.8,203.7"/>
	<path style="clip-path:url(#SVGID_00000052086264926250566250000002532498173678739896_);fill:#EB5B2A;" d="M460.4,199.1
		c-3,16.8-7,33.3-10.9,49.8c-0.1,0-0.3-0.1-0.4-0.1c0.5-2.6,1-5.1,1.6-7.7c2.9-13.2,5.8-26.5,8.8-39.7
		C459.7,200.7,459.6,199.7,460.4,199.1L460.4,199.1z"/>
	<path style="clip-path:url(#SVGID_00000052086264926250566250000002532498173678739896_);fill:#EB5B2A;" d="M13.3,239.3
		c0.8,2.3,1.5,4.5,1.5,6.9C13.8,244,13.1,241.7,13.3,239.3"/>
	<path style="clip-path:url(#SVGID_00000052086264926250566250000002532498173678739896_);fill:#EB5B2A;" d="M22.5,317.3v-3
		C22.8,315.4,22.7,316.4,22.5,317.3"/>
	<path style="clip-path:url(#SVGID_00000052086264926250566250000002532498173678739896_);fill:#EB5B2A;" d="M460.4,199.2
		c0-0.4-0.1-0.9-0.1-1.4C460.8,198.3,460.3,198.7,460.4,199.2C460.4,199.1,460.4,199.2,460.4,199.2"/>
	<path style="clip-path:url(#SVGID_00000052086264926250566250000002532498173678739896_);fill:#EB5B2A;" d="M154.3,309.1
		c0.2-0.1,0.4-0.1,0.5-0.3c2.2-2.6,4.2-5.3,6.2-8c0.4-0.5,0.4-0.9,0.2-1.5c-0.5-1.7-0.6-3.5-0.7-5.3c-0.3-6.5-0.6-13-0.9-19.5
		c0-0.8,0.1-1.7-0.4-2.4c-0.8,0.3-1.2,1-1.7,1.5c-1.4,1.4-2.7,3-4.4,4c-0.8,0.5-1,1.1-0.9,2c0.2,1.9,0.3,3.8,0.4,5.8
		c0.4,7.3,0.5,14.6,1.2,21.9C153.8,307.8,153.7,308.5,154.3,309.1 M162.1,286.3c0.2,3.9,0.4,7.8,0.6,11.8c0.1,1.2-0.2,2.3-0.8,3.4
		c-1.7,3-3.5,5.8-5.7,8.4c-0.7,0.8-1.4,1.8-2.6,1.4c-1.2-0.4-1.2-1.7-1.3-2.7c-0.8-9.9-1.4-19.9-1-29.9c0-0.9,0.3-1.5,0.9-2.1
		c1.8-1.8,3.5-3.6,5.3-5.4c0.4-0.4,0.8-0.7,1.2-1c1.1-0.6,1.9-0.3,2.3,0.9c0.3,0.9,0.4,1.9,0.5,2.9
		C161.6,278.1,161.8,282.2,162.1,286.3C162.1,286.3,162.1,286.3,162.1,286.3"/>
	<path style="clip-path:url(#SVGID_00000052086264926250566250000002532498173678739896_);fill:#EB5B2A;" d="M169.7,139L169.7,139
		c-0.4,3.1-0.1,12.5,0.4,13.9c0.7-0.1,1.2-0.6,1.7-1c2.8-1.9,5.3-4,7.9-6c1-0.7,1.3-1.5,1.2-2.7c-0.3-4.2-0.5-8.5-0.8-12.7
		c-0.1-0.9-0.2-1.7-0.5-2.4c-0.2,0-0.4,0-0.5,0c-3.1,1.7-6.1,3.8-9.4,5.2c-0.4,0.2-0.6,0.5-0.5,1C169.6,135.8,169.1,137.4,169.7,139
		 M167.8,143.6c0-3.3-0.1-6.6,0.3-10c0.1-0.8,0.3-1.3,1.1-1.7c2.7-1.6,5.5-3.3,8.2-5c0.3-0.2,0.6-0.3,0.9-0.5
		c1.8-0.8,2.7-0.3,3.2,1.6c0.2,0.6,0.3,1.3,0.3,2c0.3,4.1,0.6,8.2,0.9,12.3c0,0.7,0,1.3,0,2c0,0.5-0.2,1.1-0.6,1.4
		c-3.4,2.7-6.3,5.8-10.2,7.9c-0.8,0.4-1.6,0.8-2.3,1.1c-0.7,0.3-1.1,0.1-1.3-0.7c-0.2-0.9-0.4-1.8-0.4-2.8
		C167.8,148.8,167.8,146.2,167.8,143.6"/>
	<path style="clip-path:url(#SVGID_00000052086264926250566250000002532498173678739896_);fill:#EB5B2A;" d="M211.4,202.6
		c0.2,0.1,0.3,0.1,0.5,0.2c3.4-3.7,6.9-7.4,10.1-11.2c0.4-0.4,0.5-0.9,0.4-1.5c-0.7-4.4-0.8-8.9-1.1-13.3c-0.1-0.8,0-1.7-0.5-2.5
		c-0.3,0.1-0.5,0.2-0.6,0.3c-2.9,2.5-5.7,5-8.6,7.5c-0.8,0.7-0.9,1.6-0.8,2.5c0.4,3.2,0.3,6.4,0.5,9.7
		C211.3,197.1,211.3,199.8,211.4,202.6 M208.8,185.7c-0.4-2.1,0.5-3.6,2.1-5c2.6-2.3,5-4.7,7.7-7c2.5-2.1,3.7-1.7,4.2,1.5
		c0.4,3.4,0.7,6.7,1,10.1c0.1,0.7,0,1.5,0.2,2.2c0.5,2.1-0.1,3.9-1.3,5.6c-1,1.6-2.2,3-3.5,4.3c-1.6,1.8-3.3,3.5-4.9,5.2
		c-0.5,0.5-0.9,0.9-1.4,1.4c-0.6,0.5-1.3,1.1-2.1,0.7c-0.9-0.4-0.9-1.3-1-2.1c0-0.1,0-0.1,0-0.2C209.8,197,209.5,191.3,208.8,185.7"
		/>
	<path style="clip-path:url(#SVGID_00000052086264926250566250000002532498173678739896_);fill:#EB5B2A;" d="M318.6,198.7
		c-2.7,14.7-3.6,29.6-5.4,44.5c-0.1,0.5-0.1,1-0.7,1.6c-0.3-1-0.3-1.9-0.3-2.7c0-3.6,0.2-7.2,0.5-10.8c0.8-8.9,1.8-17.9,3.6-26.7
		C316.8,202.6,317.3,200.6,318.6,198.7"/>
	<path style="clip-path:url(#SVGID_00000052086264926250566250000002532498173678739896_);fill:#EB5B2A;" d="M307.3,197.7
		c1.9-8.9,11-14.5,20.6-13.1c4.3,0.6,7.7,2.7,10.4,6c2.6,3.3,3.7,7.2,4.6,11.4c-1.1-0.4-1.2-1.1-1.4-1.7c-0.8-1.8-1.5-3.5-2.4-5.3
		c-2.7-5.7-7.1-9-13.6-9c-0.9,0-1.9,0-2.8,0c-3.2,0-5.9,1.3-8.3,3.4c-1.9,1.8-3.5,3.8-5,5.9C308.9,196.2,308.4,197,307.3,197.7"/>
	<path style="clip-path:url(#SVGID_00000052086264926250566250000002532498173678739896_);fill:#EB5B2A;" d="M344.1,178.9
		c-0.3,0.5-0.8,0.4-1.2,0.5c-10.8,0.5-21.3-1.4-31.9-2.7c-0.5-0.1-1.1-0.1-1.4-0.7C311.6,175.6,342.7,178.3,344.1,178.9"/>
	<path style="clip-path:url(#SVGID_00000052086264926250566250000002532498173678739896_);fill:#EB5B2A;" d="M183.7,311.6
		c2.3-0.6,4.6-0.2,6.9,0.1c7,0.9,14,1.8,21,2.8c7.9,1.1,15.8,2.3,23.7,3.5c2.6,0.4,5.1,0.8,7.6,1.5c0.4,0.1,1,0.1,1.2,0.9
		C223.8,317.5,203.8,314.6,183.7,311.6"/>
	<path style="clip-path:url(#SVGID_00000052086264926250566250000002532498173678739896_);fill:#EB5B2A;" d="M252.1,170.9
		c0.6-0.9,1.5-1.4,2.5-1.9c1.9-0.9,2.7-0.7,3.8,1.2c0.6,1,1.3,1.3,2.3,1.1c1.8-0.4,3.6-1,5.4-1.6c0.7-0.2,1.4-0.5,2.1-0.5
		c-2.6,1.4-5.2,2.6-8.2,3c-1.1,0.2-1.8-0.4-2.4-1.4c-0.9-1.5-1.1-1.6-2.7-1C253.9,170.1,253,170.5,252.1,170.9"/>
	<path style="clip-path:url(#SVGID_00000052086264926250566250000002532498173678739896_);fill:#EB5B2A;" d="M246.5,311.4
		c-0.2,0.3-0.4,0.4-0.6,0.4c-19.7-2.8-39.3-5.7-59.1-7.7c0.5-0.4,1.1-0.3,1.7-0.3c4.7,0.1,9.3,0.6,13.9,1.2
		c8.9,1.1,17.8,2.3,26.7,3.4c5.1,0.7,10.3,1.4,15.4,2.4C245.3,310.9,245.9,311.1,246.5,311.4"/>
	<path style="clip-path:url(#SVGID_00000052086264926250566250000002532498173678739896_);fill:#EB5B2A;" d="M233.9,167.3
		c0.6-0.7,1.3-0.7,2-0.9c2.1-0.4,3,0.4,3,2.5c0,3,0,3,2.9,2.2c0.2,0,0.4,0,0.7-0.1c-0.2,0.6-0.8,0.7-1.2,0.9
		c-2.5,1.1-3.5,0.1-3.3-2.2c0.2-2.7-0.1-2.9-2.7-2.4C234.9,167.4,234.5,167.5,233.9,167.3"/>
	<path style="clip-path:url(#SVGID_00000052086264926250566250000002532498173678739896_);fill:#EB5B2A;" d="M126,299.4
		c-1.3,1.2-2.7,2.2-4.2,2.9c-1.6,0.7-2.6-0.1-2.3-1.9c0.2-1.3,0.7-2.6,1.1-3.8c0.3-1.1,0.7-2.1,0.8-3.3c0.2-1.8-0.4-2.3-2.2-2
		c-0.7,0.1-1.4,0.4-2.1,0.6c1-1.1,2.5-1.7,3.7-1.5c1,0.1,1.5,0.8,1.6,1.7c0.1,1.1-0.1,2.1-0.4,3.1c-0.5,1.6-0.9,3.2-1.4,4.8
		c-0.1,0.4-0.3,1,0.1,1.3c0.4,0.4,0.9,0,1.3-0.2c0.9-0.4,1.7-1,2.6-1.4C125,299.5,125.3,299,126,299.4"/>
	<path style="clip-path:url(#SVGID_00000052086264926250566250000002532498173678739896_);fill:#EB5B2A;" d="M41.3,280.9
		c1.5-1,2.3-1,3.5,0c0.4,0.3,0.8,0.8,1,1.2c1.2,1.9,2.6,3.5,4.1,5.1c0.3,0.3,0.6,0.5,0.7,1.3c-1.7-1.3-3-2.6-4.2-4
		c-0.4-0.5-0.8-1.1-1.2-1.6C43.8,281,43.5,280.8,41.3,280.9"/>
	<path style="clip-path:url(#SVGID_00000052086264926250566250000002532498173678739896_);fill:#EB5B2A;" d="M169.7,139
		c2.6-1,3.2-0.9,5,1.3c0.8,1,1.8,1.5,3,1.9c0.5,0.2,1.2,0,1.7,0.7c-2.3,0-4.2-0.4-5.4-2.3c-0.8-1.2-1.8-1.7-3.2-1.5
		C170.3,139.1,170,139,169.7,139C169.6,138.9,169.7,139,169.7,139"/>
	<path style="clip-path:url(#SVGID_00000052086264926250566250000002532498173678739896_);fill:#EB5B2A;" d="M218.7,190
		c-0.7,0.4-1.5,1.2-2.3,0.7c-1-0.6-0.4-1.6-0.3-2.4c0.3-3.2,0.2-3.3-2.7-2c0-0.5,0.5-0.6,0.7-0.8c0.6-0.4,1.3-0.8,2-0.4
		c0.8,0.5,0.7,1.3,0.6,2.1c-0.1,0.6-0.2,1.2-0.2,1.8c-0.1,1.3,0.1,1.4,1.3,1c0.3-0.1,0.5-0.2,0.7-0.3c0,0,0.1,0,0.2,0.1
		C218.8,189.8,218.7,189.9,218.7,190"/>
</g>
<polygon class="st1" points="350,112.9 368.1,105.2 343.1,95 "/>
<polygon class="st2" points="350,112.9 368.1,105.2 343.1,95 "/>
<line class="st3" x1="354.4" y1="103.5" x2="373.4" y2="56.5"/>
<path class="st1" d="M542.9,122.3c-0.1,0-0.1,0-0.2,0c-2-0.1-4-0.3-6-0.4c-14.9-0.6-29.8-1-44.7-2c-11-0.8-21.9-1.4-32.9-2.1
	c-10-0.6-19.9-1.3-29.9-1.9c-4.8-0.3-9.6-0.6-14.3-0.9c-1.6-0.1-2.8,0.3-4.1,1c-2.6,1.5-5.2,3-7.8,4.4c-0.5,0.3-1,0.7-1.6,0.6
	c-3.8-0.5-7.6,0.1-11.4-0.3c-3.1-0.3-5.5,0.8-7.6,3.1c-4.4,4.7-8.5,9.5-12.7,14.4c-0.4,0.5-0.8,1.2-1.7,1.4c0.2-1-0.4-1.8-0.1-2.7
	c0.6-2,0.5-2.3-1.4-3.2c-2.9-1.3-5.9-2.4-9-3.3c-3.1-0.9-6.1-1.1-9.3-0.4c-0.9,0.2-1.8,0.3-2.7,0.4c0-0.1-0.1-0.3-0.1-0.4
	c3.6-2.3,7.3-4.5,11.5-5.7c4.9-1.4,9.9-2.6,14.8-4.1c12.1-3.7,24.5-6.3,37.2-7c11.7-0.7,23.4-1.3,35.1-1.3
	c11.3-0.1,22.5,0.3,33.7,1.1c4.4,0.3,8.9,0.6,13.4,0.5c0.5,0,1.2,0.3,1.7-0.6c-2-0.6-3.9-0.8-5.8-1c-9.9-0.9-19.9-1.5-29.9-1.7
	c-16.1-0.4-32.2,0.2-48.3,1.3c-5.2,0.4-10.3,0.9-15.5,1.7c-7.4,1.1-14.6,3-21.8,5c-8.7,2.4-17.6,4.1-25.5,8.2
	c-7.5-7.7-13.7-16.4-20.1-24.8c1.3-0.3,2.5-0.6,3.7-0.9c8-2.2,16-4.1,24.2-5.3c1.6-0.2,1.9-0.7,2-2.4c0.1-2.1,0.2-2.2,2.1-2.8
	c2.7-0.8,5.4-1.3,8.2-1.8c3.8-0.6,7.6-1.2,11.5-1.4c0.6,0,1.3-0.3,1.7,0.3c0.7,1.1,1.9,1.1,3,1.3c1.7,0.3,3.4-0.2,5.1-0.1
	c6,0.3,12,1.2,18.1,1.4c5.6,0.2,11.1,1,16.7,1.5c9.3,0.9,18.6,1.7,27.8,2.7c8.1,0.8,16.3,1.8,24.4,2.6c4.6,0.5,9.3,1,13.9,1.5
	c1.4,0.2,2.7-0.1,4-0.4c0.3-0.1,0.6-0.3,0.6-0.7c0-0.4-0.3-0.6-0.6-0.7c-0.3-0.1-0.5-0.1-0.8-0.1c-2.8-0.3-5.7-0.5-8.5-0.8
	c-8.4-0.9-16.8-1.7-25.2-2.6c-7.4-0.7-14.8-1.5-22.3-2.2c-6.6-0.6-13.1-1.1-19.7-1.7c-8.4-0.8-16.8-1.6-25.3-1.9
	c-0.5,0-1.1,0-1.6-0.1c-0.6,0-1-0.3-0.9-1c0.1-1,0-2-0.1-3c-0.3-2.3-1.4-3.3-3.7-3.4c-1.5-0.1-2,0.2-2.6,1.6
	c-0.3,0.6-0.5,1.2-0.8,1.8c-0.5,1.2-1.2,1.8-2.6,1.9c-4,0.2-8,0.7-11.9,1.4c-3.2,0.5-6.4,1.1-9.5,2.1c-1.7,0.5-2.8,1.5-2.8,3.4
	c-0.1,1.5-0.1,1.5-1.7,1.8c-4.2,0.6-8.4,1.4-12.6,2.3c-4.3,1-8.7,1.9-12.8,3.8c-1.6,0.8-2.9,0.8-4.5,0.3c-3.8-1.2-7.7-1.9-11.7-2.5
	c-3.5-0.5-7-1-10.5-1.2c-1-0.1-1.5-0.5-1.7-1.5c-0.1-1.2-0.4-2.4-0.6-3.5c-0.7-3.9-4.4-3.9-6.5-1.9c-1.2,1.2-1.8,2.8-2,4.5
	c-0.2,1.4-0.2,1.5-1.5,1.4c-5.3-0.2-10.6-0.6-16-0.5c-1,0-1.3-0.4-1.3-1.3c-0.1-1.1-0.2-2.3-0.4-3.4c-0.5-2.3-2.2-2.9-4.2-1.6
	c-1.2,0.8-2.2,2-2.3,3.4c-0.3,2.8-2.1,3.3-4.4,3.3c-0.3,0-0.7,0-1,0.1c-0.8,0.1-1.1-0.3-1-1c0-0.5,0.1-0.9,0.1-1.4
	c0.4-7.6,0.9-15.2,1.2-22.7c0.2-3.7,0.2-7.5-0.4-11.2c0-0.3-0.3-0.8,0-0.9c1.4-1,0.1-0.9-0.4-1c-2.1-0.5-4.2-0.7-6.3-0.8
	c-8.8-0.5-17.6-0.8-26.3-1.7c-0.6-0.1-1.4,0.1-1.9-0.4c0.8-2.6,0.5-3.9-1.8-5.5c-0.8-0.6-1.7-1.1-2.6-1.5c-1.4-0.6-2.8-1.2-4.2-1.7
	c-5.7-2-11.6-3.4-17.6-4.6c-9.5-2-19.1-2.5-28.8-1.4c-2.4,0.3-4.9,0.7-7.2,1.4c-2.2,0.7-4.5,1.9-6.1,3.9c-0.8,1-1.1,2.1-0.8,3.4
	c0.1,0.4,0.1,0.8,0.2,1.3c-1,0.2-1.9,0.1-2.8,0c-2.4-0.3-4.8-0.5-7.1-0.9c-10.6-1.4-21.2-2.4-31.8-3.5c-7.9-0.8-15.8-1.5-23.7-2.2
	c-3.4-0.3-6.9-0.6-10.4-0.5c-0.6,0-1.3-0.2-1.9,0.5c1.1,0.5,2.1,0.6,3.2,0.7c4.4,0.5,8.9,0.9,13.3,1.4c7.3,0.7,14.6,1.5,21.8,2.2
	c5.9,0.6,11.8,1.2,17.7,1.8c7.5,0.8,14.9,1.7,22.4,2.5c1,0.1,1.5,0.4,2,1.3c1.2,2.3,3,4.2,5,5.9c1.3,1.1,3.1,1.5,4.2,2.6
	c1.2,1.1,2,2.8,3.3,4c1.4,1.3,2.8,2.6,4.2,4c2,2,3.2,4.4,3.6,7.2c0.2,1.2,0.4,2.4,0.7,3.5c0.8,3.3,2.8,4.5,6.1,3.8
	c0.6-0.1,1.2-0.2,1.8-0.2c2-0.1,3.2-2,2.3-3.8c-0.5-1.2-1.4-2.2-2.4-3.2c-1-1.1-2.1-2.1-3.1-3.1c-1.6-1.6-2.2-3.5-1.7-5.7
	c0.7-2.8,1.3-5.7,1.9-8.6c0.3-1.7,0.1-2.5-1.4-3.3c-0.9-0.5-1.9-0.7-2.9-0.8c-4.6-0.2-9.2-0.1-12.5,3.9c-3.1-2.1-6.1-5.1-7-7
	c3.2-0.4,49.8,2.6,51.5,3.4c-3.1,1.7-6.1,3.2-9.3,4.4c-5.9,2.1-10.1,8.2-10,14.5c0,1.4,0.3,2.7,1.8,3.3c1.5,0.6,2.6-0.1,3.6-1.1
	c1.2-1.2,1.9-2.7,2.6-4.2c1.8-3.8,3.9-7.4,6.7-10.6c0.3-0.4,0.6-0.7,0.8-1.1c0.5-1,1.2-1.3,2.3-1.5c4.2-0.5,8.5-1.2,12.2-3.5
	c0.4-0.3,0.8-0.3,1.3-0.1c1.7,0.8,3.6,1,5.4,1.2c7.2,0.9,14.5,1.1,21.7,1.2c0.7,0,1.4,0.1,2.3,0.1c-0.4,0.3-0.6,0.5-0.8,0.6
	c-2.5,1.2-5,2.4-7.6,3.6c-17.1,7.6-34,15.6-50.4,24.5c-3.5,1.9-7.1,3.6-10.8,5.2c-9.7,4.1-19.3,8.6-28.9,13.1
	c-5.1,2.4-10.3,4.8-15.2,7.5c-1.9,1-3.5,3-6.1,2.3c-1.1,1-2.4,0.5-3.6,0.4c-8.3-0.6-16.6-1.2-24.9-1.7c-8.8-0.6-17.5-1.2-26.3-1.7
	c-8.2-0.5-16.5-1-24.7-1.5c-8-0.5-16-1-23.9-1.4c-4.2-0.2-8.4-0.6-12.6-0.5c-0.8,0-1.6-0.1-2.6,0.6c1.1,0.3,1.9,0.5,2.8,0.6
	c3.5,0.6,7,0.9,10.5,1.2c6,0.5,12.1,0.9,18.1,1.3c10.2,0.7,20.3,1.3,30.5,1.9c6.4,0.4,12.9,0.9,19.3,1.3c8.7,0.6,17.4,1.3,26.1,1.9
	c3.1,0.2,6.2,0.4,9.4,0.6c0.7,0,1.2,0.1,1.4,1c0.4,2.8,0.7,5.7,0.8,8.5c0.3,5.3,0.5,10.6,1,15.9c0.7,8.7,1.4,17.4,2.1,26.1h2.5
	c-0.6-8.7-1.4-17.4-2.1-26.1c-0.4-5.6-0.7-11.2-1-16.7c-0.1-1.8-0.3-3.6-0.4-5.4c-0.1-1.1-0.4-2.1-0.9-3c0.8-0.6,1.7-0.8,2.6-1.2
	c6.1-2.7,12.2-5.4,18-8.6c10.2-5.5,20.5-10.7,31.2-15.2c1.9-0.8,3.7-1.7,5.6-2.5c0.5,0.7,0.4,1.4,0.4,2c0.8,20.5,1.4,41,1.5,61.5
	c0.1,14.7,0.7,29.4,1.4,44.1c0.5,12.2,1,24.5,1.7,36.7c0.3,5.2,0.7,10.5,1.1,15.7c0.1,1.2-0.1,2.3-0.8,3.4c-0.9,1.3-1.5,2.7-1.8,4.4
	c-0.2,1.5-1,3-1.5,4.5c-5.2,15.2-11.3,30-16.7,45.1c-1.2,3.3-2.8,6.2-5,8.9c-6.3,7.8-12.4,15.6-18.6,23.5c-0.4,0.6-0.9,1.1-1.5,1.8
	c-0.6-2.1-0.7-3.9-0.9-5.7c-1.6-11.9-2.7-23.9-3.4-36c-0.9-14.9-1.8-29.8-3-44.6c-0.6-7.1-1.1-14.3-1.6-21.4h-2.5
	c0.5,7.1,1,14.2,1.6,21.2c1.2,15.9,2.1,31.7,3.1,47.6c0.4,5.7,0.8,11.4,1.4,17.1c0.7,7.6,1.9,15.1,2.7,22.6c0.1,0.6,0.4,1.3,0,1.8
	c-0.7,1.1-0.3,2,0.1,3c0.2,0.6,0.7,1.2,0.5,1.9c-0.4,0.3-0.8,0.1-1.2,0c-2.1-0.5-4.2-0.8-6.3-1c-11.6-1.2-23.3-2.4-35-3.6
	c-10.5-1.1-21-2.6-31.5-4.2c-9.2-1.4-18.4-2.9-27.6-4.2c-9.2-1.3-18.4-2.6-27.7-3.8c-6.3-0.8-12.7-1.5-19-2.2
	c-0.5-0.1-1.2-0.4-1.8,0.3c0.4,0.4,0.9,0.5,1.4,0.5c8,1.2,15.9,2.5,23.9,3.7c9.5,1.4,19,2.8,28.4,4.2c9.3,1.4,18.6,2.8,27.8,4.2
	c8.7,1.3,17.4,2.4,26.1,3.4c5.3,0.7,10.7,1,16,1.9c6,1,12,1.5,18,2.1c3,0.3,5.9,1.2,8.9,0.5c0.4-0.1,0.6,0.2,0.8,0.4
	c1.1,0.9,1.5,1,2.6,0.2c0.7-0.5,1.4-1,1.9-1.7c1.6-2,3.3-3.9,4.8-5.9c6.5-8.4,12.6-17.2,18.6-26c0.9-1.3,0.9-1.4,2.6-1
	c3.1,0.6,6.1,1.2,9.2,1.6c11,1.5,21.8,3.4,32.7,5.5c6.2,1.2,12.3,2.9,18.6,3.6c0.3,0,0.7,0.1,0.9,0.4c0.8,1.2,2,1,3.1,0.9
	c1.1-0.2,2.1-0.7,2.7-1.8c1.3-2.2,2.7-4.3,3.9-6.5c12.3-21.4,24-43.2,35.9-64.8c0.6-1.1,1.2-2.2,1.7-3.4c0.4-0.9,0.8-1.3,1.9-1.1
	c2.6,0.3,5.2,0.2,7.8-0.2c1.6-0.3,2.5-1.2,2.8-2.7c0-0.3,0.1-0.5,0.1-0.8c0.1-0.8,0.4-0.9,1.2-0.7c6.1,1.6,12.2,2.6,18.4,3.5
	c6.6,1,13.1,2.2,19.8,2.6c1,0,1.1,0.5,1,1.3c-0.2,1.7-0.3,3.5-0.2,5.2c0.1,2.5,1.1,3.7,3.5,4.5c1.8,0.5,3.6,0.8,5.5,0.7
	c2.3-0.1,3.5-1,4.3-3.2c0.4-1.3,0.7-2.6,0.8-3.9c0.1-1.5,0.4-1.7,1.8-1.4c5.9,1.2,11.9,2.3,17.9,3.1c2.5,0.3,4.9,0.3,7.5,0.2
	c-0.2-0.8-0.7-0.7-1-0.8c-1.8-0.2-3.6-0.4-5.3-0.7c-6.5-0.9-12.8-2.3-19.3-3c-1-0.1-1.2-0.6-1.1-1.4c0.3-2.8,0.4-5.7,0.4-8.6
	c0-1.3,0.1-1.4,1.4-1.1c3,0.6,6,1.2,9,1.8c7.2,1.4,14.3,3.1,21.7,3.2c0.5,0,1.2-0.1,1.7,0.5c-0.9,1.8-1.4,3.7-1.9,5.6
	c-0.7,3.2-1.5,6.4-1.8,9.6c-0.1,2,0.6,3,2.6,3.4c1.8,0.4,3.5,0.6,5.4,0.5c1.6-0.1,2.7-0.9,3.3-2.5c0.3-0.9,0.5-1.8,0.8-2.7l0,0
	c0.1-0.9,0.3-1.7,0.3-2.6c0.3-3.3,1.3-6.5,0.1-10c1.6,0.2,2.9,0.4,4.3,0.6c12.9,1.1,25.9,2.2,38.8,3.3c6.4,0.6,12.7,1.2,19.1,1.8
	c5.8,0.5,11.7,1.1,17.5,1.6c0.3,0,0.9,0.2,0.8-0.5c-0.3-0.1-0.6-0.1-1-0.2c-8.9-1.1-17.8-2.2-26.8-3.2c-12.5-1.5-25-2.6-37.6-3.5
	c-1.8-0.1-1.9-0.1-1.6-1.9c0.5-4,1-7.9,1.6-11.9c1.3-8,3-15.9,5.9-23.6c1-2.7,2.2-5.3,3.7-7.7c0.8-1.3,1.7-2.5,2.9-3.6
	c2.8-2.6,5.5-2.4,7.9,0.6c0.8,1,1.5,2.2,2,3.5c1,2.5,1.6,5.2,2,7.9c0.8,6.7,0.2,13.3-0.6,19.9c-0.7,5.1-1.6,10.1-2,15.2
	c0,0.5-0.3,1.1,0.3,1.8c0.6-0.7,0.6-1.4,0.8-2.1c0.5-2.4,1-4.8,1.4-7.2c1.3-7.4,2.4-14.9,2.2-22.4c-0.1-4.1-0.6-8.1-1.9-12
	c-0.6-1.9-1.5-3.7-2.7-5.3c-2.9-3.7-6.7-4.1-10.2-0.9c-1.1,1-2,2.1-2.8,3.4c-1.2,1.7-2.2,3.5-2.9,5.4c-5.2,12.6-8.2,25.6-8.1,39.2
	c0,1.4,0,1.5-1.4,1.4c-3.1-0.1-6.1-0.5-9.2-0.5c-2.8,0-3.1-0.3-3.1-3.1c0-0.6,0.1-1.2,0.2-1.8c0.3-3.1,0.7-6.2,1-9.3
	c0.8-7.9,1.6-15.9,2.3-23.9c0.4-4.6,1.1-9.1,0.9-13.7c0-1.1,0.2-1.9,1.2-2.7c1.8-1.3,2-2.5,1.2-4.7c0-0.1-0.1-0.2-0.1-0.4
	c-0.3-1.4,0.1-1.8,1.5-1.5c2.4,0.4,4.7,0.7,7.1,1c6.7,0.8,13.4,1.5,20,2.2c7,0.7,14.1,1.3,21.1,1c0.6,0,1.3,0.1,1.9-0.5
	c-4.2-1-8.5-1-12.7-1.5c-4.2-0.5-8.5-0.8-12.7-1.2c-4.3-0.4-8.6-0.9-12.9-1.3c-4.3-0.4-8.5-1-13-0.9c0.3-0.9,0.5-1.5,0.6-2.1
	c0.4-1.6,0.4-1.6,2-1.2c6.3,1.4,12.8,2,19.2,2.4c3.4,0.2,6.8,0.4,10.2,0.6c5,0.4,10,0.8,14.9,1.2c0.4,0,1,0.3,1-0.6
	c-4.7-0.9-9.4-1.6-14.2-2.1c-7-0.6-13.9-1.1-20.9-1.6c-3.6-0.3-7.1-0.7-10.7-1.1c-0.6-0.1-1.1-0.2-1-0.9c0.1-1-0.5-1.8-0.9-3
	c5.6,0.6,10.9,1.1,16.3,1.7c9.2,1.1,18.4,2,27.6,2.7c5.2,0.4,10.5,0.8,15.7,1.3c12.1,1.2,24,3.3,36,4.9c6.3,0.8,12.7,1.6,19.1,2.1
	c1.8,0.1,3.6,0,5.4-0.2c0.3,0,0.7-0.1,0.8-0.5c0.1-0.5-0.3-0.7-0.7-0.8c-1.8-0.3-3.5-0.6-5.3-0.8c-12.2-1.2-24.3-2.9-36.4-4.7
	c-7.6-1.1-15.2-2.1-22.8-2.6c-6.1-0.4-12.2-0.9-18.3-1.4c-7.4-0.5-14.7-1.4-22.1-2.2c-4.5-0.5-9-0.9-13.5-1.1
	c-0.9,0-1.4-0.2-1.3-1.3c0.2-2.1,0.3-4.1,0.5-6.2c0.1-0.8,0.5-1.4,1.1-1.8c1.9-1.2,3.5-2.7,5-4.3c0.7-0.8,1.4-1,2.5-1
	c7.4,0.6,14.7,1,22.1,1.4c11.3,0.7,22.6,1.4,33.9,2.3c8.8,0.7,17.6,1.5,26.5,2.2c6.8,0.5,13.5,1.1,20.3,1.1c2.1,0,4.1-0.2,6.1-0.9
	c0.6-0.2,1.6-0.3,1.5-1.1c-0.1-0.9-1.1-0.4-1.7-0.5c-0.1,0-0.1,0-0.2,0c-7,0.5-14-0.1-20.9-0.6c-7.3-0.5-14.6-1.2-21.9-1.8
	c-8.2-0.7-16.3-1.3-24.5-1.7c-8.9-0.5-17.8-1-26.7-1.5c-4.9-0.3-9.7-0.6-14.5-1c-6.9-0.6-13.8-1.2-20.7-1.8
	c-6.8-0.6-13.5-1.1-20.3-1.7c-2.4-0.2-4.7-0.5-7.1-0.8c0.2-0.6,0.6-0.8,0.9-1c5-3.6,9.5-7.7,14.1-11.8c5.1-4.6,10.1-9.2,15.2-13.8
	c4.3-3.9,8.9-7.6,12.9-12c1.3-1.4,3-2.3,5.2-1.7c1.4,0.4,2.9,0.4,4.3,0.6c12.5,1.2,25.1,1.9,37.6,2.8c8.3,0.6,16.6,1.1,24.9,1.7
	c10,0.7,19.9,1.3,29.9,1.8c7.2,0.3,14.5,0.5,21.8,0.8c2.6,0.1,5.2,0.2,7.8,0.3c0.8,0,1.9,0.3,2.2-0.9
	C545.2,122.9,544.4,122.5,542.9,122.3z M383.4,82.9c0.1-0.5,0-1.3,0.8-1.4c0.9-0.1,1.8,0.3,2.1,1.2c0.4,1.2,0.4,2.3,0.2,3.5
	c-0.1,0.5-0.4,0.8-0.9,0.9c-1.1,0.1-2.2,0.1-3.6-0.5C383.3,85.6,383.1,84.2,383.4,82.9z M171.2,57.7c2.8-0.8,5.6-1.1,8.5-0.5
	c2.4,0.5,2.8,1.1,2.3,3.4c-0.4,1.9-1,3.7-1.6,5.6c-1.1,3.5-0.4,6.4,2.2,8.9c1.2,1.2,2.5,2.4,3.6,3.8c0.9,1.2,0.8,1.6-0.5,2.3
	c-0.7,0.4-2.3,0.8-3.3,0.8c-1.1,0.1-1.8-0.6-2.2-1.6c-0.4-1.1-0.6-2.2-0.8-3.3c-0.5-4-2.3-7.3-5.3-10c-1.3-1.2-2.5-2.4-3.8-3.5
	c-0.2-0.2-0.4-0.4-0.5-0.6C167.4,60.3,167.8,58.7,171.2,57.7z M204,61.8c-2.5,3-4.3,6.4-5.9,9.9c-0.6,1.3-1.2,2.5-2.1,3.6
	c-0.5,0.6-1,1.2-1.9,0.9c-1-0.3-1-1.2-1-2c-0.1-5.5,4-11.2,9.3-12.9c0.6-0.2,1.2-0.6,1.9-0.4C204.4,61.3,204.2,61.5,204,61.8z
	 M212.1,53.5c-6.7-0.9-13.5-0.9-20.3-1.6c-9.3-0.9-18.6-1.5-28-1.8c2.1-0.8,4.4-1,6.6-1.3c8.1-1.1,16.1-1.5,24.3-1.2
	c5.2,0.2,10.5,0.6,15.6,1.9c1.4,0.3,2.7,0.7,3.9,1.5c0.9,0.5,0.9,0.8,0.2,1.5C213.8,53.3,213.1,53.6,212.1,53.5z M220,54.3
	c-2,1.1-4.3,1.7-6.6,1.9c0.4-0.3,0.8-0.8,1.3-0.8c1.9-0.2,1.7-1.9,2-3.1c0.3-1.2-0.7-2.1-1.7-2.6c-1.9-1.1-4-1.7-6.2-2.1
	c-7.3-1.6-14.6-1.8-22-1.7c-9.4,0.1-18.7,1.1-27.9,3.1c-1.6,0.3-1.7,0.2-1.9-1.3c-0.2-1.7,0.6-2.8,2.1-3.5c1.6-0.8,3.3-1.3,5.1-1.7
	c4.8-1.1,9.6-1.5,14.5-1.4c12.1,0.2,23.9,2.4,35.4,6.2c2.2,0.7,4.3,1.5,6.2,2.8C222.6,51.6,222.6,52.9,220,54.3z M391,126
	c2.1-3.5,2.1-3.5,7-3.2c-1.2,0.9-2.3,1.3-3.4,1.9c-1.1,0.6-2.3,1.1-3.6,1.8C391,126.1,391,126,391,126z M373.7,136.6
	c3.6-4.4,7.5-8.6,11.4-12.8c1-1.1,2-1.7,3.5-1.3c0.8,0.2,1.6,0,2.3,0.4c-0.1,0.7-0.6,1.2-1,1.7c-8.2,10.2-17.1,19.8-25.6,29.8
	c-1.2,1.4-2.4,1.9-4.1,1.4c-0.9-0.2-1.8-0.3-2.6-0.5c-0.1-0.5,0.2-0.7,0.4-0.9C363.4,148.5,368.7,142.7,373.7,136.6z M353.3,236.8
	c0,0.6,0.2,1.4-0.5,1.6c-0.7,0.2-1.6,0.1-2.4,0c-0.4-0.1-0.3-0.5-0.3-0.8c0.5-10,1.1-19.9,2-29.8c0.4-5,1-9.9,1-14.9
	c0-0.3,0.1-0.6,0.1-1.1c1,0.2,2.1-0.5,2.7,0.1c0.6,0.6,0.1,1.8,0.1,2.7C355.5,208.6,354.1,222.7,353.3,236.8z M353.2,242.3
	c-1.5-0.3-3.1-0.6-4.5-1.4c1.5-0.6,2.9-0.5,4.3-0.3c0.4,0,0.7,0.3,0.9,0.7C354.1,241.9,353.8,242.4,353.2,242.3z M355.2,188.4
	c-1.3,0-2.4-0.5-3.2-1.7c-0.2-0.4-0.5-0.8-0.5-1.7c1.3,0.7,2.5,0.9,3.7,1c0.5,0,1.3-0.3,1.3,0.7
	C356.7,187.7,356.2,188.4,355.2,188.4z M354.7,184.2c-2.2-0.2-3.4-1.5-4-4.7c3.1,0.3,6.1,0.4,9.2,0.9
	C358.8,183.4,357.4,184.4,354.7,184.2z M359.8,178.1c-1.4-0.1-2.8-0.3-4.2-0.4c-2.2-0.2-4.5-0.5-6.7-0.7c-1.1-0.1-1.6-0.5-1.5-1.6
	c0-0.3,0-0.7-0.1-1c-0.2-0.9,0.2-1.2,1.1-1.1c0.9,0.1,1.7,0,2.6,0c2.9,0.3,5.8,0.5,8.8,0.5c1.7,0,1.8,0.1,1.8,1.9c0,0.3,0,0.5,0,0.8
	C361.5,178,361.3,178.2,359.8,178.1z M315.7,167.5c-5.5-0.7-11-1.2-16.5-1.7c-0.6-0.1-1.4,0.1-1.7-0.3c-0.3-0.5-0.3-1.3-0.4-1.9
	c0-0.4,0.1-0.8,0.1-1.2c0-0.8,0.4-1,1.1-1c2.2,0.1,4.4,0.2,6.6,0.3c12.2,0.4,24.2,2.2,36.3,3.5c2.6,0.3,5.3,0.7,7.9,1
	c0.8,0.1,1.2,0.4,1.1,1.3c-0.1,0.5-0.1,1.1-0.2,1.6c-0.2,2.1-0.2,2.2-2.5,1.9C337,169.4,326.3,168.8,315.7,167.5z M344.1,174.6
	c-1.3,0-2.7,0-4-0.1c-10.2-1.1-20.4-1.8-30.6-3.2c-0.1,0-0.2-0.1-0.5-0.2c0.9-2.2,0.9-2.2,2.9-2c8.6,0.9,17.2,1.8,25.8,2.7
	c2.1,0.2,4.2,0.5,6.3,0.7c0.5,0.1,0.9,0.2,1,0.8C345.3,174.2,345,174.6,344.1,174.6z M295.5,160.7c0.1,0.2,0,0.4-0.1,0.6
	c-0.2,2.2-0.3,2.2-2.4,2c-2.6-0.3-5.3-0.2-8-0.3c-1.6,0-1.7-0.1-1.6-1.7c0.2-3.6,0.4-7.2,0.6-10.7c0-0.2,0.1-0.4,0.2-0.6
	c6.5,0.8,13-0.1,19.5,1.2c0.1,0.7-0.5,0.9-0.8,1.2c-2.2,2.1-4.3,4.1-6.5,6.1C295.8,159.1,295,159.6,295.5,160.7z M278.2,172.7
	c2.4,1.5,4.9,1.5,7.5,0.9c1.4-0.3,2.7-0.6,4.2-1c0,1.4,0.4,2.7,1.9,3.3c0.2,0.1,0.3,0.6,0.4,0.9c0.2,1.1,0.6,2.2,1.2,3.2
	c0.2,0.4,0.3,0.9,0.3,1.3c0,1.5-0.3,1.8-1.8,1.5c-4-0.5-8-1-12.1-1.3c-2.5-0.2-4.9-0.5-7.3-0.7c-2.4-0.2-2.4-0.2-2.4-2.5
	c0.1-4.2,0.3-8.4,0-12.6c-0.1-1.6-0.1-1.6,1.6-1.5c6.8,0.4,13.5,0.9,20.3,1c0.7,0,1.3,0,2,0c0.8,0.1,0.9,0.4,0.4,1
	c-1.3,1.7-3,3.2-3.7,5.4c-0.1,0.4-0.5,0.4-0.8,0.4c-1.6,0.3-3.3,0.5-4.9,0.8c-2.2,0.4-4.3,0.1-6.3-1.1c-1.4-0.8-3-1-4.5,0.1
	C275.7,171.6,277,171.9,278.2,172.7z M268.9,198.8c0.6-2,1.1-2.4,2.8-2.1C270.9,197.8,270.7,199.3,268.9,198.8z M270.3,200.2
	c0,0.7-0.2,1.2-1,1.1c-0.8-0.1-1.6,0.2-2.3-0.1c0.7-1.8,1-2.1,2.4-2C270,199.3,270.4,199.5,270.3,200.2z M271.3,195.9
	c-0.5-0.4-0.1-0.7,0.1-1c0.5-1,1.3-1.4,2.7-1c-0.5,0.9-1.1,1.5-1.7,2C272,196.2,271.6,196.1,271.3,195.9z M271.8,200.5
	c0-1,0.4-1.8,1.1-2.5c2-2.3,3.9-4.5,5.8-6.8c0.9-1.1,2-0.3,3-0.6c-0.3,2.6-6.7,12.2-9.9,14.9C271.8,203.7,271.8,202.1,271.8,200.5z
	 M272.8,193.2c0.2-0.9,1-1.5,1.4-2.4c0.4-0.9,1.3-0.4,2.1-0.2C275,193.1,274.9,193.2,272.8,193.2z M262.4,205.5c0-1.7,0.1-3.2,0-4.7
	c-0.2-1.8,1-2.8,1.9-4c1.5-1.9,3.1-3.8,4.5-5.8c0.4-0.6,0.9-0.9,1.6-0.9c0.8,0.1,1.7,0,3,0C269.6,195.5,266.1,200.3,262.4,205.5z
	 M225.1,217.9c0.2-0.2,0.3-0.4,0.5-0.6c4.4-4.4,8.9-8.8,13.3-13.2c0.2-0.2,0.3-0.4,0.7-0.3c-3.1,3.4-6.2,6.8-9.3,10.1
	c-1.2,1.3-2.4,2.7-3.6,4c-0.3,0.3-0.5,0.6-0.9,0.8c-0.1,0.1-0.5-0.1-0.7-0.3C225,218.3,225,218.1,225.1,217.9z M224.7,222.7
	c-0.3,0.6-1,0.7-1.6,0.5c-0.6-0.1-0.6-0.6-0.6-1.1c0-0.8,0.3-1.6,0.7-2.2c0.5-0.7,1.2-0.7,1.5,0.1
	C225.2,220.9,225.1,221.9,224.7,222.7z M226.7,218.9c6.2-5.8,11.7-12.2,17.5-18.3c3.3-3.4,6.4-6.9,9.6-10.4c0.5-0.5,0.9-1,2-0.5
	c-10,10.4-19.6,21-29.5,32C226.3,220.4,225.9,219.6,226.7,218.9z M250.8,187.1c-1.4-0.1-1.4-0.1-1.5-1.5c0-1.4,0-2.8-0.1-4.2
	c-0.1-1,0.3-1.3,1.3-1.2c2.9,0.3,5.8,0.6,8.7,0.9c2.6,0.3,5.3,0.5,7.9,0.7c1.7,0.2,1.7,0.1,1.6,1.7c0,0.8,0,1.6-0.1,2.4
	c0,1.9,0,1.9-2,1.9c-1.4,0-2.8,0-4.2,0c-2.1-0.3-4.2-0.5-6.4-0.6C254.4,187.2,252.6,187.2,250.8,187.1z M269.3,165.8
	c-0.1,4.6-0.2,9.2-0.3,13.7c0,1-0.6,1-1.3,1c-3.2-0.3-6.5-0.6-9.7-0.9c-2.4-0.2-4.8-0.5-7.1-0.8c-1.6-0.2-1.6-0.3-1.6-1.8
	c0-2.1,0-4.3,0-5.3c0.1-3.2-0.1-5.4-0.3-7.6c-0.1-1.3-0.1-1.3,1.3-1.2c5.8,0.5,11.7,0.9,17.5,1.4
	C269.2,164.3,269.3,164.3,269.3,165.8z M229.2,139.7c-0.1-3,0.1-3.4,2.8-5.7c0,0.9,0,1.8,0,2.7c0.2,5.8,0.2,11.6,0.8,17.3
	c0.1,0.6,0,1-0.5,1.4c-0.7,0.6-1.3,1.3-2.2,1.7c-0.6-0.6-0.4-1.3-0.4-1.9C229.6,150.1,229.4,144.9,229.2,139.7z M230.6,161.7
	c0.2-0.1,0.3-0.2,0.4-0.2c5.1,1,10.3,0.4,15.5,1c1.7,0.2,1.7,0.2,1.7,1.9c0,4.6-0.1,9.2,0.1,14c-1.2-0.1-2.4-0.2-3.6-0.4
	c-3.9-0.5-7.8-0.9-11.7-1c-0.8,0-1.4-0.1-1.5-1.1c-0.3-4.5-0.6-9-1-13.5C230.5,162.2,230.5,161.9,230.6,161.7z M232.6,178.1
	c5,0.6,10,1.2,15,1.8c0.5,0.1,0.8,0.3,0.9,0.9c0.1,1.7,0.2,3.4,0.3,5.2c0.1,0.9-0.4,1.1-1.2,1.1c-1.4-0.1-2.8-0.1-4.6-0.2
	c-2.6-0.2-5.6-0.4-8.7-0.7c-2.2-0.2-2.3-0.3-2.5-2.5c-0.1-1.5-0.1-3-0.2-4.6C231.6,178.3,231.9,178,232.6,178.1z M247.7,160.7
	c-5.2-0.4-10.3-0.5-15.5-0.5c-0.5,0-1.1,0-1.5-0.4c-0.1-0.6,0.4-0.8,0.7-1.1c2.5-2.2,5.2-4.4,7.5-6.8c0.3-0.3,0.6-0.6,1.2-0.5
	c5,1.2,10.1,1.5,15.4,2.3c-2.1,2.3-4.4,4.2-6.2,6.5c0,0,0,0,0,0C248.9,160.7,248.3,160.7,247.7,160.7z M267.2,162.2
	c-5.5-0.6-11-0.9-16.5-1.3c-0.6,0-1.2-0.2-1.4-0.8c0.7,0,1.1-0.6,1.6-1c1.6-1.4,3.2-2.8,4.5-4.5c0.5-0.6,1-1,1.8-0.9
	c6,0.6,12,1.2,18,1.8c0,0,0.1,0.1,0.3,0.4c-1,1.3-2.2,2.5-3.1,4C271.2,161.9,269.6,162.5,267.2,162.2z M298.2,126.7
	c0.2-0.2,0.5-0.2,0.9-0.1c0.1,1.3-0.4,2.6-0.5,4c0,0.2-0.3,0.5-0.4,0.6c-3.1,2.7-6.1,5.5-9.1,8.4c-0.1,0.1-0.2,0-0.6,0.1
	c-0.1-1.8-0.2-3.5-0.2-5.3c0-0.5,0.2-0.9,0.6-1.2C292.2,131.4,295.2,129.1,298.2,126.7z M291.6,128.2c-9.7-0.5-19.4-0.3-29.1-1
	c-1.7-0.1-3.5-0.2-5.2-0.1c-0.5,0-1,0.1-1-0.6c0-0.7,0.4-0.9,1-0.9c0.9,0,1.9,0,2.8,0c7.5-0.1,15-0.3,22.5,0
	c4.2,0.1,8.3,0.5,12.8,0.8C294.1,127.8,293,128.3,291.6,128.2z M348.3,150.3c0.4,0,0.6,0.2,0.6,0.6c-0.1,0.4-0.3,0.5-0.7,0.4
	c-0.4-0.1-0.6-0.3-0.5-0.7C347.8,150.4,348,150.3,348.3,150.3z M347.7,149c0.1-0.4,0.5-0.4,0.8-0.4c0.2,0,0.5,0.1,0.5,0.5
	c-0.1,0.4-0.5,0.4-0.8,0.4C348,149.4,347.6,149.4,347.7,149z M349.2,153c0.7,0.2,1.6-0.1,2.2,0.6c0.2,0.2,0.4,0.1,0.7,0
	c1-0.6,1.9-0.1,2.9,0.5c-1,1.1-0.7,2.4-0.8,3.6c-0.1,0.9-0.1,1.8-1.3,2c-0.4-0.4,0-0.8-0.1-1.2c-0.3-1-1.3-1.5-2.2-1.1
	c-0.1,0-0.3,0.1-0.3,0.2c-1.3,1.7-3.4,2.9-3.8,5.3c-0.1,0.6-0.3,1-1,0.9c-2.6-0.4-5.1-0.7-7.8-1c0.1-1,0.8-1.6,1.3-2.2
	c0.9-1.1,1.9-2,2.8-3.1c1.7-2.1,0.5-5.1-2.2-5.6c-1-0.2-2.1-0.4-3.3-0.6c0.6-1.6,2.1-1.7,3.2-2.4c0.1,0.2,0.3,0.3,0.3,0.4
	c0,2.3-0.2,1.8,2.1,2.7c0.7,0.2,1.4,0.4,2.1,0.5c1.1,0,1.7,0.9,2.6,1.2C347.2,153.6,348.2,152.6,349.2,153z M353.1,150.7
	c0.5,0.1,0.9,0.2,0.9,0.8c-0.1,0.4-0.3,0.5-0.7,0.5c-0.5-0.1-0.9-0.2-0.9-0.8C352.4,150.7,352.7,150.7,353.1,150.7z M353.4,149
	c0.3,0.1,0.6,0,0.5,0.4c0,0.1-0.3,0.3-0.4,0.3c-0.3,0.1-0.5-0.1-0.6-0.3C352.9,148.9,353.3,149.2,353.4,149z M352.5,166.2
	c-0.1-0.9,0-0.9,1.2-1.7c-0.1,2.2-0.3,4.2-0.4,6.3c0,0.5-0.3,0.9-0.9,0.8c-0.6-0.2-0.3-0.6-0.2-1
	C352.6,169.1,352.6,167.7,352.5,166.2z M350.4,164.5c0.5-1.3,1.7-2.4,3.7-3.4C352.8,162.5,351.9,163.6,350.4,164.5z M351.8,160.2
	c-0.3,0.8-0.9,1.2-1.5,1.5C350,159.9,350,159.9,351.8,160.2z M350.7,158.5c0.1-0.2,0.3-0.2,0.5-0.1c0.1,0,0.1,0.2,0.1,0.3
	c-0.1,0.2-0.3,0.2-0.5,0.1C350.7,158.8,350.7,158.7,350.7,158.5z M348.1,163.8c-0.1,0.1-0.3,0-0.4,0c-0.5-0.6-0.2-1,0.3-1.6
	C348.4,162.8,348.6,163.3,348.1,163.8z M324.8,157.4c-0.6,0.7-1.3,1.4-1.3,2.4c0,1-0.4,1.3-1.3,1.1c-1.5-0.2-3-0.3-4.6-0.5
	c-0.9-0.1-1.2-0.6-0.7-1.4c0.4-0.7,0.6-1.4,0.6-2.3c0-0.3,0-0.8,0.4-0.8c0.4,0,1-0.2,1.2,0.4c0.1,0.3,0.2,0.5,0.6,0.7
	c0.8-0.9,0.6-2,0.6-3.1c0-0.8,0.3-1.1,1.1-1c0.5,0,0.8,0.1,0.8,0.7c0,0.4-0.1,0.9,0.4,1.3c1.2-0.8,0.6-2.3,1-3.4
	c0.3,0,0.5-0.1,0.7-0.1c0.7,0,1.3,0.5,1.9,0.2c0.7-0.3,0.6-1.1,0.8-1.7c0.1-0.3,0.2-0.5,0.5-0.5c1.2,0.1,1.8-0.7,2.2-1.9
	c1.4,0.9,2.4,1.9,3.3,2.9c-0.1,0.2-0.2,0.4-0.3,0.4c-1.9-0.3-3,0.8-4.1,2.2C327.5,154.6,326.1,156,324.8,157.4z M327.9,159.6
	c-0.6,0.1-1.1,0.2-1.6-0.3C326.9,159,327.3,159.5,327.9,159.6z M316.7,155.6c-2.8-0.2-3.3,0.3-3.5,2.8c0,0.3,0,0.7,0,1
	c0,0.5-0.3,0.7-0.7,0.7c-1.3-0.1-2.6-0.2-3.9-0.3c0.1-0.7,0.6-0.8,1-1.1c2.3-1.9,4.5-4,6.6-6.1c0.5-0.5,1.1-1,1.6-1.5
	c0.4-0.3,0.7-0.9,1.3-0.6c0.8,0.4,0.4,1.2,0.5,1.8c0,0.3-0.2,0.5-0.5,0.5C317.1,152.8,316.5,153.9,316.7,155.6z M314.8,158.5
	c0.6,0.1,1.1,0.2,1.1,1c0,0.9-0.6,0.7-1.1,0.7c-0.6,0-1-0.2-0.9-0.9C314.1,158.8,314.1,158.4,314.8,158.5z M314.7,156.9
	c0-0.2,0.2-0.3,0.4-0.3c0.3,0,0.5,0,0.5,0.4c0,0.2-0.1,0.3-0.4,0.3C315,157.3,314.7,157.2,314.7,156.9z M318.6,145.9
	c0.2,1.5-0.1,2.4-1.2,3.3c-3.6,3-6.9,6.4-10.3,9.7c-1,0.9-1.9,1-3.2,0.4C309,155,313.6,150.4,318.6,145.9z M302.4,158.7
	c-1.3,1.3-2.5,0.5-4,0.3c0.4-0.8,1-1.2,1.6-1.7c3.1-2.7,6.1-5.6,9.3-8.1c1.6-1.2,3.1-2.6,4.5-4.2c0.9-1.1,1.8-1.2,2.9-0.6
	c0.2,0.1,0.5,0.2,0.9,0.4C312,149.2,307.2,154,302.4,158.7z M320.9,149.6c-0.8,0.1-0.9-0.4-0.8-1c0.1-1,0.1-2-0.3-3.1
	c1.9,0.3,3.6,0.5,5.3,0.8c0.4,0.1,0.5,0.4,0.5,0.7c0,0.7-0.1,1.5-0.1,2.2c-0.1,1.3-1,1.9-2.1,1.1
	C322.5,149.7,321.8,149.5,320.9,149.6z M322.3,151.3c-0.1,0.5-0.6,0.6-1.1,0.5c-0.3,0-0.5-0.2-0.4-0.5c0.1-0.5,0.5-0.8,1-0.7
	C322.1,150.6,322.4,150.9,322.3,151.3z M324.8,144.6c-1.9-0.4-3.9-0.8-5.8-1.2c-0.6-0.1-1-0.3-0.9-1c0.2-0.8,0.8-0.6,1.3-0.5
	c2.4,0.6,4.9,1.1,7.4,1.4c0.9,0.1,1.3,0.5,1.2,1.4c-0.1,0.8,0.1,1.7-0.3,3C327.1,145.1,327,145.1,324.8,144.6z M318.9,154.5
	c0,0.2-0.1,0.4-0.3,0.4c-0.4,0.1-0.7-0.1-0.7-0.4c-0.1-0.3,0.2-0.4,0.4-0.5C318.6,153.9,318.8,154.1,318.9,154.5z M334.2,153.2
	c0.3,1.9,0.5,3.4,0.7,5c-2.2,0.2-4.1-0.3-6.6-0.6C330.5,155.9,332.3,154.6,334.2,153.2z M336,160.7c-1.3,0.5-2.4-0.2-3.7-0.3
	C333.6,160.3,334.9,160.1,336,160.7z M336,153.1c1.3-0.1,2.4,0.3,3.7,0.6c-1,1.4-1.8,2.5-3,3.6C336.5,155.8,336.2,154.5,336,153.1z
	 M338.7,142.9c-0.8,0.4-1.5,0.9-1.9,1.7c-0.3,0.5-0.4,1.1-1.1,1.5c-0.2-0.9,0.3-1.5,0.3-2.1c0-0.4,0.1-0.8,0.1-1.2
	c-0.1-0.9-1-0.3-1.4-0.7c-0.4-0.5-0.1-1.6-1-1.6c-0.6,0-1.1-0.3-1.7-0.3c-0.5,0-0.6,0.5-0.5,0.9c0.1,0.6,0.3,1.2,0.5,1.7
	c0.2,0.5,0.4,1,0.7,1.8c-0.8-0.5-1.5-1.3-2.2-0.2c-0.2,0.3-0.7,0.1-0.8-0.5c0-0.2,0-0.4,0-0.6c0-1.9,0-1.9-2-2c-1.6,0-3.1-0.4-5-0.6
	c1.5-1.6,2.5-2.9,4.8-2.6c3.5,0.6,7,0.2,10.5,0.8c0.5,0.1,0.9,0.1,1.4,0.2c0.6,0.1,0.9,0.4,0.9,1.1
	C340.4,141.9,340.3,142.2,338.7,142.9z M338.2,136.6c-0.3,0.6-0.9,0.5-1.4,0.4c-3.4-0.6-6.9-0.3-10.3-0.7c-1.4-0.2-2.8-0.2-4.4,0.2
	c0.3-1.8,0.5-3.4,0.5-4.9c0-0.8,0.4-1.1,1.2-1.1c5.7,0.2,11.4,0.4,17.1,0.6c0.1,0,0.2,0.1,0.4,0.2
	C340.3,133.2,339.2,134.9,338.2,136.6z M323.1,138.4c-0.7,0.8-1.5,1.6-2.8,2.1C321.3,138.9,321.5,138.7,323.1,138.4z M321.2,127.4
	c-0.1,2.9-0.2,5.7-0.3,8.6c0,1.6-1.4,1.7-2.5,2.4c0-1.8,0-3.7,0-5.5c0-0.9,0.2-1.8-0.1-2.6c-0.7-2.4,0.6-3.4,2.5-4.1
	C321.4,126.5,321.2,127,321.2,127.4z M318.3,126.2c-0.2,0.3-0.6,0.2-0.9,0.2c-4.8-0.2-9.6-0.4-14.3-1c-0.3,0-0.7-0.1-1-0.5
	c1.2-1.9,2.7-2.8,5-2.7c4.2,0.2,8.4,0.2,12.5,0.9c0.4,0.1,0.9,0,1.1,0.4C319.9,124.4,319.1,125.3,318.3,126.2z M315.7,120.9
	c-2.8-0.3-5.6-0.2-8.4-0.4c-2.5-0.1-4.6,0.6-6.1,2.7c-0.2,0.2-0.3,0.4-0.5,0.6c-0.3,0.4-0.7,0.4-1.1,0.2c-0.4-0.2-0.2-0.6-0.1-0.9
	c1-3,2.1-6,3.2-9c0.4-1.1,1.1-1.6,2.3-1.5c1.8,0.2,3.6,0.3,5.4,0.5c3,0.4,6,0.7,9.2,0.9c-0.5,2.3-1.5,4.2-2.2,6.3
	C317.1,121.3,316.3,121,315.7,120.9z M300.7,134.9c0.4-1.8,0.4-3.7,0.6-5.5c0.1-0.6,0.2-1.2,0.3-1.8c0.1-0.8,0.5-1,1.3-0.9
	c4.7,0.9,9.5,1.2,14.2,1.1c0,2.5,0,4.9,0,7.3c0,1.8-0.2,3.6,0,5.4c0.1,1.2-0.6,2-1.9,2.2c-0.6,0.1-1,0.3-1.4,0.6
	c-1,0.8-2.1,1.6-3.5,2.7c0.4-4.9,1.3-9.3,0.7-13.8c-0.8,2-0.7,4.1-1,6.2c-0.3,2.3-0.7,4.6-0.7,6.9c0,2-1.1,3-2.7,4
	c0.6-5.5,0.9-10.7,0.5-15.9c0-0.2-0.1-0.5-0.5-0.6c-0.4,0.5-0.3,1.1-0.3,1.6c-0.3,4.2-0.5,8.4-0.7,12.5c0,0.5-0.1,1.1-0.1,1.6
	c0,0.7-0.4,1-1.1,0.8c-1.7-0.4-3.4-0.2-5.1-0.8C299.4,143.9,299.7,139.4,300.7,134.9z M297.6,135.8c-2.6,2.4-5,5-7.7,7.2
	c-0.2,0.2-0.4,0.3-0.7,0.5c-0.5-1-0.4-1.8,0.4-2.5c2.7-2.5,5.5-5.1,8.2-7.6c0.1-0.1,0.4-0.1,0.6-0.2
	C298.3,134.2,298.4,135.1,297.6,135.8z M297.6,138.4c-0.2,3.4-0.8,6.6-0.6,10.1c-3.5-0.2-7-0.1-10.5-0.2
	C290.5,145.5,293.8,141.7,297.6,138.4z M286.8,145.5c-0.2,0.2-0.4,0.4-0.6,0.5c-2.3,1.7-3.7,3.9-3.7,6.9c0,0.4,0,0.9-0.4,1.4
	c-0.7,0-1.5-0.1-2.4-0.5c2.2-5.2,4.6-10.2,6.9-15.4c0.2,1.9,0.4,3.9,0.6,5.8C287.4,144.8,287.2,145.2,286.8,145.5z M281.4,155.5
	c0.7,0,1,0.3,0.9,0.9c-0.1,1.9-0.3,3.9-0.4,5.8c0,0.6-0.3,0.8-0.9,0.8c-1.1,0-2.1,0-3.2-0.1c-2-0.1-4-0.3-6.3-0.4
	c1.7-2.3,3.2-4.3,4.6-6.4c0.3-0.4,0.7-0.5,1.2-0.5C278.8,155.5,280.1,155.5,281.4,155.5z M355.2,150c0.1-1.5-0.1-1.8-1.1-1.9
	c-1.6-0.2-2.3,0.2-2.6,1.6c-0.2,0.7,0,2-0.9,1.9c-1.1,0-0.6-1.3-0.6-2c0-0.9,0-1.6-0.9-2c-0.9-0.4-1.5,0.2-2.2,0.6
	c-0.5,0.4-0.8,0.9-0.9,1.5c-0.1,1.2-0.7,1.4-1.7,1.2c-3.1-0.6-2.9,0.3-2.5-3.2c0-0.4,0.1-0.8,0.1-1.2c-0.1-1.3,0.9-2,2-1.5
	c0.8,0.4,1.7,0.5,2.5,0.6c3.6,0.3,7.3,0.6,10.9,0.9c1.9,0.1,2.1-0.1,2.3-2.1c0.1-0.7,0.1-1.3,0.1-2c0-0.5,0.4-0.7,0.8-0.7
	c0.5,0,0.7,0.3,0.7,0.8c0,0.7,0,1.5,0,2.2c0,0,0,0-0.1,0c0,0.6,0.1,1.2,0.1,1.8c0,0.4,0,0.8-0.3,1.1c-1.2,1.4-2.5,2.8-3.7,4.2
	c-0.1,0.1-0.3,0.3-0.4,0.4c-0.8,0.5-1.6,0-1.7-0.9C355.2,150.9,355.2,150.4,355.2,150z M342.2,141c0.1-0.4,0.2-0.8,0.7-0.7
	c0.6,0.1,0.3,0.6,0.3,1c-0.1,0.5,0.1,1.1-0.6,1.3c-0.1,0-0.3,0-0.4,0C341.8,142,342.1,141.5,342.2,141z M346.5,140.7
	c3.7,0.4,7.4,0.8,11.1,1.1c0.7,0.1,1.1,0.3,1,1.1c-0.3,3,0.1,2.7-2.8,2.6c-0.4,0-0.8,0-1.2-0.1c0,0,0,0,0,0
	c-2.9-0.2-5.8-0.5-8.8-0.7c-1.1-0.1-1.6-0.4-1.6-1.6C344,140.4,343.9,140.4,346.5,140.7z M363.2,145c-0.1-1.1-0.2-2.2-0.4-3.3
	c-0.1-0.5,0.2-0.7,0.6-0.9c0.9-0.6,1.8-1.3,2.7-1.9C367,141.6,366.7,142.1,363.2,145z M366.5,135.6c-0.8,1.6-2.2,2.5-3.2,3.6
	c-0.3,0.4-0.7,0.2-1-0.1c-2.5-2.7-5.3-4.9-7.9-7.5C358.5,132.3,362.5,133.8,366.5,135.6z M351.5,131.8c0.4-0.2,0.8-0.5,1.2,0.1
	c1.8,2.6,4.3,4.5,6.7,7c-6.1-0.4-11.8-1-17.6-1.2c-0.1-0.1-0.1-0.3-0.2-0.4c1.4-0.8,2.8-1.5,4.1-2.3
	C347.7,133.9,349.6,132.9,351.5,131.8z M347.9,132c-2.5,1.4-4.6,2.6-6.8,3.8c-0.1-0.1-0.1-0.2-0.2-0.2c0.5-0.9,1-1.8,1.4-2.7
	c0.2-0.3,0.4-0.5,0.8-0.5C344.6,132.3,346,131.7,347.9,132z M292.5,91.4c0.4-0.6,0.9-1,1.5-1.3c1.2-0.5,2.3-0.2,2.7,1.1
	c0.5,1.6,0.7,3.2,0.9,5c-2.3,0.1-4.4-0.4-6.7-0.4C291.2,94.1,291.6,92.7,292.5,91.4z M266.5,90.2c0.5-0.5,1.1-1,1.9-0.9
	c0.9,0.2,0.9,1.1,1.1,1.7c0,0.1,0,0.1,0,0.2c0.7,3.7,0.7,3.8-3,3.8c-0.8,0-1.6,0.1-2.5-0.1C264.6,93.2,265.2,91.5,266.5,90.2z
	 M258.9,96.6c10.4-0.1,20.8-0.1,31.1,0.8c6.9,0.6,13.8,1.1,20.6,2.2c3.9,0.6,7.7,1.4,11.5,2.3c2.1,0.5,3.7,1.5,4.9,3.4
	c4.8,7.1,10,14,15.9,20.2c0.7,0.8,1.3,1.6,2.2,2.2c-1.4,1.6-2.9,2.2-5.1,1.9c-5.4-0.5-10.9-0.9-16.3-0.3c-0.9,0.1-1.3-0.1-1.2-1
	c0.1-1.5-0.4-3,0.4-4.5c0.5-0.9-0.2-1.5-1.1-1.8c-0.9-0.3-1.8-0.5-2.8-0.7c0.1-1.2,0.7-2.3,1-3.4c0.4-1.2,0.8-2.4,1.2-3.6
	c0.2-0.7,0-1.1-0.9-1.3c-4.9-1-9.9-1.3-14.9-1.7c-2.3-0.2-3.2,0.5-4.1,2.7c-1.2,3.2-2.3,6.4-3,9.7c-0.4,1.7-0.4,1.7-2.1,1.4
	c-11.3-1.9-22.7-1.4-34.1-1.1c-1.6,0-3.2,0.2-4.8,0.4c-1,0.1-1.2-0.2-1.2-1.1c0-1,0-2,0.1-3c0.3-7.4,0.7-14.8,1-22.1
	C257.4,96.7,257.4,96.6,258.9,96.6z M195.7,190.1c-1-20.8-1.1-41.7-1.4-62.5c-0.2-11.6-0.7-23.3-1.1-34.9c0-0.3,0-0.7,0-1
	c-0.3-1.6,0.4-2.4,1.8-3.1c16.3-8.5,32.8-16.5,49.6-23.9c2.7-1.2,5.4-2.6,8.1-3.9c1.4-0.7,2.6-1.6,3.8-2.6c0.7,0.8,0.6,1.6,0.7,2.4
	c0.3,4.3,0.1,8.7-0.1,13c-0.3,6.8-0.8,13.7-1.2,20.5c-0.3,4.6-0.5,9.1-0.7,13.7c-0.1,1.2-0.3,2-1.7,2.4c-2.2,0.6-3,2.6-3.2,4.6
	c-0.4,6.9-0.4,13.8-0.2,20.8c0.1,3.1,0.7,3.6,4.3,3.1c0,3.4,0,6.6,0,9.9c0,0.6-0.1,1.2,0.2,1.8c0.1,0.2,0.3,0.4,0.6,0.5
	c0.4,0.1,0.6-0.2,0.8-0.5c0.3-0.7,0.2-1.4,0.2-2.2c0-5.9,0-11.7,0-17.6c0-0.4,0-0.8,0-1.2c0.1-1.6,0.1-1.6,1.6-1.4
	c6.4,0.8,12.9,1.2,19.3,1.2c4.5,0,8.9,0.4,13.4,0.3c0.1,0,0.2,0.1,0.5,0.3c-0.9,0.8-1.8,1.6-2.7,2.2c-0.9,0.6-1.4,1.4-1.8,2.3
	c-2.7,6-5.4,11.9-8,17.8c-0.7,1.6-0.7,1.6-2.5,1.4c-7.6-0.8-15.2-1.5-22.9-2.2c-4.3-0.4-8.6-1-12.9-1.3c-0.9-0.1-1.5,0.1-2.2,0.6
	c-1,0.8-2,1.7-3,2.5c-0.6-0.4-0.5-0.9-0.5-1.3c-0.3-5.3-0.5-10.5-0.7-15.8c-0.1-1.2-0.1-2.4-0.3-3.6c-0.3-1.5-1.3-1.8-2.4-0.6
	c-2,2.3-3.7,4.7-3.5,8.1c0.3,5.6,0.5,11.3,0.8,17c0.4,7.8,0.8,15.6,1.2,23.3c0.1,1.9,1.1,3.7,1.1,5.6c0,0.8,0.8,1.3,1.6,1.5
	c1.3,0.4,2.7,0.6,4.1,0.7c4.2,0.4,8.5,0.8,12.7,0.9c1.2,0,2.5,0.1,3.7,0.7c-0.9-0.3-1.5,0.3-2.1,0.7c-1.1,0.8-2.1,1.7-3,2.6
	c-8.3,8.2-16.5,16.5-24.8,24.7c-0.2,0.2-0.3,0.4-0.9,0.3c-0.1-1.5-0.2-3.1-0.3-4.6c-0.2-2.7-0.3-5.5-0.5-8.2c0-0.4-0.1-0.8-0.2-1.2
	c-0.4-1.2-1.2-1.6-2.3-1c-0.7,0.4-1.3,0.9-1.9,1.4c-2.1,1.9-4.1,4-6.4,5.8c-1.2,1-1.7,2.3-1.7,3.9c0,3.1,0.3,6.1,0.6,9.2
	c0.4,3.9-0.1,7.7,0.1,11.6c0,0.4-0.2,0.8-0.4,1.1c-3.1,4.6-6.2,9.1-9.3,13.7c-0.1,0.2-0.3,0.5-0.7,0.4c-0.2-0.1-0.1-0.3-0.2-0.5
	C197.4,229.8,196.7,210,195.7,190.1z M252,118.1c-0.1-0.8,0-1.6,0-2.4c0-1.3,0.6-2.1,1.9-2.4c0.5,0.5,0.3,1.2,0.3,1.7
	c-0.1,6.2-0.2,12.3-0.3,18.5c0,0.6-0.1,1.2-0.2,1.8c-0.1,0.6-0.4,0.9-1,1c-0.4-0.7-0.3-1.3-0.2-2C252.5,129,252.4,123.6,252,118.1z
	 M217.7,207.4c-0.1-0.6,0-1,0.5-1.4c0.3-0.2,0.6-0.4,0.9-0.3c0.5,0.1,0.5,0.6,0.5,1c0.2,4.9,0.3,9.8,0.5,14.7c0,1.3-0.3,2.5-1.6,3.6
	c-0.3-1.1-0.2-1.9-0.3-2.6C218,217.4,218.4,212.4,217.7,207.4z M211.3,213.4c-0.1-1,0.2-1.5,1-2.1c1.3-1,2.5-2.2,3.9-3.4
	c0.4,0.9,0.3,1.5,0.3,2.2c0,3.6,0,7.2,0.1,10.8c0,1.1-0.1,2.2,0.2,3.2c0.7,2.2-0.2,3.8-1.7,5.2c-1,0.9-1.8,2-2.7,2.9
	c-0.1,0.1-0.2,0-0.4,0.1c-0.4-0.3-0.2-0.7-0.2-1.1C211.8,225.2,211.6,219.3,211.3,213.4z M260.6,263.8c-0.6,3.7-0.6,3.2-3.4,2.9
	c-4.8-0.5-9.7-0.9-14.5-1.4c-6.8-0.7-13.6-1.5-20.4-2.2c-6-0.6-12-1.2-18.1-1.9c-0.7-0.1-1.5,0-2.1-0.5c0.3-1.4,1-2.6,1.5-3.9
	c0.3-0.8,0.9-1.2,1.9-1.1c2.9,0.2,5.7,0.3,8.6,0.5c6.5,0.5,13,1.1,19.5,1.8c5.5,0.6,11,1.2,16.5,1.8c3.6,0.4,7.2,0.7,10.8,0.5
	c0.3,0,0.5,0,0.7,0.1c0,0.2,0.1,0.3,0.1,0.5c-0.5,2.4-0.6,2.5-3,2.3c-8.3-0.8-16.5-1.7-24.8-2.6c-8.4-0.9-16.8-1.6-25.2-2.4
	c-1-0.1-2.1,0-3.2,0.1C223.8,259.6,242.1,262.3,260.6,263.8z M258.7,270.9c-0.1,0.5-0.2,0.8-0.2,1.1c-0.1,0.8-0.5,1.1-1.4,0.9
	c-8.3-1.4-16.6-2-25-3.1c-9.9-1.3-19.9-2-29.9-1.8c-0.7,0-1.3-0.1-2.3,0.4c10,0.5,19.6,0.7,29.2,1.8c9.6,1.1,19.1,2.3,28.6,3.4
	c0.3,0.7,0,1,0,1.4c-0.1,0.8-0.6,1.1-1.4,1c-5.9-0.6-11.8-1.2-17.7-1.8c-7-0.7-13.9-1.5-20.8-2.2c-5.4-0.5-10.9-1.1-16.3-1.3
	c-0.7,0-1.3-0.1-2,0.3c6.4,1,12.8,1.4,19.2,2c6.4,0.6,12.7,1.2,19.1,2c6.4,0.8,12.8,1.2,19.1,1.8c0.1,0.3,0.1,0.4,0.1,0.4
	c-0.4,2.6-0.4,2.5-3,2.2c-4.8-0.5-9.5-1-14.3-1.4c-7.4-0.7-14.7-1.7-22-2.6c-5.7-0.7-11.4-1.4-17-2.1c-0.6-0.1-1.2-0.2-1.9,0.1
	c3,0.7,5.9,1,8.8,1.4c7.9,1.1,15.8,2.1,23.8,3.1c7.3,0.9,14.6,1.6,21.9,2.2c0.7,0.1,1.5,0.1,2.2,0.2c0.4,0.1,0.8,0.1,0.7,0.7
	c-0.1,0.6-0.3,1-1,0.9c-0.2,0-0.4-0.1-0.6-0.1c-15.4-2-30.9-3.8-46.4-5.1c-3.4-0.3-6.9-0.7-10.7-1.1c0.9,0.6,1.5,0.7,2.2,0.8
	c6.3,0.9,12.6,1.4,18.9,2c6.7,0.6,13.4,1.4,20,2.2c5.2,0.6,10.3,1.2,15.5,1.8c0.4,0,0.8,0.1,1.2,0.2c0.1,0,0.2,0.2,0.2,0.3
	c0,0.2-0.1,0.4-0.3,0.4c-0.4,0-0.8-0.1-1.2-0.1c-11.8-1.3-23.7-2.6-35.5-3.9c-7.2-0.8-14.4-1.7-21.6-2.1c-0.2,0-0.4-0.1-0.7-0.1
	c0.3-1.9,1.3-3.6,1.9-5.4c0.4-1.5,1-3,1.7-4.5c0.4-0.9,0.3-2,1.4-2.5c-0.5-0.9,0.2-1.7,0.5-2.5c0.2-0.8,0.7-0.9,1.5-0.8
	c6.5,1.1,13.1,1.6,19.6,2.3c6.6,0.7,13.2,1.4,19.9,2.1c5.3,0.6,10.6,1.1,15.9,1.5c0.6,0,1.5-0.3,1.4,0.8c-0.1,1.5-0.6,2.2-1.7,2.1
	c-6-0.6-11.9-1.3-17.9-2c-8.5-1-17.1-1.9-25.6-2.6c-3.2-0.3-6.4-0.5-9.6-0.8c-0.6,0-1.3-0.1-1.9,0.2
	C221.6,266.6,240.1,269.1,258.7,270.9z M206.5,288.9c7.1,0.8,14.1,1.8,21.2,2.6c7.7,0.9,15.3,2.4,23,2.6c0.6,0,1.4-0.2,1.4,0.9
	c-0.1,1.3-0.6,1.8-1.6,1.7c-2.7-0.4-5.4-0.7-8.1-1.2c-8.8-1.5-17.6-2.5-26.5-3.5c-6.5-0.7-13.1-1.5-19.6-2.2
	c-0.8-0.1-1.6-0.2-2.4,0.1c19.1,2.5,38.3,4.3,57.3,7.7c-0.1,1.5-0.1,1.6-1.6,1.3c-7.5-1.4-15-2.5-22.5-3.4c-7-0.9-14-1.5-21-2.3
	c-5.3-0.6-10.7-0.8-16-1.7c0,0,0,0,0,0c1-1.6,1.6-3.5,2.3-5.3c0.6-1.5,0.6-1.5,2.2-1.4c5.2,0.4,10.3,0.9,15.5,1.4
	c7.5,0.7,15.1,1.6,22.6,2.6c4.5,0.6,9,1.2,13.5,1.8c2.3,0.3,4.6,0.4,6.9,0.6c0.4,0.5,0.1,0.8,0,1.2c-0.1,1-0.8,1.2-1.7,1.1
	c-3.2-0.4-6.5-0.6-9.7-1c-11.9-1.5-23.8-3-35.6-4.5c-3-0.4-6.1-0.6-9.1-0.8c-0.9-0.1-1.8,0-2.7,0.2
	C198,287.9,202.3,288.4,206.5,288.9z M245.6,314.8c-3.2-0.7-6.2-1.3-9.3-1.8c-13.8-2.1-27.5-4.5-41.4-6.1c-2.9-0.3-5.8-0.5-8.7-0.8
	c-1.8-0.2-1.8-0.1-1.1-1.9c0.1-0.2,0.2-0.5,0.3-0.7c0.8-2.5,0.7-2.1,2.9-1.8c3.5,0.5,7,0.8,10.5,1c12.7,0.9,25.4,2,38,4.3
	c3.1,0.6,6.3,0.9,9.5,1.1c1.9,0.1,1.9,0.2,1.4,2c-0.4,1.3-0.7,2.6-1.1,3.8C246.4,314.6,246.1,314.9,245.6,314.8z M245.8,316.9
	c-0.3,0.7-0.8,0.4-1.3,0.3c-2.6-0.5-5.2-1-7.9-1.4c-8.5-1.3-17.1-2.6-25.6-3.8c-6.5-0.9-13-1.9-19.6-2.6c-2.6-0.3-5.2-0.4-7.9-0.7
	c0.6-2.6,0.6-2.5,2.9-2.2c4.4,0.7,8.8,1.2,13.2,1.8c8.5,1.1,17,2.5,25.4,3.8c6.6,1,13.1,2,19.7,3C246,315.4,246.3,315.9,245.8,316.9
	z M246.9,307.6c-6.3-1-12.6-2-18.9-3c-6.8-1.1-13.6-1.7-20.4-2.3c-6.4-0.5-12.9-1-19.3-1.3c-0.1,0-0.3,0-0.4,0
	c-0.5-0.1-1.3,0.2-1.2-0.8c0.1-1,0.7-1.6,1.6-1.4c1.8,0.4,3.6,0.4,5.4,0.5c12.5,0.7,24.8,2.9,37.2,4.6c5.9,0.8,11.8,1.7,18,2.1
	C248.3,307.8,248.3,307.9,246.9,307.6z M247.1,305.1c-11.5-1.4-23-2.9-34.4-4.6c-7.6-1.1-15.3-1.7-23.1-1.9c-0.7,0-1.3,0.1-2.1-0.3
	c0-0.3,0.1-0.5,0.1-0.7c0.7-1.9,0.7-1.9,2.7-1.7c3.5,0.3,7,0.6,10.5,0.8c6.4,0.5,12.7,1.4,19,2.2c9.7,1.3,19.4,2.7,29.1,3.8
	c0.2,0,0.4,0.1,0.5,0.2C249.2,305.3,249.2,305.4,247.1,305.1z M248.9,302.3c-13.7-2.4-27.5-4-41.3-5.8c-5.5-0.7-11.1-1-16.7-1.3
	c-0.7,0-1.3,0.1-2-0.2c-0.1-1.3,1-2.3,1-3.6c0.6,0.6,1.4,0.9,2.2,1.1c4.1,0.7,8.3,1.1,12.5,1.5c13.2,1.2,26.3,2.6,39.4,4.7
	c1.8,0.3,3.7,0.6,5.5,0.8c1,0.1,1.1,0.6,0.8,1.4C250.1,301.6,250.2,302.5,248.9,302.3z M252.2,290.6c-4.2-0.3-8.3-0.9-12.5-1.5
	c-9.7-1.4-19.5-2.5-29.3-3.5c-5.7-0.5-11.4-1-17.1-1.2c-0.2-0.5-0.1-0.9,0.1-1.2c0.8-2.1,0.6-2,2.7-1.7c4.5,0.6,9,0.9,13.5,1.4
	c8.1,0.8,16.3,1.7,24.4,2.6c6.2,0.7,12.4,1.5,18.6,2.5c0.6,0.1,1.4-0.1,1.2,1C253.6,290.3,253.3,290.6,252.2,290.6z M193.8,277.3
	c-0.1-0.5,0.1-0.9,0.2-1.3c2.5-6.4,5-12.9,7.5-19.3c0.2-0.5,0.2-1.5,1-1.2c0.9,0.4,0.1,1-0.1,1.5c-2.8,6.2-4.9,12.6-7.5,18.8
	C194.7,276.5,194.7,277.3,193.8,277.3z M253.1,287.6c-9.9-2.3-20.1-3-30.2-4.2c-9-1.1-18-1.8-27-2.5c-0.4,0-0.8-0.1-1.1-0.1
	c-0.2-0.5,0-1,0.1-1.4c0.2-0.8,0.6-1.1,1.6-1c7.9,1,15.7,1.9,23.6,2.8c6.6,0.8,13.2,1.5,19.8,2.1c4.7,0.5,9.4,1.3,14.1,1.3
	c0.8,0,1.1,0.4,0.9,1.1c-0.1,0.4-0.2,0.8-0.3,1.2C254.2,287.7,253.7,287.8,253.1,287.6z M204.7,253.6c-0.4,0.4-0.9,0.8-1.8,0.6
	c3.2-4.3,6.4-8.4,9.5-12.6C212.1,243.3,206.4,252,204.7,253.6z M207.6,244.8c-1.7,2.2-3.3,4.5-5,6.7c-0.8,1.1-0.8,1.1-2.4,0.8
	c0-0.1-0.1-0.3,0-0.4c2.5-3.7,5.1-7.5,7.6-11.2c1.2-1.7,1.2-1.7,3.6-1C210.1,241.6,208.8,243.2,207.6,244.8z M151.2,346.6
	c5.3-6.4,10.2-13.2,15.1-19.9c2.1-2.8,4.3-5.5,6.4-8.1c2.6-3.2,4.7-6.7,6.1-10.7c5.2-14.7,11-29.1,15.9-43.9c1.1-3.3,3-6.2,4.1-9.5
	c0.3-0.9,1-0.8,1.7-0.6c0.7,0.2,0.8,0.8,0.6,1.5c-0.1,0.4-0.3,0.7-0.5,1.1c-6,14.5-11.6,29.2-17.6,43.7c-1.9,4.5-3.4,9.2-4.7,14
	c-0.2,0.8-0.5,1.6-1.1,2.3c-5.3,5.7-9.9,11.9-14.6,18c-3.1,4-6.2,8-9.3,12c-0.5,0.7-1,1.4-1.9,1.9
	C150.9,347.7,150.5,347.3,151.2,346.6z M178.5,317.4c-4.2,5.4-7.9,11.2-11.9,16.7c-3,4.1-5.9,8.2-9.1,12.1c-0.9,1.1-1.9,2.2-2.9,3.3
	c-0.6,0.6-1.2,1.1-2.2,0.7c8.6-11.2,17.2-22.2,25.8-33.3c0-0.1,0.2,0,0.4,0C178.8,317.1,178.6,317.3,178.5,317.4z M179.6,315.1
	c0,0.1-0.2,0.1-0.3,0.2c-0.2-0.1-0.2-0.3-0.2-0.5c3.9-12,8.7-23.6,13.4-35.2c0.3-0.8,0.4-1.7,1.1-2.2c0.1,0.5,0.2,1,0,1.7
	C188.7,290.9,184.1,303,179.6,315.1z M244,323.3c-0.2,0.8-0.8,0.7-1.4,0.6c-3-0.6-6-1.1-9-1.7c-11.2-2.1-22.5-4.3-33.7-6.4
	c-4.8-0.9-9.7-1.5-14.6-2.1c-0.5-0.1-1-0.2-1.6,0.2c3.8,0.9,7.5,1.4,11.3,2.1c9.8,1.6,19.5,3.7,29.2,5.5c6,1.2,12,2.3,18.1,3
	c1.4,0.2,1.6,0.5,1.2,1.6c-0.3,0.8-0.7,0.6-1.3,0.5c-3.2-0.6-6.4-1.2-9.6-1.9c-13.5-2.9-27.2-5.3-40.9-7.1c-3.3-0.4-6.6-1.1-9.9-1.6
	c-0.8-0.1-1.3-0.3-0.8-1.3c0.7-1.6,1.3-3.2,1.9-4.8c0.4-0.9,1.2-0.7,1.9-0.6c3,0.4,5.9,0.9,8.9,1.4c9.7,1.4,19.5,2.8,29.2,4.3
	c5.9,0.9,11.8,1.7,17.8,2.6c1.6,0.2,3.2,0.1,4.8,0.7C245,320,244.4,321.6,244,323.3z M248.2,322.8c-0.5,1.6-0.9,3.2-1.4,4.8
	c-0.1,0.4-0.3,0.8-0.8,0.8c-0.5,0-0.5-0.6-0.7-0.9c-0.5-0.7,0-1.4,0.1-2.1c1.1-4,2.2-7.9,3.3-11.9c1.8-6.5,3.7-12.9,5.4-19.4
	c2-7.3,4.2-14.5,6.5-21.8c1.4-4.4,2.7-8.9,3.2-13.6c0.2-1.5,0.2-1.5,1.5-1.5c1.4,0,1.4,0.1,1.1,1.5c-2.3,10.3-5,20.4-7.9,30.5
	C255.5,300.6,251.4,311.5,248.2,322.8z M274.9,277.2c-0.1-1.2-0.3-2.1-0.3-2.9c-0.2-3.3-0.4-6.6-0.5-10c-0.1-1.4,0.1-2.8,1.8-3.9
	c0.1,3,0.2,5.6,0.3,8.2c0.1,1.5,0.1,2.9,0.2,4.4C276.6,274.6,276.1,275.7,274.9,277.2z M289.3,241.4c-0.1,2.3,0,4.7-0.5,7
	c-0.1,0.4-0.2,1,0,1.4c0.8,1.4,0,2.5-0.6,3.7c-3.2,5.8-6.4,11.5-9.6,17.3c-0.2,0.3-0.2,0.8-1,0.8c0-0.6,0-1.3,0-1.9
	c0-2.9,0-5.9-0.4-8.8c-0.1-0.8-0.1-1.8-0.9-2c-0.7-0.2-1.3,0.6-1.9,1c-1.4,1.1-1.8,2.6-1.7,4.3c0.2,4.2,0.3,8.4,0.7,12.6
	c0.2,2.3-0.2,4.3-1.4,6.3c-7.2,12.6-14.2,25.3-21.3,37.9c-0.2,0.4-0.4,1-1,1.2c0.3-1.6,0.8-3.1,1.3-4.6c4.6-12.9,8.6-26,12.4-39.2
	c1.9-6.7,3.4-13.6,5-20.4c0.3-1.1,0.7-2.1,1.4-3c0.8-1.1,1.5-2.2,2.2-3.3c5.4-9.3,10.8-18.5,15.9-28c0.7-1.3,1.3-2.6,2-3.9
	c0.3-0.6,0.7-1.1,0.4-1.9c-1,0-1.3,0.8-1.7,1.4c-1.4,2.1-2.7,4.3-4,6.5c-5.5,9.4-11,18.8-16.4,28.3c-0.9,1.6-1.9,2-3.5,1.6
	c-0.1-0.3-0.1-0.5,0-0.7c3.3-4.3,5.8-9.1,8.7-13.6c5-8,10.1-16,15.1-24c0.7-1.2,1.4-2.4,2-3.7c0.2-0.3,0.2-0.7-0.1-0.9
	c-0.4-0.3-0.8-0.1-1,0.2c-0.6,0.8-1.2,1.6-1.8,2.4c-5.6,8.1-10.7,16.5-15.9,24.9c-2,3.2-4,6.5-5.9,9.7c-1.4,2.3-2.8,4.6-3.2,7.4
	c-0.2,2-0.5,2-2.4,1.6c-3.8-0.6-7.6-0.7-11.3-1.2c-5.6-0.6-11.3-1.2-16.9-1.8c-8.1-0.9-16.2-1.5-24.3-1.8c-0.4,0-0.9,0.1-1.4-0.4
	c1.4-1.7,2.6-3.4,3.8-5.2c1.1-1.7,2.1-3.4,3.3-5c1.2-1.6,0.6-3.2,0.3-4.8c-0.1-0.4-0.5-0.6-0.9-0.7c-0.3,0-0.5,0-0.8,0
	c-0.6-0.1-1.5,0.4-1.7-0.5c-0.2-0.7,0.4-1.4,1-1.9c2.7-2.4,4.9-5.3,7.3-7.9c0.4-0.4,0.8-0.9,1.2-1.4c0.9-1.2,1.6-2.2,3.5-1.7
	c1.1,0.3,2.4-0.2,3.3-1.1c1.2-1.2,2.5-2.4,3.7-3.7c8.8-10,18-19.6,27-29.5c0.5-0.5,0.8-1,1.6-1c2.6,0.2,5.2,0.3,7.8,0.4
	c0.2,0,0.4,0.1,0.7,0.2c-0.9,1.5-2,2.7-3.1,3.9c-3.2,3.5-3.5,7.8-3.4,12.1c0,0.5,0.1,0.9,0.7,1.1c0.5,0.1,0.7-0.2,0.9-0.6
	c0.2-0.3,0.4-0.5,0.6-0.8c0.7-1.3,1.7-1.7,3.2-1.3c1.1,0.3,2.2,0.3,3.4,0.1c-0.8-0.9-0.8-0.9-4.5-1c0.8-1.8,0.8-1.8,2.5-1.6
	c2.7,0.2,2.7,0.2,2.6,2.9c0,0.8-0.1,1.6-0.1,2.4c0,0.5,0,1,0.6,1.1c0.5,0.2,0.9-0.1,1.2-0.5c0.3-0.4,0.6-0.7,0.9-1.1
	c3.9-5,7.9-10.1,11.8-15.2c0.6-0.8,1.2-1,2-0.9c1.1,0.1,2.1,0.1,3.2,0.1c0.5,0,1,0,1.4-0.2c0.5-0.2,0.6-0.7,0.1-1.1
	c-0.8-0.6-1.7-0.6-2.7-0.7c-1.5-0.2-3-0.3-4.6-0.4c-4-0.2-8-0.4-12-0.5c-0.5,0-0.9,0-1.4-0.1c-0.6,0-1-0.3-1-1c0-1.3,0-2.7,0-4
	c0-0.7,0.4-0.9,1-0.9c1.5,0.1,2.9,0.2,4.4,0.4c5.2,0.5,10.5,0.9,15.7,1.4c0.7,0.1,1.4,0.2,2.2,0.3c-0.2,2.4-0.5,4.8-0.7,7.1
	c-0.3,3.8-0.7,7.7-0.8,11.6C291.4,215.8,290,228.6,289.3,241.4z M299.2,249.7c-2,0.2-4,0.4-6,0.3c-0.7,0-1.3,0.1-1.9-0.5
	c-0.3-0.3-0.9,0-0.9-0.6c0-0.5,0-1.1,0.2-1.6c0.2-0.5,0.7-0.2,1.1-0.2c2,0.2,4,0.4,5.9,0.5c1,0.1,2,0,3.1-0.2
	C300.8,249.5,300.8,249.5,299.2,249.7z M300.8,242.7c0,0.3-0.1,0.5-0.1,0.8c-0.4,2-0.7,2.3-2.8,2.3c-1.7-0.1-3.3-0.2-5-0.4
	c-1.7-0.2-1.8-0.3-1.7-2c0.1-3.3,0.4-6.6,0.6-10c0.4-7.2,1-14.3,1.2-21.5c0-0.4,0-0.8,0-1.2c0-0.8,0.4-1,1.2-0.9
	c1.2,0.3,2.4,0.3,3.6,0.4c1.4,0.1,2.8-0.1,4-0.5c0.3,0.4,0.3,0.7,0.3,1C302.3,221.4,301.8,232.1,300.8,242.7z M302.2,192.3
	c-0.3,4.3-0.7,8.6-1,12.9c0,0.6-0.1,1.2-0.3,1.8c-0.1,0.8-0.6,1.2-1.4,1.1c-1.4,0-2.8,0-4.2-0.1c-1.5-0.1-1.9-0.6-1.9-2.2
	c0-2.3,0.2-4.5,0.3-6.8c0.2-4.3,0.5-8.5,0.3-12.8c0-0.2,0.1-0.4,0.2-0.7c2.7,1.9,5.5,2.5,8.4-0.2
	C302.4,187.9,302.4,190.1,302.2,192.3z M299.4,183.4c-1.5,0.1-3-0.2-4.1-1.4c1.7,0.4,3.5,0.2,5.4,0.3
	C300.6,183.2,300,183.4,299.4,183.4z M300.3,185c-1,0.9-1.5,1-2.8,0.8c-1-0.2-1.9-0.5-2.6-1.7C296.9,184.7,298.5,185.3,300.3,185z
	 M299.6,180.4c-0.1,0-0.1,0-0.2,0c-3.8,0.4-4.9-0.6-5.7-4c2.7,0.2,5.3,0.5,7.9,0.7c0.9,0.1,1,0.5,0.7,1.2
	C301.8,179.5,301,180.3,299.6,180.4z M292.2,174.2c-0.4-0.1-0.5-0.4-0.4-0.9c3.7,1,7.5,1.3,11.2,2
	C299.4,174.9,295.7,175.1,292.2,174.2z M293.5,172.3c-1.3-0.3-1.4-0.6-0.7-1.8c0.1-0.2,0.3-0.4,0.5-0.7c0.6-0.9,1-2,1.8-2.6
	c0.9-0.6,1.9,0.5,2.9,0.5c2.9,0.2,5.8,0.6,8.7,0.9c0.4,0,0.8,0,1.4,0.4c-1.2,1.3-2.4,2.6-3.6,3.9c-0.4,0.4-0.9,0.6-1.4,0.5
	C299.9,173.4,296.7,173,293.5,172.3z M336.4,250.1c0,1-0.4,1.3-1.3,1.2c-2.9-0.4-5.8-0.8-8.7-1.3c-5.8-0.9-11.6-1.9-17.3-2.9
	c-0.5-0.1-0.9-0.2-1.4-0.3c-0.6-0.1-0.9-0.3-0.8-1.1c1.5-9.2,1.4-18.6,2.3-27.8c0.5-5.2,1-10.3,2.4-15.4c0.6-2.1,1.4-4.2,2.5-6.1
	c1.6-2.6,3.8-4.5,6.6-5.6c5-1.9,9.9-0.5,13.1,3.8c1.9,2.6,3,5.6,3.7,8.8c1.2,5.1,1.4,10.3,1.3,15c0,8.7-1,16.9-1.9,25.1
	C336.7,245.9,336.5,248,336.4,250.1z M343.8,250.9c0,0.2-0.1,0.4-0.1,0.6c-0.1,0.7-0.4,1.1-1.2,0.9c-0.3-0.1-0.7-0.1-1-0.2
	c-3.3-0.4-3.3-0.4-2.9-3.8c1.1-11.2,2.6-22.4,2.2-33.6c-0.2-4.9-0.7-9.8-2.3-14.5c-0.7-2-1.5-3.8-2.7-5.6c-4.2-6.2-11.4-7.8-17.9-4
	c-3,1.7-5.1,4.3-6.5,7.4c-1.6,3.5-2.4,7.2-3,10.9c-1.1,7.3-1.5,14.7-2,22.1c-0.3,5.1-0.6,10.2-0.9,15.5c-2.4-0.1-2.3-0.1-2.4-2.2
	c-0.1-5.2,0.4-10.4,0.7-15.6c0.3-5.8,0.3-11.6,0.2-17.4c-0.1-10.7,0.3-21.4,0.6-32.1c0-1,0.1-1.9,1.1-2.6c0.8-0.5,1.2-1.6,1.6-2.5
	c0.4-0.9,0.8-1.2,1.8-1c6.2,1.5,12.5,1.7,18.8,2.4c3.4,0.4,6.8,0.7,10.1,1c2,0.2,4,0.4,6,0c0.7-0.1,1.2-0.1,1.3,0.7
	c0.2,1.3,1.1,1.7,2.3,1.8c1,0.1,1.5,0.4,1.5,1.4c0,0.3,0.1,0.5,0.2,0.8c1.2,2.2,1,4.7,1.5,7.1c0.1,0.3,0,0.6,0.2,0.8
	c1,1.5,0.7,3,0.5,4.6c-0.8,8.9-1.6,17.8-2.3,26.7c-0.4,4.8-0.7,9.6-0.9,14.3c-0.1,1.7-0.5,3.1-1.5,4.4c-0.6,0.8-1.2,1.6-1,2.7
	c0,0.2,0,0.4-0.1,0.6C344.3,245,344.2,248,343.8,250.9z M355.9,244.8c0.1,5-0.4,9.9-1.1,14.9c-0.1,0.6-0.3,1.2-0.4,1.7
	c-0.3,1.2-1.1,1.7-2.3,1.8c-1.7,0.1-3.3-0.3-4.9-0.7c-1.2-0.3-1.8-1.1-1.9-2.3c0-0.4-0.1-0.8-0.1-1.2c0-5.3,0.7-10.6,1.3-15.9
	c3.1,0.4,6,2.2,9.2,1C356,244.3,355.9,244.6,355.9,244.8z M391.2,248.8c-6.6-1.1-13.1-2.3-19.6-3.7c-2.2-0.5-4.4-0.9-6.7-1.3
	c-0.7-0.1-1-0.5-0.9-1.2c1-10.9,1.4-21.9,4.3-32.6c0.8-3,2-5.8,3.6-8.4c1.1-1.8,2.4-3.5,4.1-4.9c0.8-0.7,1.7-1.3,2.7-1.7
	c2.3-0.9,4.2-0.3,5.5,1.8c1.3,2,1.8,4.3,2.1,6.6c0.8,5.5,0.4,11-0.2,16.5c-0.9,7.4-1.9,14.8-2.8,22.2c-0.2,1.4-0.3,2.9,0.2,4.6
	c0.9-0.9,1-1.8,1.1-2.5c1.7-10.6,3.5-21.1,3.9-31.9c0.1-3.9,0.1-7.7-0.8-11.5c-0.4-1.7-0.9-3.3-1.9-4.8c-1.9-2.9-4.6-3.7-7.8-2.3
	c-2.1,0.9-3.8,2.4-5.3,4.2c-2.6,3.1-4.3,6.7-5.5,10.5c-1.6,5-2.4,10.2-3.1,15.4c-0.5,4.5-1,9-1,13.5c0,1.6,0.1,3.2,0.1,4.8
	c0,1.2-0.1,1.3-1.2,1.1c-1.2-0.3-2.7-0.1-3.3-1.7c-1.1-0.1-1.7-1.2-2.7-1.6c-0.7-0.3-0.9-0.7-0.8-1.6c0.9-7.5,1.1-15,1.7-22.5
	c0.7-8.6,1.1-17.3,1.2-25.9c0-0.6,0.1-1.2,0.4-1.7c0.2-0.3,0.4-0.7,0.5-1.1c0.2-2,1.3-3.4,2.5-4.9c4.8,1.9,10,2.4,15.1,3.2
	c5.4,0.9,10.8,1.4,16.3,1.9c1.4,0.1,2.8,0.1,4.3-0.3c0.1,1.4,0.2,2.6-0.6,3.7c-1,1.4-1.1,2.3,0.1,3.6c1.1,1.2,1.1,2.4,0.9,3.8
	c-0.4,3.4-0.8,6.9-1,10.3c-0.7,10.6-1.8,21.2-3.1,31.8c-0.2,2-0.1,4-0.8,5.9c-0.1,0.4,0,0.9,0,1.4
	C392.7,249,392.6,249.1,391.2,248.8z M364.3,175c2.1,0.3,4.3,0.6,6.4,0.9c5.5,0.8,11,1.1,16.5,1.5c3.2,0.2,6.5,0.7,9.7,0.4
	c0.8-0.1,1,0.2,1,1c0,1.1-0.6,1.9-1.1,2.7c-0.2,0.3-0.5,0.3-0.9,0.3c-4.9-1-9.9-1-14.9-1.6c-5.3-0.7-10.6-1.2-15.8-1.8
	c-0.8-0.1-1.3-0.3-1.2-1.2C364.2,176.5,363.9,175.8,364.3,175z M365.4,179.9c3.3,1.1,6.8,1.4,10.2,1.9c4.9,0.6,9.9,1.2,14.9,1.4
	c1.5,0.1,3.1,0.2,4.6-0.1c0.9-0.2,1.4,0.1,1.3,1.1c-0.1,0.5,0.2,1.1-0.2,1.5c-9.3-0.9-18.5-1.9-27.7-3.3c-2-0.3-4-0.5-5.9-0.7
	c-0.3,0-0.7-0.1-0.8-0.4c-0.1-0.4,0.2-0.7,0.6-0.9C363.3,179.6,364.2,179.5,365.4,179.9z M394.5,247.6c0.8,0.1,1.5,0.3,2.3,0.5
	c0.6,0.1,0.9,0.4,0.9,1.3c-1.1-0.2-2-0.3-3-0.5c-0.4-0.1-0.6-0.2-0.6-0.6C394.2,247.9,394.2,247.5,394.5,247.6z M397.7,264.7
	c-0.5,2.1-0.8,2.3-3,2.3c-0.7,0-1.5-0.1-2.2-0.1c-2.2-0.2-2.5-0.5-2.1-2.8c0.4-2.2,0.8-4.4,1.2-6.7c0.4-2,1-4,1.5-6
	c0.2-0.9,0.5-1.3,1.5-1c1,0.3,2,0.3,3,0c1-0.3,1.4,0.3,1.5,1.1c0.1,1,0.1,2,0.2,3C399,258,398.5,261.4,397.7,264.7z M402.9,200.5
	c-1.3,11.2-2.5,22.5-3.5,33.7c-0.3,3.6-0.8,7.1-1.2,10.7c-0.1,1-0.6,1.3-1.4,1.1c-0.2,0-0.4-0.1-0.6-0.1c-1.7-0.2-1.7-0.2-1.5-2.6
	c0.9-7.6,1.9-15.7,2.6-24c0.5-7,1-13.9,1.4-20.9c0-0.5,0-0.9,0.1-1.4c0-0.5,0.3-0.8,0.9-0.7C403.3,196.9,403.3,196.9,402.9,200.5z
	 M400.5,194.9c-1.6-0.4-3.2-1-3.6-3.3c2.6,2.1,5.3,2.4,8.4,2C403.9,195.5,402.2,195.3,400.5,194.9z M398.4,188.4c0.4-0.5,1,0,1.5,0
	c1.3,0.1,2.6,0.4,4,0.4c1.1,0,1.2,0.5,1.1,1.4c-0.3,1.6-0.6,1.9-2.4,1.9c-0.8-0.1-1.8-0.2-2.7-0.6c-0.7-0.2-1.2-0.6-1.4-1.3
	C398.3,189.6,398,188.9,398.4,188.4z M406.2,183.4c-0.1,0.3-0.1,0.7-0.1,1c-0.4,2.3-0.8,2.6-3.3,2.5c-1,0-2-0.1-3-0.4
	c-1.5-0.4-2.3-2.6-1.6-3.9c0.2-0.4,0.6-0.5,1-0.4c2,0.5,4.1,0.4,6.1,0.2C406.1,182.2,406.3,182.6,406.2,183.4z M400.4,176.6
	c0.2-1.9,0.4-3.7,0.5-5.6c0.1-0.9,0.4-1.4,1.4-1.2c0.5,0.1,0.9,0.1,1.4,0.1c2.4,0.1,2.3-0.2,2.1,2.3c-0.2,1.9-0.4,3.7-0.6,5.6
	c-0.2,1.9-0.2,1.9-2.2,1.8C400.1,179.4,400.1,179.4,400.4,176.6z M396.4,161.5c5.4,0.5,10.8,1,16.2,1.5c0,0.2,0,0.3,0.1,0.5
	c-2,1.3-4.1,2.5-5.6,4.4c-0.1,0.2-0.5,0.3-0.7,0.2c-1.4-0.1-2.8-0.1-4.2,0c-0.5,0.1-0.8-0.2-1.1-0.6c-1.5-1.9-2.9-3.9-4.8-5.6
	C396.3,161.7,396.3,161.6,396.4,161.5z M371.2,159.1c6.8,0.9,13.6,1.4,20.5,1.9c1.7,0.1,3,0.6,4.1,2.1c0.8,1.2,1.7,2.4,2.8,3.4
	c0.9,0.9,1.2,1.8,0.9,3c-0.4,2-0.6,3.9-0.9,5.9c-0.1,0.9-0.5,1.3-1.4,1.1c-5.1-0.9-10.2-1.1-15.3-1.4c-5.9-0.4-11.8-1.2-17.7-1.8
	c-0.3,0-0.8,0-0.9-0.2c-1.4-1.5-3.3-1.3-5-1.3c-2.6-0.1-2.6,0.5-2.5-2.6c0-0.1,0-0.3,0-0.9c0.3-3.2,0.6-6.8,0.7-10.5
	c0-1.2,0.1-1.3,1.3-1C362.1,157.9,366.6,158.6,371.2,159.1z M403.4,123.2c-8,6.6-15.7,13.6-23.3,20.6c-4,3.7-8.1,7.1-12.4,10.3
	c-0.7,0.5-1.5,1.1-2,1.9c-0.1,0.2-0.4,0.4-0.7,0.2c-0.3-0.2-0.2-0.5,0-0.7c0.3-0.4,0.6-0.7,0.9-1.1c5.8-5.3,10.9-11.3,15.8-17.4
	c1.9-2.3,3.8-4.6,5.7-6.9c0.5-0.6,0.9-1.1,1.7-1.4c4.8-1.5,9.3-3.9,13.8-6.2c0.5-0.2,1-0.4,1.4-0.7c0,0,0.1,0.1,0.2,0.1
	C404.3,122.7,403.8,122.9,403.4,123.2z"/>
<polygon class="st1" points="250.9,221.1 258.6,239.3 233.6,229.3 "/>
<polygon class="st2" points="250.9,221.1 258.6,239.3 233.6,229.3 "/>
<line class="st3" x1="247.6" y1="231" x2="203.2" y2="338.2"/>
<text transform="matrix(1 0 0 1 353.3141 36.9944)"><tspan x="0" y="0" class="st1 st4 st5 st6">L</tspan><tspan x="19.5" y="0" class="st1 st4 st5 st7">EANDR</tspan><tspan x="130.6" y="0" class="st1 st4 st5">A</tspan></text>
<text transform="matrix(1 0 0 1 396.8005 65.0662)"><tspan x="0" y="0" class="st1 st4 st5 st7">BA</tspan><tspan x="43.3" y="0" class="st1 st4 st5">R</tspan></text>
<text transform="matrix(1 0 0 1 319.321 319.9216)"><tspan x="0" y="0" class="st1 st4 st5 st7">O</tspan><tspan x="23.9" y="0" class="st1 st4 st5 st7">N TH</tspan><tspan x="102.8" y="0" class="st1 st4 st5">E </tspan></text>
<text transform="matrix(1 0 0 1 297.8229 347.9939)" class="st1 st4 st5">2</text>
<text transform="matrix(1 0 0 1 315.4064 341.1873)"><tspan x="0" y="0" class="st1 st4 st8 st9">N</tspan><tspan x="14.1" y="0" class="st1 st4 st8">D</tspan></text>
<text transform="matrix(1 0 0 1 342.9372 347.9851)"><tspan x="0" y="0" class="st1 st4 st5 st7"> F</tspan><tspan x="31.9" y="0" class="st1 st4 st5 st6">L</tspan><tspan x="51.2" y="0" class="st1 st4 st5 st7">O</tspan><tspan x="75.2" y="0" class="st1 st4 st5 st7">O</tspan><tspan x="99.1" y="0" class="st1 st4 st5">R</tspan></text>
<text transform="matrix(1 0 0 1 64.9094 195.5173)"><tspan x="0" y="0" class="st1 st4 st5 st7">CAF</tspan><tspan x="62.9" y="0" class="st1 st4 st5">E</tspan></text>
<text transform="matrix(1 0 0 1 30.7936 223.5896)"><tspan x="0" y="0" class="st1 st4 st5 st6">L</tspan><tspan x="19.5" y="0" class="st1 st4 st5 st7">EO</tspan><tspan x="63.8" y="0" class="st1 st4 st5 st7">P</tspan><tspan x="84.7" y="0" class="st1 st4 st5 st7">OL</tspan><tspan x="128.4" y="0" class="st1 st4 st5">D</tspan></text>
</svg>
