<?xml version="1.0" encoding="utf-8"?>
<!-- Generator: Adobe Illustrator 27.7.0, SVG Export Plug-In . SVG Version: 6.00 Build 0)  -->
<svg version="1.1" id="Ebene_1" xmlns="http://www.w3.org/2000/svg" xmlns:xlink="http://www.w3.org/1999/xlink" x="0px" y="0px"
	 viewBox="0 0 1366 980" style="enable-background:new 0 0 1366 980;" xml:space="preserve">
<style type="text/css">
	.st0{clip-path:url(#SVGID_00000096766659677499911960000014935250101275884733_);fill:#FAFAFA;}
</style>
<g>
	<defs>
		<rect id="SVGID_1_" x="-0.4" y="-0.3" width="1366.4" height="979.9"/>
	</defs>
	<clipPath id="SVGID_00000040562667404062091760000005854085299504568754_">
		<use xlink:href="#SVGID_1_"  style="overflow:visible;"/>
	</clipPath>
	<path style="clip-path:url(#SVGID_00000040562667404062091760000005854085299504568754_);fill:#FAFAFA;" d="M1396.4,628.1
		c34.6,8.7,52.7-6.7,69.6-38.4c6-11.3,1.2-23.7-10.1-30.3c-4.9-2.8-10.2-4.9-15.6-7.4c6.9-10.8,14-21.5,20.7-32.3
		c5.8-9.4,3.1-18.8-1.7-27.4c-5.3-9.6-11.8-18.5-17.5-27.8c-9.2-15.2-22.6-21.1-40.9-18.5c-0.2-5.2-0.5-9.7-0.6-14.3
		c-0.6-23.4-20.1-34-41.4-23.1c-18.3,9.4-30.4,24.4-40.4,41.5c-6.2,10.8-12.5,21.7-17.3,33.1c-5.2,12.4-2.4,24.6,5.8,35.2
		c7.9,10.3,18.9,14.6,31.3,11.5c7.1-1.7,10.6-0.4,14.8,5.4c4.8,6.6,11.7,11.5,16.7,17.9c3.9,5,8.3,10.9,9,16.8
		c1.9,15.7,1.8,31.6,2.6,47.7c-9.4-2.2-19.7-3.5-29.3-7c-11.1-4.1-19.7-1.1-28.9,4.9c-32.3,20.8-31.8,42.5-13.3,65.7
		c3.1,3.9,6.3,7.7,8.3,10c-5.2,10.3-11.7,19.4-14.5,29.5c-3.4,12.5,4.5,22.2,17.1,25.1c24.4,5.6,39-0.4,52.6-20.8
		c2.2-3.3,6.6-5,10-7.5c2.2,3.2,5.5,6.2,6.3,9.7c1.5,6.3,2.2,13.1,2,19.6c-1.1,27.4,4.3,36.4,25.6,40.5c3.4,0.7,7.2,3.4,9.4,6.2
		c15.4,20.9,30.6,42,45.6,63.3c6.5,9.3,9.7,19.7,7.9,31.4c-0.4,2.5,2.6,5.5,4,8.3c2.3-2.3,5.9-4.2,6.6-6.9
		c3.5-14.2-1.2-27.1-8.8-38.6c-13.4-20.1-27.7-39.6-42-60c20.3-6.1,35.2-16.7,34.4-40c-0.4-11.1-3.2-21.5-14.5-26.6
		c-19.2-8.5-38.4-15.7-56.5,3.9c-3.4-7-6.9-11.9,0.6-18.9c15.1-14.3,20.8-32,13.3-52.4c-1.2-3.2-3.4-6.2-5.7-8.8
		c-5.6-6.2-11.6-12-17.4-18C1394.7,629.7,1395.6,628.9,1396.4,628.1"/>
	<path style="clip-path:url(#SVGID_00000040562667404062091760000005854085299504568754_);fill:#FAFAFA;" d="M1500.8,46.7
		c-32.1-15.6-36-39-28.7-74.2c2.6-12.5,14.3-19,27.2-16.7c5.6,1,10.9,2.8,16.7,4.4c1.6-12.7,3.1-25.4,4.9-38.1
		c1.6-10.9,9.7-16.4,18.9-19.9c10.2-3.9,20.9-6.5,31.3-10.1c16.8-5.7,30.9-1.7,43.2,12.1c3.5-3.8,6.6-7.1,9.6-10.5
		c15.5-17.6,37.3-13.1,46.5,8.9c8,18.9,7.6,38.2,4.2,57.8c-2.1,12.3-4.3,24.6-8,36.5c-4,12.8-14,20.4-27.1,23.3
		c-12.7,2.8-23.8-1-31.4-11.3c-4.3-5.9-7.9-7.1-14.8-5.4c-7.9,2-16.4,1.3-24.3,3c-6.2,1.3-13.4,3-17.7,7.1
		c-11.5,10.8-21.7,23-32.6,34.9c8.5,4.4,17.4,10,27,13.5c11.1,4,15.8,11.8,19,22.3c11.3,36.7-3,53-32.1,58.9
		c-4.9,1-9.8,1.8-12.8,2.3c-2.6,11.2-3.5,22.4-7.9,31.9c-5.5,11.8-17.7,14.2-29.3,8.3c-22.3-11.4-29.7-25.4-26.9-49.8
		c0.4-3.9-1.8-8.1-2.8-12.1c-3.7,1.1-8.1,1.2-11,3.4c-5.2,3.9-10.1,8.6-14.1,13.7c-16.7,21.7-26.7,25.2-45.7,14.6
		c-3.1-1.7-7.7-2.1-11.2-1.2c-25.3,6.1-50.5,12.5-75.6,19.2c-11,2.9-20.1,8.8-26.2,19c-1.3,2.2-5.5,2.6-8.4,3.8
		c-0.3-3.2-1.8-7-0.6-9.5c6.4-13.1,18.3-20,31.5-23.9c23.2-6.8,46.7-12.6,70.8-19c-11.6-17.7-16.2-35.4-0.6-52.7
		c7.4-8.3,16.3-14.5,28.2-11c20.2,5.8,39.5,12.7,40.7,39.3c7-3.2,12.9-4.7,11.7-14.9c-2.4-20.6,4.6-37.9,23.5-48.7
		c3-1.7,6.6-2.6,10-3c8.3-1.1,16.6-1.7,24.9-2.6C1501.1,49,1501,47.8,1500.8,46.7"/>
	<path style="clip-path:url(#SVGID_00000040562667404062091760000005854085299504568754_);fill:#FAFAFA;" d="M794.7,280.4
		c11,13.5,20,25,29.6,36c1.9,2.2,6.1,3.7,9,3.4c6.5-0.7,12.8-2.8,20.9-4.8C834.2,303.4,815.8,292.7,794.7,280.4 M894.6,317.2
		c0.4-20.3-7.6-30.2-26.3-33.2c-3.2-0.5-6.3-1-9.5-1.6c-19.7-4.1-39.4-8.2-59-12.3c3,2.1,6.4,4.9,10.1,7.2
		c16,10,32.8,18.9,47.8,30.2C869.3,316.2,881.3,318,894.6,317.2 M1006.2,854.9c-0.7-15.2-4.6-31.2-1.1-45.3c3.1-12.3,6-24,5.3-36.6
		c-0.1-2.1,0.4-5.2-0.8-6.1c-10.3-8.6-9-20.1-7.4-30.5c-11.1,0-21.4,0.4-31.7-0.1c-10.2-0.5-15.5-7.7-19.6-16.1
		c-3.6-7.3-7.2-14.6-11.1-22.5c-4.2,1.9-7.2,4.1-10.4,4.6c-3.8,0.7-9.1,1.4-11.5-0.6c-2.5-2.1-3.9-7.7-3.2-11.3
		c2.5-13.4,10.3-23.3,22.9-29.8c-8.3-6.1-16.8-12.1-14.4-23.3c3.3-15.5,16.8-20.2,29.3-25.6c3.2-1.4,6.8-1.7,10-2.4
		c1.2-9.8-5.8-19.6-15.9-23.3c-4-1.5-8-3-11.7-5.1c-9.7-5.3-15-12.6-11.4-24.5c2.8-9.2,1.5-15.9-10.7-16.5
		c-2.5-0.1-6.9-7.2-6.7-10.8c1.3-18.5,4.5-36.9,5.7-55.5c1.8-26.7,2.4-53.5,3.5-79.6c-12.9-1.6-25.3-2.3-37.3-4.6
		c-26.8-5.3-49.9-18.9-72.2-33.8c-13.1-8.8-12.8-12.6,0.1-21.4c3.2-2.2,6.2-4.6,9.6-7.2c-11.8-14.6-23.1-28.8-34.8-42.7
		c-1.5-1.8-6.1-3.2-7.8-2.2c-33.2,19.9-71.7,25.8-106.6,41.2c-8.5,3.8-13,7.8-12.3,18c1.5,22.5,2.1,45,2.2,67.6
		c0.2,41.9-5.8,82.4-25.3,120.4c-4.4,8.5-5.4,19.2-5.9,29.1c-0.8,17.1-7.1,31.2-16.6,45.4c-7.1,10.6-11.4,23.7-14.2,36.2
		c-3.2,14.1-19.3,32.6-33.1,36.4c-7.2,2-13.5,7.4-19.8,11.8c-1.4,1-2,4.2-1.8,6.3c2.7,36.4,5,72.6-0.8,109.1
		c-2.5,16-0.8,32.8,0.3,49.2c2.1,28.7,2.2,57-4.2,85.3c-1.8,8,0.6,17,0.4,25.5c-0.1,3.4-2.1,6.7-3.3,10.1c-2.9-1.9-7.4-3.2-8.5-5.8
		c-2.5-6.1-4.6-12.9-4.7-19.5c-0.2-9.9-3.7-13.9-14-14.1c-30.6-0.7-58.5,8.2-84.7,22.9c-16.1,9.1-31.6,19.2-47.3,28.8h-15
		c13.8-10.5,26.6-22.5,41.5-31.2c27.8-16.3,57-29.9,90-32c9.2-0.6,18.4-0.1,26.9-0.1c0-15.8,0.1-31.7,0-47.7
		c-0.1-8.9-0.2-17.9-0.9-26.7c-1.1-14.2-2.6-28.3-4.1-42.4c-0.8-7.4-2.7-14.8-2.6-22.2c0.1-3.5,3.6-6.9,5.6-10.3
		c2.9,3.1,6.9,5.8,8.4,9.5c2.1,5.2,2.4,11.1,6,16.8c0.7-16.4,2.2-32.8,1.9-49.2c-0.3-19.3-2.4-38.5-3.3-57.7
		c-0.2-3.6,1-8.5,3.5-10.7c6.9-6,14.8-11,22.4-16.1c8.1-5.3,17.1-9.6,24.5-15.8c3.5-2.9,4.1-9.2,6.5-15.4
		c-24.1,13-46.6,24.6-68.5,37.2c-31.7,18.2-67.1,25.8-101.2,37.3c-25.6,8.6-51.3,17-77.1,25.1c-2.7,0.9-6.3-0.8-9.5-1.3
		c1.5-3.1,2.3-7.1,4.6-9.2c7.9-7.1,18-12.2,24.2-20.4c16.1-21.3,37-35.4,60.9-45.9c4.2-1.9,8.3-3.9,13-6.2
		c-5.1-6.4-9.6-12.7-14.7-18.3c-20.9-23.1-31.4-52-41-80.5c-7-20.7-7.3-43.5-10.7-65.4c-1.4-8.8-3.5-17.5-4.5-26.3
		c-0.3-3.4,1.8-7,2.8-10.5c2.8,2.5,7.4,4.7,8,7.6c3.4,17.5,6.7,35.1,8.4,52.8c4.5,47.5,24,88.3,53.7,124.7
		c5.3,6.4,11.2,9.2,20.5,5.4c18.2-7.2,37.6-11.3,55.5-18.9c15.4-6.5,29.3-16.3,44.1-24.3c2-1.1,4.8-1.3,7-0.9
		c12.4,2.2,21.8,8.4,25.5,21.4c7.2-10.9,15.4-21,21-32.4c4.1-8.4,4.9-18.3,7-27.7c2.6-11.8,2.4-24.9,7.8-35.1
		c17.8-34,22.6-70.4,23.6-107.8c0.3-8.9,0.7-18-0.3-26.8c-0.5-5-4.2-9.6-5.5-14.6c-1.7-6.4-3.3-13-3.6-19.6
		c-0.3-6.4-3.6-7.8-8.7-10.8c-15-8.9-23.5-0.8-33.2,8.6c-28.2,27.2-57.2,53.5-91.1,74c-19.7,11.9-41.1,18.1-63.1,22.8
		c-11.8,2.5-24,4.4-35.9,4.3c-5,0-10.3-5.8-14.8-9.6c-0.8-0.6,0.7-5.8,2.4-7c1.7-1.1,6.6-0.7,7.4,0.6c4.8,7.9,11.7,5.1,18.1,4.3
		c50-6.1,92.4-28.1,129.3-61.5c18-16.3,35.8-32.6,53.5-49.2c2-1.9,4.4-5.3,4-7.7c-1.9-12,4.4-19.4,13.8-24.2
		c37.9-19.6,73.6-44,116-54.2c5.1-1.2,9.9-3.6,16.1-6c-4.8-6.2-9.2-11.7-13.4-17.3c-1.9-2.5-4.5-5-5.2-7.9c-1.2-4.8-1-9.9-1.5-14.9
		c4.6,1.4,9.8,2,13.7,4.5c12,7.7,23.4,16.3,35.3,24.2c1.9,1.2,5.3,1.2,7.6,0.5c21.3-6.8,42.5-14.1,63.9-20.7c3.2-1,7.1,0.4,10.6,0.7
		c-1.2,3-1.5,6.9-3.6,8.8c-13.7,12.2-27.7,23.9-42.1,36.2c10.9,12.2,23.3,13,34.8,15.6c5.5,1.3,11.3,1.5,17,2.5
		c27.8,5,34.4,11.7,39.9,39.7c0.5,2.8,1.4,5.5,2.2,8.8c30.7,6.5,61.7,10.8,93.3,8.8c22.4-1.4,36.4,9.9,37.5,28.9
		c0.6,10-4,15.8-12.4,18.9c-13,4.7-26.2,8.9-39.6,12.7c-1.6,0.5-5.9-2.7-6.2-4.7c-3-18.5-16.5-20.3-31.4-21
		c-23.7-1.1-24.8-1.1-19.9,22.1c5.4,25.4,2.1,50.5,1.3,75.8c-0.4,13.1,1.4,26.3,3.2,39.3c0.4,3.1,5.3,5.3,7,8.6
		c4.9,9.6,4.5,18.6-2.9,27.6c-12.9,15.6-5.5,34,12.9,41.6c11.5,4.8,23.1,13.4,21.8,30.4c10.6,0.6,20.6,2,30.5,1.6
		c14.4-0.6,24.3,5.6,29.9,18.2c5.6,12.7,1.4,23.7-8.2,31.9c2.7,10.9,4.6,21.4,8,31.4c1.3,3.9,5.2,7.7,8.8,10.1
		c9.6,6.5,19.7,12.3,30.6,19c2.4-7.5,5.2-15.6,7.5-24c4.6-16.9,18.9-20,32.8-23c12.8-2.8,22.4,3,28.5,14.2
		c3.5,6.5,6.1,13.5,9.2,20.5c5.6-0.5,11.6-1.8,17.5-1.5c15.3,0.6,22.9,12.4,17.8,26.7c-6.8,19-15,24.8-35.6,26
		c-3.4,0.2-6.6,2.1-9.9,3.3c-0.4,1.4-0.8,2.8-1.1,4.2c6.9,4.9,13.3,10.7,20.7,14.5c16.3,8.2,20.6,16.1,16.7,33.3
		c-0.7,2.9-1.2,6.5-0.1,9.1c9,20.6,18.2,41.1,27.9,61.4c1.9,4,5.2,8.5,9,10.2c20.5,9.5,33.9,26.7,49.2,42.2
		c4.9,4.9,12.8,6.8,19.4,10.1v8.6c-10.1-1.1-19.4-3.7-26.4-12.2c-6.8-8.2-14-16.2-21.8-23.5c-6-5.6-13.2-9.8-19.9-14.7
		c-0.4,0.6-0.8,1.2-1.2,1.8c8.8,11,17.5,22,26.3,33c2.1,0.2,5.9-0.6,7.9,0.9c11.9,8.9,23.5,18.3,35.1,27.6v10.7
		c-11.1-7.7-22.3-15.5-33.4-23.2c-0.5,0.5-0.9,0.9-1.4,1.4c7.3,9.4,14.6,18.8,21.9,28.3h-12.9c-20.9-28.2-35.4-61.1-62.6-84.7
		c-3.4-3-6.3-6.9-8.7-10.8c-3.9-6.4-2.7-8.1,6.1-9.6c-7-16-13.9-31.9-21.1-48.2c-12.9,9.7-24.9,17.2-40.7,8
		c-8.8-5.2-15.7-11.9-14.5-21.9c2-16.2,4.4-33.5,25.4-37.7c-2.8-6.9-6.5-8.6-13.5-6.9c-12.9,3.2-26,2.9-35.9-7.7
		c-4.2-4.5-6.3-11.1-9.1-16.8c-2.4-4.8-4.4-9.7-7.8-17.3c-6.4,31.9-29,35.4-55,37.1c0,24-0.1,47.8,0,71.7c0,7.1,0.9,14.3,0.5,21.4
		c-0.1,2.3-2.7,4.5-4.2,6.7c-1.9-1.8-4.3-3.3-5.5-5.4c-1.6-2.8-2.3-6.1-3.4-9.3L1006.2,854.9z"/>
	<path style="clip-path:url(#SVGID_00000040562667404062091760000005854085299504568754_);fill:#FAFAFA;" d="M159.3,663.5
		c-0.3,0.9-0.7,1.9-1,2.8c12,4.2,24,8.4,36,12.7c0.3-0.8,0.5-1.5,0.8-2.3C183.2,672.3,171.3,667.9,159.3,663.5 M198.6,681.3
		c12.2,10.1,22.7,17.5,31.5,26.5c9.1,9.3,18.9,19.1,24.5,30.5c12.9,26.3,22.7,53.9,15.4,84.4C289.2,775.3,250.8,696.8,198.6,681.3
		 M135,662.6c-25.8,3.4-50.5,11.8-73.4,24.7c-23.6,13.3-37.9,34.7-48.1,59.4C40.1,698.4,87,680.3,135,662.6 M172,877
		c-13,2.8-25.3,7.9-37.4,7.5c-14.7-0.5-30-3.7-43.7-9.2c-19.9-7.9-38.6-18.8-60.6-29.9c9.6,14.2,17.8,27,26.8,39
		c3,4,8.1,8.5,12.6,8.9c31.8,3.2,63.7,5.4,94.4,7.8C167.4,890.8,170,883,172,877 M137.7,781c3.7-10.7,6.4-22,11.4-32
		c10.9-21.7,22.9-42.9,34.6-64.4c-3.8-1.4-8.9-4.1-14.3-5.2c-11.9-2.3-24.4-6.6-35.9-4.9c-13.9,2.1-27,9.3-40.3,14.9
		c-8.7,3.7-17.4,7.8-25.4,12.9c-7.6,4.9-14.3,11.3-21.2,17.3c-6.3,5.4-12.3,11.2-18.4,16.9c0.7,0.9,1.5,1.7,2.2,2.6
		c7.4-2.3,14.9-4.4,22.2-6.9c17.3-5.9,31.6-2.9,44.3,11.4c8.4,9.4,19.1,16.7,28.7,25c-0.2-10.8-1.8-20.2-5.1-29.1
		c-5.9-16.1-8.8-32.5-5.6-49.2c0.7-3.8,6.7-6.6,10.3-9.9c2.3,3.1,5.9,5.9,6.6,9.3c2,10.1,3.3,20.4,4.1,30.7
		c0.7,8.1,2.7,17.1,0.1,24.3C131.8,757.4,136.7,768.9,137.7,781c2.5,1.6,5,3.3,8.7,5.8c22.6-28.3,55.7-36.5,88.6-44.9
		c2.6-0.7,5.7,1.1,8.6,1.7c-0.9,2.8-1.5,5.8-2.8,8.4c-0.7,1.5-2.5,2.6-4,3.5c-12.3,7.8-24.2,16.1-37,23
		c-10.7,5.8-22.3,10.2-33.7,14.7c-5.9,2.3-12.2,3.4-18.6,5.2c1.3,10.5,4.5,18.7,15,23.9c8.1,4.1,14.9,10.9,21.4,17.5
		c2.6,2.6,3.6,7.5,4,11.5c0.6,7.5,0.4,15,0,22.5c-0.4,7.1,3.6,16.6-9.2,17.9c-1.6,0.2-2.8,4.4-4.6,7.6c16,2.5,29.5-1.1,39.7-10.1
		c14.6-12.9,28.7-25.5,38.3-44.3c19.7-38.7,12.2-74.3-7.8-107.5c-11.3-18.7-31-32.3-48.6-49.9c-1.4,8.3-2,14.2-3.5,19.9
		c-1.6,6.1-3,12.6-6.2,17.8c-7.3,11.7-15.8,22.7-23.5,34.2C156.1,768.8,150.5,778.9,137.7,781 M-16.2,986.1
		c-0.6-26.7-15.7-49.2-21.9-74.1c-4.9-19.6-6.6-40.1-8.1-60.3c-1.7-22.8-1.5-45.7-2.3-68.5c-0.5-14.8,8.2-27.4,23.1-26.7
		c21.4,1,31.5-9.7,40.1-27.1c17.4-35.2,47.8-54.4,85-64c10.3-2.6,20.5-8.8,30.5-8.3c24.8,1,49,4.8,72,16.6
		c26.7,13.6,46.5,34.1,63.2,57.5c12.6,17.5,14.8,39.5,14.7,60.5c-0.3,43.6-17.1,80.9-47.4,112.1c-1,1.1-2.8,1.4-5.6,1.1
		c11.6-19.1,30.6-33.8,33.7-58c-1,0.5-1.5,0.6-1.6,0.8c-5.9,21.8-23.4,34.6-39.8,46.8c-10.2,7.6-24.7,9.5-37.2,14.3
		c-3.3,1.3-8.8,3.7-8.9,5.7c-1,24.9-6.1,48.7-15.7,71.6h-8.6c1.6-5.7,2.5-11.8,5-17.1c9.2-19.4,8.3-40.1,10.2-61.5
		c-32.6-1.6-64.7,2.7-95.4-7.7c-5.4-1.8-12-3.4-15.5-7.4c-9.6-10.9-17.8-23.1-26.2-34.2c0.3,2.6,0.8,6,1.2,9.4
		c-1.2,0.4-2.4,0.8-3.6,1.2c-2.4-5.5-4.7-11.1-7.2-16.5c-4.3-9.3-7-20.1-13.6-27.3c-11.2-12.3-24.9-22.4-35.7-31.7
		c0,7.7,0.8,17.3-0.3,26.8c-0.7,6.5-5.6,12.8-5.6,19.2c0.1,16.8,1,33.6,3.2,50.2c4.4,33.7,25.5,62.5,28.6,96.7H-16.2z"/>
	<path style="clip-path:url(#SVGID_00000040562667404062091760000005854085299504568754_);fill:#FAFAFA;" d="M531.7-45.2
		c9,11.8,13.5,24.8,13.1,39.8c-0.1,5.2,1.1,11,3.5,15.5c18.6,34.1,19.7,71,18.9,108.4c-0.4,18.2-0.5,36.5-0.3,54.7
		c0.1,14.7-7.1,26-21.7,25.6c-22.9-0.6-41.9,10.2-62.6,16.3c-13,3.8-27,5.4-40.6,5.9c-5,0.2-10.7-4.9-15.2-8.7
		c-11.4-9.7-22.1-20.3-33.5-30c-12-10.2-20.9-21.7-20.2-38.2c0.3-6.7-2.9-9.9-8.3-13.4c-9.1-6.1-17.6-13.3-25.7-20.6
		c-5.5-4.9-5.2-11-1.4-17.4c11.1-18.8,35.6-28.8,57.2-25.1C432.6,74,465.1,90.2,494,115c15.4,13.2,31.7,25.5,47.3,38.5
		c4.3,3.6,7.5,8.4,10.9,12.4c0-11.5-3.6-24.8,0.8-34.6c8.3-18.6,6-37.1,3.9-55.2c-2.1-18.5-8.9-36.4-13.5-54.6
		c-2.6-10.3-6.8-20.5-7.3-30.8c-0.7-14.3-8.3-24.7-15.1-35.9H531.7z"/>
	<path style="clip-path:url(#SVGID_00000040562667404062091760000005854085299504568754_);fill:#FAFAFA;" d="M383.5-45.2
		c-2.2,6.3-3.5,13.2-6.8,18.9C364.1-4.8,363.1,19.2,360,42.8c-1,7.4-2.4,14.8-4.4,22c-0.5,1.8-4,2.8-6.1,4.2
		c-0.8-2.1-2.4-4.3-2.1-6.2c2.6-19.4,4.1-39.2,8.8-58.1c4.3-17.1,12.3-33.3,18.7-49.8H383.5z"/>
	<path style="clip-path:url(#SVGID_00000040562667404062091760000005854085299504568754_);fill:#FAFAFA;" d="M152.9,160.6
		c-32.1-15.6-36-39-28.7-74.2c2.6-12.5,14.3-19,27.2-16.7c5.6,1,10.9,2.8,16.7,4.4c1.6-12.7,3.1-25.4,4.9-38.1
		c1.6-10.9,9.7-16.4,18.9-19.9c10.2-3.9,20.9-6.5,31.3-10.1c16.8-5.7,30.9-1.7,43.2,12.1c3.5-3.8,6.6-7.1,9.6-10.5
		c15.5-17.6,37.3-13.1,46.5,8.9c8,18.9,7.6,38.2,4.2,57.8c-2.1,12.3-4.3,24.6-8,36.5c-4,12.8-14,20.4-27.1,23.3
		c-12.7,2.8-23.8-1-31.4-11.3c-4.3-5.9-7.9-7.1-14.8-5.4c-7.9,2-16.4,1.3-24.3,3c-6.2,1.3-13.4,3-17.7,7.1
		c-11.5,10.8-21.7,23-32.6,34.9c8.5,4.4,17.4,10,27,13.5c11.1,4,15.8,11.8,19,22.3c11.3,36.7-3,53-32.1,58.9
		c-4.9,1-9.8,1.8-12.8,2.3c-2.6,11.2-3.5,22.4-7.9,31.9c-5.5,11.8-17.7,14.2-29.3,8.3c-22.3-11.4-29.7-25.4-26.9-49.8
		c0.4-3.9-1.8-8.1-2.8-12.1c-3.7,1.1-8.1,1.2-11,3.4c-5.2,3.9-10.1,8.6-14.1,13.7c-16.7,21.7-26.7,25.2-45.7,14.6
		c-3.1-1.7-7.7-2.1-11.2-1.2c-25.3,6.1-50.5,12.5-75.6,19.2c-11,2.9-20.1,8.8-26.2,19c-1.3,2.2-5.5,2.6-8.4,3.8
		c-0.3-3.2-1.8-7-0.6-9.5c6.4-13.1,18.3-20,31.5-23.9c23.2-6.8,46.7-12.6,70.8-19C3.1,240-1.5,222.3,14.1,204.9
		c7.4-8.3,16.3-14.5,28.2-11c20.2,5.8,39.5,12.7,40.7,39.3c7-3.2,12.9-4.7,11.7-14.9c-2.4-20.6,4.6-37.9,23.5-48.7
		c3-1.7,6.6-2.6,10-3c8.3-1.1,16.6-1.7,24.9-2.6C153.1,162.9,153,161.7,152.9,160.6"/>
	<path style="clip-path:url(#SVGID_00000040562667404062091760000005854085299504568754_);fill:#FAFAFA;" d="M1099.9,176
		c0.5,3,0,7.5,1.9,10.5c6.6,10.5-0.5,14.1-8.1,17.2c-5.3,2.1-10.8,3.8-16.4,4.8c-3.5,0.6-8.5,0.5-10.5-1.5
		c-1.8-1.8-0.4-6.7-0.4-11.5c-10.2-8-10.3-8.5-0.7-22.3c-15.7,2.2-29.2,5.3-42.8,5.6c-28.7,0.7-46.8,18.2-63.5,38
		c-19.1,22.7-45.2,35.6-69.4,51.1c-2.5,1.6-6,3-8.9,2.6c-6.2-0.8-10.9-3.9-5.6-10.6c8.2-10.3,16.2-21,25.8-30
		c20.8-19.8,33.8-44.8,49.3-68.3c12.5-19,27.2-36.8,42-54.2c12.4-14.6,31-15.3,48.4-16.5c25.9-1.8,51.9-2.5,77.9-3.5
		c12.9-0.5,25.7-1.4,38.6-1.2c16,0.3,31.2-2.5,45.8-9c2.9-1.3,7.3-1.9,9.8-0.6c10.2,5.4,20.3,11.3,29.8,18c3.2,2.3,6.3,7.8,5.7,11.2
		c-0.6,3.4-5.7,7.8-9.3,8.3c-8.7,1.2-17.6,0-26.4,0.6c-2.9,0.2-6.6,2.3-8.1,4.7c-4.6,7-7.9,14.9-12.4,21.9
		c-3.4,5.4-7.4,10.7-12.1,14.9c-4.3,3.8-9.7,7.7-15.1,8.8C1143.8,169.2,1122.2,172.4,1099.9,176"/>
	<path style="clip-path:url(#SVGID_00000040562667404062091760000005854085299504568754_);fill:#FAFAFA;" d="M116.6,527.6
		c-7.8-3.4-18.4-8-29.1-12.6c-4.5-2-8.9-5.6-13.5-5.8c-31.9-1.2-49-20.9-58.8-48c-6-16.6-9.1-34.4-12.4-51.8
		c-2.1-11.4,3.3-16.5,14.5-14.1c16.9,3.6,31.4,11,44.7,23.3c18.9,17.6,39.8,33.4,61.2,48c12.9,8.8,28.3,14.1,42.8,20.5
		c7.5,3.3,12.4,9.2,10.5,16.5c-1.3,5.2-6.7,11.6-11.6,13.1C150.4,521.3,135.2,523.6,116.6,527.6"/>
	<path style="clip-path:url(#SVGID_00000040562667404062091760000005854085299504568754_);fill:#FAFAFA;" d="M1060.1,413.4
		c7.7,3.3,18.3,7.8,29,12.4c4.5,2,8.9,5.7,13.5,5.8c32.1,1,49.2,20.9,58.8,48c6.1,17,9.2,35.1,12.5,53c1.9,10.4-3.2,15-13.6,13
		c-17.3-3.4-32.3-10.6-45.7-23.6c-17.6-17-37.3-32-57.4-46.1c-15-10.6-32.1-18.3-48.2-27.4c-11-6.2-11.6-12.3-2.2-20.5
		c2.4-2.1,5-4.5,7.9-5.2C1028.5,419.7,1042.4,417,1060.1,413.4"/>
	<path style="clip-path:url(#SVGID_00000040562667404062091760000005854085299504568754_);fill:#FAFAFA;" d="M405.5,358.9
		c5.2,5.7,12.4,11.1,11.6,13.1c-3.1,7.1-7,15.6-17.3,14.6c-5.7-0.5-11.4-1.8-17.1-2.8c-0.2-1.3-0.5-2.7-0.7-4
		c-8.4,7.5-17.5,14.4-24.9,22.8c-6.9,7.9,2.4,13.1,5.9,18.9c1.3,2.2,5.2,2.9,6.6,5.2c1.3,2,1.6,5.4,0.8,7.5c-0.5,1.2-4.5,2-6.4,1.4
		c-11.6-3.9-17-14-20.9-24.4c-3.1-8.5,2.4-15.2,8.9-20.2c11.5-9,23.4-17.4,34.9-26.2c2.7-2.1,6.6-5.2,6.5-7.6
		c-0.7-10.9,5.7-21.9-1.4-33c-4.6-7.2,3.3-23,13.8-23.8c27.1-2,39.8-23.6,56.1-39.3c12.8-12.3,24.7-18.3,42.7-14.6
		c24.4,4.9,46.7,14.1,69,24.6c7.4,3.5,17.2,1.6,25.8,2.8c3.3,0.4,6.4,2.4,9.5,3.7c-2.7,2.8-5.2,7.7-8.1,7.9
		c-12.6,0.8-24.6,1.2-37.1-5.8c-21.7-12.1-45.4-20.8-70.6-22.7c-5.8-0.4-13.2,3.4-17.9,7.5c-15.4,13.2-30.1,27.2-44.7,41.3
		c-2.3,2.3-3.8,6.5-3.9,9.9c-0.4,16.5-1,17.3-15.9,22.8c-2.3,0.8-4.8,4.2-5.2,6.7C404.9,350.3,405.5,355.7,405.5,358.9"/>
	<path style="clip-path:url(#SVGID_00000040562667404062091760000005854085299504568754_);fill:#FAFAFA;" d="M784.4-25.1
		c20.3,6.7,42.3,5.8,59.2,21.1c4.9,4.4,12.1,6.2,17.7,9.9c11.8,7.9,23.4,16,34.6,24.6c2.2,1.7,2.2,6.1,3.2,9.2
		c-3.1,0.7-6.6,2.7-9.2,1.9c-23-7.1-46.8-12.7-68.4-22.9c-15.7-7.4-28.5-21-42.3-32.1c-1.7-1.4-3.1-5.7-2.2-7.4
		C778.1-22.9,781.7-23.7,784.4-25.1"/>
	<path style="clip-path:url(#SVGID_00000040562667404062091760000005854085299504568754_);fill:#FAFAFA;" d="M774.7-5.7
		c15.2,8.3,22.5,19.2,29.4,31.1c7.2,12.2,16,23.4,24.1,35.1c0.6,0.9,1.8,1.4,2.3,2.3c9.3,15.8,7.7,33.5,10.9,50.4
		c-1.4,0.7-2.7,1.4-4.1,2.1c-8.3-9.8-18.5-18.6-24.5-29.7C799,59.8,787.1,33.1,774.8,6.6C773.5,3.7,774.7-0.4,774.7-5.7"/>
	<path style="clip-path:url(#SVGID_00000040562667404062091760000005854085299504568754_);fill:#FAFAFA;" d="M673.7,7.3
		c-15-0.8-26.4-1.1-37.7-2.3c-2.6-0.3-4.9-3.9-7.3-6c2.7-1.2,5.3-2.6,8-3.6c11.3-4,22.5-8,33.9-11.6c5.3-1.7,11.1-3.4,16.5-3
		c17,1,34,2.8,50.9,5c3.2,0.4,6,4.3,9,6.6c-3.3,3.1-6.3,8.4-10,8.8C714.9,3.9,692.5,5.6,673.7,7.3"/>
	<path style="clip-path:url(#SVGID_00000040562667404062091760000005854085299504568754_);fill:#FAFAFA;" d="M770.8,9.5
		c-1,4.2-1.8,6.9-2.4,9.7c-1.2,6.4-0.5,12.1,1.4,18.9c2.9,10.4,0.9,22.3,0.1,33.6c-0.7,10.3-2.4,20.5-4.2,30.6
		c-1,5.5-0.1,14-8.7,13.3c-7.5-0.6-12.1-5.7-12.9-14.4c-1.9-18.5,1.3-36,6.7-53.6c3.8-12.6,6.7-25.5,10.5-38.1
		c0.7-2.4,3.3-4.2,5.1-6.4C768,5.5,769.6,7.8,770.8,9.5"/>
	<path style="clip-path:url(#SVGID_00000040562667404062091760000005854085299504568754_);fill:#FAFAFA;" d="M228.7,259.3
		c1.4-1.3,4.1-4.8,7.7-7.2c7.3-5,14.8-9.8,22.7-13.7c2.9-1.5,8.4-1.7,10.4,0.1c2.6,2.3,4.5,7.3,4.2,10.9
		c-1.4,14.9-14.4,28.7-29,32.3C235.5,283.9,229,276.2,228.7,259.3"/>
	<path style="clip-path:url(#SVGID_00000040562667404062091760000005854085299504568754_);fill:#FAFAFA;" d="M243.6,414.9
		c3-3.5,7.1-12,13.5-14.8c6-2.6,14.8,0.6,22.1,2.1c1.5,0.3,3.2,5,2.9,7.4c-1.1,8.4-2.4,17-4.8,25.1c-1.6,5.3-5.7,7-10.7,2.4
		c-1.5-1.4-4-2.7-5.8-2.4C248.3,436.7,243.3,432.3,243.6,414.9"/>
	<path style="clip-path:url(#SVGID_00000040562667404062091760000005854085299504568754_);fill:#FAFAFA;" d="M1242.9,292.2
		c-11.7-0.4-18.4-9.6-16.1-18.6c0.5-2,0.9-4.1,1.2-6.1c1.6-10.7,9.4-16.1,19.8-13.6c1.4,0.3,2.9,0.7,3.9,1.6
		c6,5.5,12.9,10.6,17,17.4c0.9,1.5-7.5,9.8-12.7,13.6C1251.7,289.7,1245.8,291,1242.9,292.2"/>
	<path style="clip-path:url(#SVGID_00000040562667404062091760000005854085299504568754_);fill:#FAFAFA;" d="M1093.2,255.7
		c-11.2,0.2-17.4-4.7-17.8-13.9c-0.6-15.3,4.4-20.5,19.8-20.7c12.9-0.2,19.2,7.1,19.2,22.2C1114.5,249.5,1104.2,255.5,1093.2,255.7"
		/>
	<path style="clip-path:url(#SVGID_00000040562667404062091760000005854085299504568754_);fill:#FAFAFA;" d="M328.6,425.5
		c0,13.4-7,23.5-16.3,23.5c-8.6-0.1-19-8.2-19-15c-0.1-10.9,8-21.9,16.1-22.2C321.7,411.5,328.6,416.4,328.6,425.5"/>
	<path style="clip-path:url(#SVGID_00000040562667404062091760000005854085299504568754_);fill:#FAFAFA;" d="M1179.9,278.1
		c15.6,0,25,9.1,24,20.9c-0.2,2.8-3.7,7.4-6,7.6c-10.3,0.9-26.8-12.5-25.1-20.5C1173.5,282.4,1178.4,279.6,1179.9,278.1"/>
	<path style="clip-path:url(#SVGID_00000040562667404062091760000005854085299504568754_);fill:#FAFAFA;" d="M1185.4,344.1
		c5.4,2,11.3,3.1,16,6.1c7.5,4.7,6.9,11.8-1.1,15.3c-9,3.9-18.4,3.7-25.9-3.1c-2.8-2.5-4.4-8.1-3.8-11.9c0.3-2,6.3-3.3,9.9-4.5
		c1.2-0.4,2.8,0.1,4.2,0.2C1184.9,345.5,1185.2,344.8,1185.4,344.1"/>
	<path style="clip-path:url(#SVGID_00000040562667404062091760000005854085299504568754_);fill:#FAFAFA;" d="M467.6,395.7
		c0.3,13.1-9.7,25.5-19,24.9c-3.3-0.2-8.5-4.5-8.9-7.5c-1.3-8.6,12.7-24.8,20.1-23.5C463.2,390.3,466,394.5,467.6,395.7"/>
	<path style="clip-path:url(#SVGID_00000040562667404062091760000005854085299504568754_);fill:#FAFAFA;" d="M982.6,879.3
		c-18.1-4.4-32.2,5.9-47.6,11.6c-11,4.1-22.5,6.8-34,9c-10.1,2-18.3-2-25.6-9.8c-9.4-10.1-19.9-19.4-30.6-28.2
		c-12.6-10.4-22.2-21.7-22.1-39.5c0-4.4-4.4-9.7-8.1-13.1c-8.1-7.4-17.7-13.3-25.4-21c-3.1-3.1-5.6-10.7-3.9-13.8
		c3.7-6.8,10.2-12.2,15.9-17.8c0.4-0.5,3.9,0.8,4.3,1.9c0.6,1.6,0.3,4.2-0.7,5.5c-1.4,1.9-4.1,2.9-5.7,4.7
		c-5.3,5.8-8.3,11.6,0.5,17.4c7.7,5.1,14.5,11.5,22.4,16.2c7,4.2,10.6,9.5,10,17.4c-1.2,15.3,6.7,25.3,17.8,34.4
		c11.5,9.5,22.5,19.8,33.1,30.3c5.6,5.6,11.9,8.7,19.2,6.4c16.9-5.4,33.3-12.4,50.2-17.6c8.2-2.5,17.2-3,25.9-3.4
		c2-0.1,4.2,3.9,6.4,5.9C983.7,877,983.1,878.1,982.6,879.3"/>
	<path style="clip-path:url(#SVGID_00000040562667404062091760000005854085299504568754_);fill:#FAFAFA;" d="M1005.9,854.7
		c-0.5,2.4-1.1,4.8-1.6,7.2c-2.8-1.2-6.3-1.7-8.2-3.7c-7.6-8-13.9-17.3-22-24.6c-24.2-21.5-46.8-44.9-75-61.6
		c-19.9-11.8-42-15.2-64-19.5c-2.5-0.5-5.6,2.2-8.5,2.9c-2.3,0.6-4.7,0.6-7.1,0.8c0.1-2.6-0.6-7,0.4-7.4c5.6-2.4,12-6.1,17.4-5.2
		c26.4,4.5,53.3,8.9,74.9,26.3c26.3,21.2,51.9,43.4,77.4,65.7c6.3,5.5,11.1,12.8,16.6,19.3C1006.2,854.9,1005.9,854.7,1005.9,854.7"
		/>
	<path style="clip-path:url(#SVGID_00000040562667404062091760000005854085299504568754_);fill:#FAFAFA;" d="M882.6,579.9
		c-2.3,2.7-4.2,5.3-6.4,7.5c-11.1,10.8-23.9,20.4-33.3,32.6c-19,24.7-29.4,53.3-32,84.7c-1,11.7-3,23.3-5.3,34.8
		c-0.5,2.7-4.2,4.8-6.4,7.1c-0.8-3-2.7-6.1-2.3-8.9c2.1-16.2,4.8-32.4,7.2-48.6c4.9-33.3,19.4-62.4,41-87.6
		c8.2-9.6,19.2-16.8,29.1-24.8c1.3-1.1,4.1-0.8,6-0.4C881.2,576.3,881.7,578.3,882.6,579.9"/>
	<path style="clip-path:url(#SVGID_00000040562667404062091760000005854085299504568754_);fill:#FAFAFA;" d="M761.4,624.2
		c-0.2-15.2,4.6-21.3,16-21.8c6.9-0.3,20.1,12,20.3,19c0.3,10.4-13.8,22.9-26.3,21.8C758.3,642,763.7,630.2,761.4,624.2"/>
	<path style="clip-path:url(#SVGID_00000040562667404062091760000005854085299504568754_);fill:#FAFAFA;" d="M875.8,491.8
		c8.8,0.1,19,8.2,19,15.2c0,11.1-8.2,22.1-16.3,22.1c-12.8,0-19.2-4.7-19.2-13.9C859.2,502.1,866.5,491.7,875.8,491.8"/>
	<path style="clip-path:url(#SVGID_00000040562667404062091760000005854085299504568754_);fill:#FAFAFA;" d="M604.1,944.2
		c0.2-2.9-0.2-5.9,0.7-8.5c1.1-3,3.4-5.5,5.2-8.3c2.5,2.3,4.9,4.9,7.6,6.9c4.2,3.1,8.2,7.4,12.9,8.6c11.7,2.9,23.9,3.9,35.7,6.5
		c2.8,0.6,4.9,4.6,7.3,7.1c-3.2,1.3-6.6,4.2-9.5,3.8c-15.5-2.4-30.8-5.6-46.2-8.4c-2-0.4-4.3,0.2-6.2-0.4c-3.2-1.1-6.2-2.9-9.3-4.4
		C603.1,946.1,603.6,945.1,604.1,944.2"/>
	<path style="clip-path:url(#SVGID_00000040562667404062091760000005854085299504568754_);fill:#FAFAFA;" d="M720.5,545
		c-0.1-13.8,10.2-25.9,19.4-24.9c3.2,0.4,8.1,5,8.4,8c0.9,8.6-12.3,23.9-19.6,23C725.2,550.7,722.1,546.3,720.5,545"/>
	<path style="clip-path:url(#SVGID_00000040562667404062091760000005854085299504568754_);fill:#FAFAFA;" d="M796.2,554
		c1.2,1.1,7,3.9,7.9,7.8c1.6,6.8-9.8,17.2-18,16.1c-5.5-0.7-12.9-3.7-15.3-7.9C767.8,564.6,782,554.4,796.2,554"/>
	<path style="clip-path:url(#SVGID_00000040562667404062091760000005854085299504568754_);fill:#FAFAFA;" d="M144.4,919.3
		c-14.1,6.9-44.3,2.1-51.3-8C110,913.9,126.3,916.5,144.4,919.3"/>
	<path style="clip-path:url(#SVGID_00000040562667404062091760000005854085299504568754_);fill:#FAFAFA;" d="M246.5,836.7
		c0.1,9.4-4.4,11.3-13.6,7.2c-12.6-5.6-25-11.6-37.9-16.6c-6.2-2.4-13.3-2.4-19.5-4.8c-6.7-2.7-13.1-6.5-19.1-10.7
		c-1.9-1.3-1.8-5.4-2.6-8.3c3.3-0.4,7-2,9.7-0.9c9.9,3.9,19.1,9.7,29.2,13c12,4,24.6,6.1,37,9.1
		C237.5,826.6,245.3,828.4,246.5,836.7"/>
</g>
</svg>
